<svg xmlns="http://www.w3.org/2000/svg" xmlns:xlink="http://www.w3.org/1999/xlink" width="602" zoomAndPan="magnify" viewBox="0 0 451.5 546.000001" height="728" preserveAspectRatio="xMidYMid meet" version="1.0"><path fill="#bb8f0e" d="M 169.519531 56.097656 C 169.460938 55.398438 169.285156 54.753906 169.226562 54.054688 C 168.644531 51.601562 170.164062 49.207031 172.5 48.445312 C 175.183594 47.804688 177.871094 49.265625 178.75 51.894531 C 177.753906 52.886719 176.703125 52.011719 175.652344 51.953125 C 174.660156 51.894531 173.550781 51.542969 173.140625 52.769531 C 172.789062 53.878906 173.726562 54.523438 174.484375 55.164062 C 175.59375 55.980469 177.230469 56.449219 177.636719 58.257812 C 176.878906 58.609375 176.179688 58.902344 175.417969 59.253906 C 175.652344 62.113281 175.128906 64.976562 174.015625 67.605469 C 173.726562 68.363281 173.667969 69.296875 173.902344 70.117188 C 174.835938 74.203125 174.132812 78.234375 173.199219 82.148438 C 172.441406 84.71875 170.511719 86.9375 168.058594 88.046875 C 165.839844 89.214844 163.386719 90.148438 160.816406 90.558594 C 157.195312 90.910156 153.515625 91.144531 149.894531 91.144531 C 147.910156 91.203125 145.921875 91.144531 144.519531 92.953125 L 144.578125 92.894531 C 141.367188 94.355469 139.730469 97.101562 138.503906 100.195312 C 137.804688 101.890625 137.570312 103.933594 135.46875 105.160156 C 135 104.519531 134.652344 103.875 134.417969 103.175781 C 133.832031 99.378906 134.183594 95.875 136.753906 92.71875 C 139.089844 89.566406 142.300781 87.230469 145.980469 86.003906 C 147.324219 80.863281 147.617188 75.546875 150.539062 70.992188 C 152.054688 71.925781 151.648438 73.035156 151.355469 74.03125 C 150.363281 77.125 149.3125 80.28125 148.257812 83.375 C 148.027344 84.015625 147.792969 84.660156 147.324219 85.710938 C 153.867188 85.476562 160 85.945312 166.015625 84.015625 C 166.949219 83.667969 167.824219 83.257812 168.703125 82.675781 C 170.105469 82.089844 170.863281 80.570312 170.511719 79.109375 C 170.277344 76.890625 170.277344 74.613281 170.453125 72.453125 C 157.488281 78 148.609375 69.882812 148.609375 61.121094 C 148.027344 61.882812 147.5 62.757812 147.089844 63.574219 C 145.046875 68.832031 143.003906 74.089844 141.015625 79.402344 C 139.964844 82.265625 139.03125 85.242188 137.980469 88.105469 C 137.394531 89.859375 136.34375 91.492188 135.058594 92.777344 C 134.941406 91.144531 135 89.507812 135.058594 87.871094 C 136.460938 78.644531 139.558594 69.707031 144.171875 61.589844 C 145.515625 59.429688 147.089844 57.324219 148.84375 55.515625 C 149.953125 54.230469 151.355469 53.296875 153.339844 54.171875 C 154.042969 54.464844 155.035156 54.113281 156.085938 54.054688 C 155.09375 52.535156 154.277344 51.191406 153.398438 49.789062 C 151.003906 49.382812 148.609375 49.789062 146.507812 50.957031 C 141.367188 53.351562 137.453125 57.675781 135.585938 62.992188 C 133.773438 68.246094 132.3125 73.5625 130.914062 78.996094 C 128.925781 86.355469 127.292969 93.828125 125.304688 101.191406 C 124.894531 102.648438 124.195312 104.109375 123.261719 105.394531 C 122.5 103.757812 122.328125 101.949219 122.792969 100.195312 C 123.960938 93.480469 125.1875 86.761719 126.355469 79.929688 C 127.175781 75.257812 128.109375 70.523438 129.160156 65.910156 C 130.503906 60.1875 132.898438 54.988281 137.511719 51.132812 C 142.011719 47.394531 146.917969 44.765625 153.398438 45.761719 C 153.398438 44.300781 153.457031 42.898438 153.398438 41.554688 C 152.933594 34.253906 155.558594 28.589844 161.75 24.617188 C 166.015625 21.8125 170.511719 19.59375 175.710938 18.949219 C 177.753906 18.660156 179.800781 18.015625 181.785156 17.78125 C 183.597656 17.492188 185.523438 17.375 187.394531 17.492188 C 193.117188 18.074219 196.035156 21.460938 195.804688 27.304688 C 197.789062 27.539062 198.664062 29.054688 199.542969 30.691406 C 202.695312 36.882812 205.03125 43.25 205.148438 50.257812 C 205.207031 52.59375 205.382812 54.8125 205.382812 57.148438 C 205.382812 64.101562 202.113281 67.78125 195.21875 68.773438 C 194.808594 68.832031 194.460938 68.890625 193.816406 69.066406 C 193.816406 69.765625 193.816406 70.410156 193.816406 71.050781 C 193.933594 73.972656 194.167969 77.007812 194.226562 79.929688 C 194.285156 83.082031 195.746094 85.1875 198.839844 85.945312 C 200.59375 86.296875 202.34375 86.414062 204.15625 86.414062 C 205.617188 86.46875 207.078125 86.179688 208.652344 86.179688 C 212.625 86.0625 216.304688 88.339844 217.882812 92.078125 C 218.171875 92.71875 218.464844 93.363281 219.050781 94.53125 C 219.398438 93.128906 219.632812 92.371094 219.75 91.492188 C 220.859375 84.894531 224.015625 79.871094 230.265625 76.890625 C 235.113281 74.671875 240.019531 72.335938 244.867188 70.117188 C 245.800781 69.707031 246.617188 69.125 247.554688 68.773438 C 248.253906 68.539062 248.953125 68.363281 249.65625 68.1875 C 249.773438 68.832031 249.949219 69.472656 249.949219 70.058594 C 249.949219 75.375 249.714844 80.804688 249.949219 86.121094 C 250.414062 93.480469 251.816406 100.722656 254.269531 107.613281 C 256.78125 115.324219 259.410156 123.035156 261.980469 130.742188 C 262.386719 132.027344 263.03125 133.136719 263.847656 134.132812 C 263.847656 133.664062 263.789062 133.136719 263.730469 132.730469 C 261.277344 119.355469 258.59375 106.039062 256.371094 92.660156 C 255.320312 86.46875 255.027344 80.28125 254.503906 74.03125 C 254.445312 72.394531 254.5625 70.875 254.855469 69.242188 C 255.144531 68.421875 255.554688 67.546875 256.140625 66.789062 L 256.839844 66.789062 C 257.191406 67.488281 257.480469 68.246094 257.65625 69.007812 C 261.101562 88.980469 264.433594 108.957031 267.9375 128.875 C 268.695312 133.371094 269.980469 137.753906 271.03125 142.191406 C 271.265625 143.359375 271.382812 144.585938 271.441406 145.753906 C 270.507812 145.695312 269.980469 145.695312 269.105469 145.636719 C 269.804688 146.6875 269.746094 147.683594 271.324219 148.089844 C 272.960938 148.5 274.1875 150.308594 274.480469 152.355469 C 275.121094 156.96875 275.648438 161.582031 276.230469 166.257812 C 277.398438 176.476562 278.625 186.699219 280.902344 196.863281 C 282.597656 204.28125 286.394531 210.996094 291.769531 216.371094 C 296.558594 221.160156 302.980469 221.859375 308.472656 217.714844 C 311.042969 215.726562 313.261719 213.214844 315.714844 211.054688 C 319.511719 207.84375 320.738281 203.285156 322.375 199.023438 C 322.839844 197.738281 322.316406 195.867188 321.671875 194.46875 C 319.160156 188.859375 317.46875 182.902344 316.53125 176.828125 C 315.949219 173.382812 315.773438 169.9375 315.773438 166.429688 C 316.007812 157.554688 316.355469 148.558594 316.765625 139.679688 C 317 135.882812 317.410156 132.203125 317.875 128.40625 C 317.816406 127.003906 318.695312 125.722656 320.035156 125.253906 C 321.378906 127.824219 320.621094 130.570312 320.855469 133.195312 C 321.089844 135.707031 321.148438 138.21875 321.265625 141.316406 C 325.175781 135.007812 329.792969 131.738281 334.171875 131.96875 C 333.585938 135.125 330.316406 136.117188 328.914062 138.628906 C 330.433594 138.160156 331.953125 137.695312 333.53125 137.460938 C 335.046875 137.050781 336.625 137.8125 337.265625 139.269531 C 337.96875 141.023438 337.210938 142.367188 335.28125 142.074219 C 333.472656 141.78125 331.660156 142.425781 330.433594 143.828125 C 329.03125 145.347656 327.6875 146.921875 326.460938 148.675781 C 325.351562 150.136719 324.476562 151.886719 322.664062 152.761719 C 322.082031 153.113281 321.671875 153.757812 321.613281 154.398438 C 321.613281 161.058594 321.265625 167.714844 321.90625 174.316406 C 322.492188 180.742188 324.125 187.050781 326.8125 192.949219 C 327.28125 194.117188 327.570312 195.402344 327.804688 196.6875 C 328.039062 197.679688 327.804688 198.789062 328.214844 199.546875 C 329.382812 201.652344 330.902344 203.636719 332.359375 205.855469 C 335.808594 197.09375 339.371094 188.800781 341.003906 179.863281 C 341.824219 175.777344 343.050781 171.804688 344.511719 167.890625 C 346.203125 163.101562 347.023438 158.078125 347.023438 153.054688 C 347.023438 148.792969 347.078125 144.527344 347.023438 140.207031 C 346.90625 138.746094 346.613281 137.285156 346.261719 135.882812 C 345.328125 130.277344 344.742188 124.667969 343.515625 119.121094 C 341.003906 107.089844 338.203125 95.054688 335.515625 83.082031 C 335.398438 82.617188 335.222656 82.148438 334.757812 80.746094 C 334.054688 81.796875 333.703125 82.5 333.238281 83.140625 C 332.304688 84.425781 331.367188 85.652344 330.375 86.9375 C 326.113281 92.3125 323.425781 98.851562 322.722656 105.746094 C 322.433594 108.199219 322.023438 110.652344 321.4375 113.105469 C 321.03125 114.625 320.503906 116.140625 319.980469 117.601562 C 319.160156 116.785156 318.8125 115.5 318.984375 114.390625 C 319.21875 109.132812 319.394531 103.875 319.804688 98.621094 C 320.210938 95.464844 321.496094 92.429688 323.367188 89.859375 C 326.460938 85.1875 330.140625 80.980469 334.347656 77.300781 C 324.945312 70.933594 314.664062 67.019531 304.265625 62.699219 C 304.265625 63.109375 304.265625 63.457031 304.324219 63.867188 C 306.71875 68.890625 307.070312 74.261719 306.488281 79.636719 C 305.785156 86.003906 305.027344 92.488281 303.976562 98.851562 C 303.566406 101.714844 302.691406 104.460938 301.464844 107.03125 C 295.855469 118.59375 289.839844 129.808594 282.070312 140.089844 C 280.613281 141.957031 279.386719 144.292969 276.816406 145.054688 C 276.40625 145.171875 276.113281 145.988281 275.765625 146.457031 C 275.121094 147.273438 274.480469 148.148438 273.894531 148.96875 C 273.660156 148.910156 273.484375 148.734375 273.195312 148.675781 C 273.3125 147.566406 273.601562 146.515625 273.953125 145.460938 C 277.339844 137.109375 279.210938 128.40625 281.195312 119.644531 C 282.246094 114.738281 283.882812 109.890625 285.402344 105.042969 C 288.671875 94.765625 290.425781 83.960938 290.542969 73.09375 C 290.597656 67.78125 290.773438 62.347656 290.890625 56.683594 C 289.140625 58.726562 287.445312 60.597656 285.691406 62.640625 C 287.09375 65.851562 286.746094 69.296875 285.691406 72.6875 C 284.175781 77.652344 280.027344 78.585938 276.347656 74.847656 C 275.53125 74.03125 275.003906 72.863281 274.246094 71.984375 C 273.894531 71.578125 273.484375 71.226562 272.960938 71.050781 C 272.726562 70.992188 272.257812 71.636719 272.027344 71.984375 C 270.972656 74.496094 268.871094 76.074219 266.710938 77.359375 C 264.199219 78.878906 261.511719 77.828125 260.988281 74.964844 C 260.167969 71.34375 260.988281 67.488281 263.324219 64.507812 C 263.90625 63.75 264.433594 62.992188 264.957031 62.113281 C 265.542969 61.121094 266.710938 60.828125 267.0625 61.765625 C 268.230469 64.507812 271.324219 64.859375 272.667969 66.902344 C 275.414062 65.269531 277.867188 63.808594 280.261719 62.289062 C 280.902344 61.824219 281.429688 61.238281 281.957031 60.597656 C 283.472656 58.785156 284.992188 56.859375 286.628906 55.222656 C 287.914062 53.9375 288.964844 52.125 291.242188 52.476562 C 291.359375 52.476562 291.59375 52.359375 291.710938 52.242188 C 294.046875 50.726562 294.222656 50.726562 296.148438 52.242188 C 296.207031 52.300781 296.265625 52.359375 296.382812 52.476562 C 298.777344 55.921875 302.574219 56.976562 306.136719 58.316406 C 314.253906 61.238281 322.199219 64.742188 329.851562 68.714844 C 332.246094 69.882812 334.40625 71.578125 336.097656 73.679688 C 337.210938 75.082031 338.320312 76.484375 337.910156 78.527344 C 337.910156 78.9375 337.96875 79.285156 338.144531 79.636719 C 342 89.800781 344.160156 100.371094 346.90625 110.886719 C 349.066406 119.179688 350.757812 127.472656 350.058594 136.175781 C 349.824219 139.214844 350.816406 142.25 351.050781 145.347656 C 351.460938 149.492188 351.695312 153.699219 351.695312 157.84375 C 351.460938 161.40625 350.875 164.914062 349.941406 168.359375 C 348.597656 173.847656 346.847656 179.222656 345.386719 184.710938 C 343.691406 191.136719 340.890625 197.269531 337.09375 202.820312 C 336.449219 203.753906 335.398438 204.570312 336.507812 205.914062 C 336.625 206.03125 336.449219 206.675781 336.214844 206.964844 C 334.757812 209.300781 331.660156 210.0625 329.324219 208.601562 C 329.207031 208.542969 329.089844 208.484375 328.972656 208.367188 C 328.855469 208.25 328.625 208.132812 328.566406 208.132812 C 327.398438 209.535156 326.054688 210.878906 324.59375 212.046875 C 323.074219 213.332031 320.855469 213.214844 319.394531 211.929688 C 318.226562 213.566406 317.234375 215.144531 316.007812 216.601562 C 311.394531 222.152344 305.609375 225.480469 298.132812 225.015625 C 294.511719 224.78125 291.125 223.261719 288.613281 220.691406 C 283.066406 215.085938 278.507812 208.894531 276.464844 201.183594 C 276.40625 200.832031 276.230469 200.425781 276.113281 200.074219 C 275.996094 199.839844 275.824219 199.722656 275.707031 199.488281 C 271.148438 201.652344 266.59375 199.898438 261.6875 199.199219 C 259.878906 202.585938 258.066406 205.914062 256.3125 209.359375 C 254.914062 212.105469 253.800781 214.96875 252.34375 217.65625 C 250.296875 221.625 246.734375 224.546875 242.414062 225.597656 C 241.59375 225.832031 240.71875 225.890625 239.140625 226.066406 C 239.609375 225.246094 240.136719 224.429688 240.777344 223.730469 C 241.710938 222.96875 242.648438 222.269531 243.640625 221.625 C 246.386719 219.933594 248.546875 217.539062 249.949219 214.675781 C 253.394531 207.785156 257.074219 201.125 260.109375 194.117188 C 265.132812 182.433594 268.230469 169.933594 269.164062 157.261719 C 269.28125 155.101562 269.515625 152.9375 269.746094 150.601562 C 265.835938 147.742188 262.796875 143.828125 260.988281 139.269531 C 255.261719 125.894531 249.539062 112.402344 246.382812 98.035156 C 244.75 90.558594 244.574219 82.847656 245.683594 75.257812 C 245.742188 74.789062 245.742188 74.261719 245.800781 73.269531 C 240.195312 76.542969 234.878906 79.636719 229.679688 82.789062 C 227.636719 84.132812 226.175781 86.179688 225.707031 88.515625 C 224.714844 92.253906 223.957031 95.992188 223.488281 99.847656 C 223.023438 104.636719 223.023438 109.367188 223.546875 114.097656 C 223.898438 118.652344 223.78125 123.210938 223.195312 127.765625 C 222.4375 134.65625 221.09375 141.433594 220.042969 148.382812 L 219.398438 147.566406 C 218.40625 150.308594 217.414062 152.9375 216.363281 155.742188 C 216.773438 156.328125 217.121094 156.851562 217.414062 157.496094 C 218.230469 161.699219 219.515625 165.847656 219.632812 170.050781 C 219.984375 180.566406 219.75 191.019531 219.867188 201.535156 C 219.867188 205.679688 219.984375 205.738281 224.132812 206.207031 C 228.335938 206.675781 232.542969 205.621094 235.988281 203.285156 C 236.921875 190.960938 236.105469 178.871094 237.449219 166.78125 C 238.617188 156.386719 238.96875 145.988281 239.492188 135.589844 C 239.84375 127.941406 239.902344 120.289062 240.136719 112.695312 C 240.195312 111.527344 240.425781 110.300781 240.777344 109.191406 C 241.011719 108.257812 241.59375 107.554688 243.113281 107.90625 C 243.40625 108.898438 243.523438 109.890625 243.699219 110.828125 C 244.515625 128.230469 244.808594 145.578125 243.054688 162.925781 C 242.761719 165.613281 242.296875 168.242188 242.0625 170.929688 C 241.59375 176.652344 241.070312 182.433594 240.71875 188.160156 C 240.425781 192.714844 240.601562 197.328125 238.675781 201.476562 C 239.492188 202.234375 240.542969 202.761719 240.777344 203.460938 C 241.011719 204.105469 240.367188 205.15625 239.785156 205.796875 C 238.851562 206.964844 237.742188 207.960938 236.628906 209.242188 C 238.148438 211.582031 239.199219 214.265625 238.441406 217.246094 C 237.449219 220.75 236.457031 224.195312 237.449219 227.875 C 237.742188 228.925781 237.214844 230.210938 237.097656 231.378906 L 237.15625 231.265625 C 236.863281 231.554688 236.6875 231.847656 236.457031 232.199219 C 233.769531 237.046875 228.980469 236.636719 225.707031 234.535156 C 223.488281 233.015625 221.738281 230.914062 220.570312 228.519531 C 220.101562 227.410156 219.457031 226.359375 218.699219 225.363281 C 218.699219 226.183594 218.699219 227.058594 218.699219 227.816406 C 218.582031 236.578125 218.289062 245.28125 218.230469 254.042969 C 218.171875 260 218.289062 265.957031 218.464844 271.914062 C 218.523438 274.308594 218.816406 276.589844 218 278.984375 C 217.648438 280.09375 218.058594 281.496094 218.289062 282.78125 C 219.109375 287.042969 220.101562 291.308594 221.035156 295.628906 C 222.730469 303.691406 222.4375 311.808594 222.144531 319.925781 C 222.027344 323.023438 221.851562 326.117188 221.679688 329.15625 C 221.328125 337.449219 222.4375 345.683594 224.949219 353.570312 C 226.410156 358.417969 227.753906 363.324219 229.039062 368.230469 C 229.445312 370.039062 229.738281 371.96875 229.796875 373.835938 C 229.914062 376.757812 229.796875 379.5625 231.140625 382.480469 C 232.601562 385.753906 231.375 388.90625 228.628906 391.300781 C 223.371094 395.972656 217.414062 398.777344 210.113281 397.667969 C 202.988281 396.617188 196.09375 397.902344 189.203125 399.828125 C 184.765625 401.113281 180.382812 402.28125 175.886719 403.101562 C 168.820312 404.441406 161.867188 403.214844 154.976562 401.230469 C 153.164062 400.648438 151.355469 400.179688 149.601562 399.476562 C 140.957031 396.089844 132.199219 396.03125 123.261719 398.136719 C 117.886719 399.421875 112.398438 400.589844 106.90625 401.347656 C 93.296875 403.15625 79.453125 402.105469 66.195312 398.308594 C 61.699219 396.96875 57.085938 396.207031 52.46875 395.972656 C 47.5625 395.855469 43.59375 393.460938 40.203125 389.957031 C 38.394531 388.089844 37.984375 385.753906 38.21875 383.066406 C 38.804688 376.816406 42.015625 373.019531 47.972656 371.441406 C 50.777344 370.683594 53.464844 369.691406 56.148438 368.871094 C 59.597656 367.878906 62.75 365.953125 65.144531 363.265625 C 70.402344 357.191406 75.773438 351.234375 80.914062 344.984375 C 86.054688 338.792969 89.617188 331.726562 92.773438 324.367188 C 94.757812 319.867188 96.625 315.371094 98.613281 310.992188 C 103.460938 300.183594 109.828125 290.082031 117.59375 281.203125 C 126.238281 271.097656 132.429688 259.242188 135.878906 246.449219 C 138.039062 238.738281 140.492188 231.03125 142.828125 223.320312 C 143.0625 222.734375 143.179688 222.210938 143.238281 221.566406 C 142.886719 214.207031 144.988281 207.199219 146.507812 200.191406 C 146.859375 198.671875 147.5 197.152344 148.257812 195.75 C 148.667969 195.109375 149.371094 194.699219 150.070312 194.699219 C 150.539062 194.757812 151.179688 195.808594 151.179688 196.453125 C 151.238281 198.90625 151.238281 201.417969 151.0625 203.871094 C 150.710938 208.425781 149.71875 212.921875 148.144531 217.1875 C 147.03125 220.050781 146.625 223.144531 145.921875 226.066406 C 143.527344 235.527344 141.367188 244.988281 138.796875 254.335938 C 135.933594 264.613281 130.796875 274.078125 123.785156 282.136719 C 113.972656 293.46875 106.03125 306.433594 100.539062 320.394531 C 98.90625 324.308594 97.152344 328.222656 95.34375 332.074219 C 91.953125 339.316406 87.632812 345.976562 82.433594 352.050781 C 78.285156 356.898438 74.082031 361.570312 69.875 366.417969 C 66.429688 370.332031 61.933594 373.136719 56.910156 374.480469 C 53.871094 375.296875 50.894531 376.523438 47.855469 377.515625 C 45.8125 378.101562 44.292969 379.851562 44.058594 382.015625 C 43.125 386.6875 43.125 387.210938 47.332031 389.664062 C 48.734375 390.601562 50.367188 391.125 52.003906 391.300781 C 59.246094 391.59375 66.078125 393.402344 73.089844 394.863281 C 87.925781 398.019531 103.285156 397.726562 117.945312 394.105469 C 121.566406 393.171875 125.304688 392.585938 129.042969 392.003906 C 135.761719 391.007812 142.652344 391.710938 149.019531 393.988281 C 151.9375 394.980469 154.917969 395.855469 157.839844 396.734375 C 165.429688 399.128906 173.492188 399.1875 181.027344 396.96875 C 183.773438 396.207031 186.574219 395.507812 189.378906 394.746094 C 196.152344 392.644531 203.28125 392.0625 210.289062 392.996094 C 215.3125 393.753906 220.511719 392.351562 224.539062 389.082031 C 226.875 387.328125 227.460938 385.636719 226.585938 382.890625 C 226.234375 381.78125 225.882812 380.671875 225.589844 379.445312 C 223.488281 371.152344 221.621094 362.855469 219.167969 354.679688 C 216.011719 344.109375 215.546875 333.359375 216.421875 322.496094 C 217.0625 315.136719 217.589844 307.835938 216.773438 300.476562 C 216.304688 296.15625 215.488281 291.832031 214.902344 287.511719 C 213.152344 274.601562 211.984375 261.695312 213.210938 248.609375 C 214.261719 238.039062 213.851562 227.351562 213.152344 216.777344 C 212.507812 208.132812 211.808594 199.546875 211.28125 190.902344 C 210.640625 182.375 209.179688 173.964844 207.019531 165.671875 C 206.726562 164.386719 206.433594 163.160156 206.199219 161.875 C 204.332031 154.398438 205.441406 147.097656 207.542969 139.855469 C 208.246094 137.402344 209.0625 134.949219 209.996094 132.496094 C 213.035156 124.320312 212.859375 115.265625 209.644531 107.148438 C 209.355469 106.152344 209.0625 105.160156 208.945312 104.226562 C 209.9375 103.527344 211.339844 103.816406 212.039062 104.8125 C 212.039062 104.867188 212.097656 104.867188 212.097656 104.925781 C 213.09375 106.210938 213.910156 107.496094 214.550781 109.015625 C 217.589844 116.375 217.824219 124.492188 215.371094 132.085938 C 213.851562 136.933594 212.15625 141.667969 210.464844 146.457031 C 210.40625 146.863281 210.230469 147.214844 210.054688 147.566406 C 208.011719 150.078125 208.304688 152.820312 209.0625 155.683594 C 210.582031 161.699219 212.097656 167.832031 213.617188 173.90625 C 214.203125 176.300781 214.726562 178.695312 215.488281 180.972656 C 215.371094 175.835938 216.421875 170.8125 215.019531 165.671875 C 212.976562 158.429688 214.085938 151.1875 215.371094 143.886719 C 216.539062 137.167969 217.355469 130.335938 218.171875 123.558594 C 218.933594 117.660156 218.171875 111.878906 217.355469 106.039062 C 216.945312 103.292969 216.597656 100.488281 216.363281 97.742188 C 216.304688 96.691406 215.777344 95.640625 215.019531 94.941406 C 212.625 92.253906 209.121094 91.027344 205.617188 91.433594 C 202.753906 91.785156 199.773438 91.433594 197.148438 90.441406 C 193.351562 89.097656 190.839844 85.59375 190.78125 81.621094 C 190.722656 79.929688 190.371094 78.234375 190.3125 76.601562 C 190.253906 74.148438 190.3125 71.695312 190.3125 69.183594 C 188.5625 68.773438 186.515625 68.363281 184.589844 67.722656 C 181.902344 66.902344 180.96875 64.800781 180.851562 62.171875 C 180.851562 61.472656 181.203125 60.363281 181.667969 60.128906 C 182.429688 59.835938 183.363281 60.011719 184.0625 60.539062 C 187.625 64.742188 192.183594 64.042969 196.738281 63.398438 C 199.773438 62.992188 201.351562 61.414062 201.410156 58.492188 C 201.527344 48.273438 201.527344 37.933594 195.160156 28.996094 C 190.664062 28.761719 188.035156 31.101562 187.335938 35.890625 C 187.042969 37.757812 186.984375 39.6875 186.691406 41.496094 C 186.398438 43.65625 185.289062 45.703125 183.597656 47.105469 C 182.894531 47.453125 182.195312 47.6875 181.492188 47.746094 C 181.375 47.046875 181.027344 46.226562 181.203125 45.644531 C 182.253906 42.371094 182.953125 38.925781 183.363281 35.480469 C 184.179688 30.28125 186.925781 26.484375 192.765625 25.433594 C 192.125 23.914062 190.722656 22.863281 189.144531 22.574219 C 187.507812 22.164062 185.875 21.988281 184.179688 22.222656 C 180.792969 22.628906 177.523438 23.332031 174.25 24.03125 C 169.109375 25.082031 165.023438 28.121094 161.226562 31.449219 C 158.539062 33.84375 157.722656 37.117188 157.957031 40.679688 C 158.011719 42.664062 158.246094 44.652344 158.1875 46.636719 C 158.070312 48.273438 158.773438 49.789062 160.058594 50.785156 C 161.050781 51.542969 162.160156 52.300781 163.269531 52.945312 C 164.964844 53.878906 167.300781 54.988281 169.519531 56.097656 C 169.460938 58.257812 169.285156 58.492188 167.359375 58.609375 C 163.855469 58.84375 160.410156 57.617188 157.78125 55.222656 C 156.613281 55.980469 155.445312 56.917969 154.507812 57.910156 C 153.75 59.019531 153.164062 60.363281 152.875 61.707031 C 152.582031 62.523438 152.640625 63.457031 152.933594 64.21875 C 154.21875 66.789062 156.027344 68.832031 159.125 69.183594 C 160.582031 69.414062 162.042969 69.472656 163.5625 69.472656 C 166.308594 69.707031 168.878906 68.070312 169.988281 65.617188 C 171.273438 63.28125 172.441406 61.003906 173.609375 58.902344 C 172.265625 57.96875 170.863281 57.089844 169.519531 56.097656 Z M 279.558594 139.386719 L 279.910156 139.503906 C 280.378906 138.804688 280.960938 138.101562 281.371094 137.34375 C 286.859375 127.472656 292.292969 117.601562 297.726562 107.613281 C 299.710938 103.875 300.9375 99.90625 301.347656 95.699219 C 301.988281 90.324219 302.515625 84.835938 302.980469 79.460938 C 303.742188 71.695312 301.347656 63.925781 296.441406 57.792969 C 296.03125 57.382812 295.503906 56.976562 295.039062 56.507812 C 295.15625 57.910156 295.273438 58.902344 295.332031 59.894531 C 295.390625 61.003906 295.5625 62.054688 295.621094 63.164062 C 296.90625 79.578125 295.5625 95.640625 289.429688 111.117188 C 285.925781 119.996094 283.066406 129.285156 279.910156 138.335938 C 279.734375 138.746094 279.675781 139.097656 279.558594 139.386719 Z M 223.3125 211.753906 C 223.195312 214.675781 223.195312 217.714844 223.371094 220.632812 C 223.78125 224.429688 225.707031 227.933594 228.628906 230.328125 C 229.5625 231.089844 230.730469 232.023438 231.78125 231.148438 C 232.601562 230.386719 233.125 229.277344 233.183594 228.109375 C 232.949219 226.300781 232.484375 224.488281 231.78125 222.734375 C 230.4375 219.171875 228.277344 215.84375 228.394531 211.753906 Z M 271.851562 174.898438 C 269.457031 181.675781 267.179688 188.21875 264.78125 194.992188 C 268.171875 194.757812 271.382812 195.984375 274.59375 194.582031 Z M 275.296875 69.824219 C 277.339844 70.523438 278.800781 70.933594 280.554688 71.578125 C 280.785156 69.824219 280.902344 68.480469 281.136719 66.4375 C 278.976562 67.722656 277.398438 68.65625 275.296875 69.824219 Z M 218 217.945312 C 218.992188 215.550781 219.867188 213.332031 220.859375 210.996094 C 219.925781 210.703125 218.875 210.296875 217.472656 209.828125 C 217.648438 212.691406 217.824219 215.203125 218 217.945312 Z M 266.945312 68.246094 C 265.660156 70.058594 265.660156 70.058594 265.894531 72.804688 C 267.585938 72.160156 269.164062 71.519531 271.089844 70.757812 C 269.632812 69.824219 268.289062 69.007812 266.945312 68.246094 Z M 231.78125 210.878906 C 232.542969 212.980469 233.242188 214.734375 233.945312 216.546875 C 234.761719 214.5 234.703125 212.222656 233.652344 210.296875 C 233.125 210.414062 232.601562 210.585938 231.78125 210.878906 Z M 321.789062 208.542969 L 322.082031 208.835938 C 323.714844 207.667969 325.351562 206.441406 327.046875 205.273438 L 326.054688 203.578125 C 324.59375 205.332031 323.191406 206.90625 321.789062 208.542969 Z M 321.789062 208.542969 " fill-opacity="1" fill-rule="nonzero"/><path fill="#bb8f0e" d="M 123.496094 164.972656 C 121.042969 162.808594 118.703125 160.765625 116.019531 158.3125 C 115.785156 159.832031 115.667969 161.058594 115.433594 162.226562 C 114.851562 165.027344 114.382812 167.890625 113.566406 170.636719 C 112.863281 173.03125 111.34375 175.132812 109.300781 176.59375 C 105.855469 179.105469 101.707031 177.703125 100.539062 173.671875 C 99.839844 171.105469 99.898438 168.300781 100.832031 165.730469 C 102.644531 160.179688 106.148438 156.269531 112.105469 154.75 C 111.636719 153.582031 110.46875 153.582031 109.652344 153.289062 C 104.394531 151.828125 99.429688 149.492188 94.933594 146.339844 C 93.765625 145.519531 92.597656 144.527344 91.546875 143.417969 C 89.210938 140.730469 90.027344 137.929688 93.414062 137.050781 C 98.554688 135.589844 103.984375 136.992188 107.78125 140.613281 C 108.71875 141.667969 109.652344 142.660156 110.703125 143.535156 C 110.351562 140.964844 109.535156 139.039062 106.789062 138.042969 C 98.4375 135.007812 93.414062 126.421875 94.875 117.660156 C 95.457031 114.449219 96.976562 112.519531 99.136719 112.171875 C 101.359375 111.820312 103.578125 113.457031 104.746094 116.667969 C 105.5625 119.003906 106.148438 121.457031 106.847656 123.792969 C 107.492188 125.777344 108.132812 127.707031 108.71875 129.808594 C 113.273438 124.203125 113.742188 123.96875 122.035156 123.910156 C 121.390625 123.269531 120.984375 122.917969 120.515625 122.507812 C 119.757812 121.867188 119.054688 121.164062 118.355469 120.464844 C 116.71875 118.476562 116.660156 116.609375 118.003906 115.441406 C 119.289062 114.273438 121.042969 114.390625 122.851562 115.851562 C 123.609375 116.492188 124.3125 117.191406 124.894531 118.011719 C 125.480469 118.710938 125.949219 119.414062 126.414062 120.054688 C 127.347656 118.59375 128.226562 117.191406 129.101562 115.734375 C 129.917969 114.390625 130.621094 112.988281 131.261719 111.585938 C 132.605469 107.730469 136.8125 105.6875 140.667969 107.089844 C 140.957031 107.148438 141.25 107.324219 141.484375 107.4375 C 142.417969 107.847656 143.121094 108.550781 143.644531 109.425781 C 145.164062 112.285156 146.566406 115.265625 148.085938 118.128906 C 148.316406 118.070312 148.492188 118.128906 148.550781 118.070312 C 151.472656 114.214844 154.449219 113.164062 158.949219 114.914062 C 161.34375 115.910156 163.5625 117.25 165.546875 118.828125 C 168.644531 121.339844 169.285156 124.785156 167.652344 128.523438 C 166.015625 131.96875 163.5625 134.890625 160.410156 136.992188 C 159.941406 137.34375 159.472656 137.695312 159.125 137.929688 C 160.933594 139.5625 162.6875 141.082031 164.613281 142.777344 C 165.082031 140.90625 165.546875 138.980469 165.722656 137.109375 C 165.957031 134.421875 167.183594 131.910156 169.167969 130.101562 C 170.863281 128.117188 173.667969 127.589844 175.945312 128.816406 C 178.164062 129.984375 179.214844 132.613281 178.398438 135.007812 C 177.636719 137.226562 176.585938 139.328125 175.300781 141.375 C 174.601562 142.367188 173.84375 143.359375 172.964844 144.234375 C 174.132812 144.292969 174.953125 144.351562 175.769531 144.46875 C 177.636719 144.527344 179.507812 145.402344 180.792969 146.804688 C 184.0625 150.195312 183.539062 154.867188 179.390625 157.027344 C 177.40625 157.960938 175.300781 158.546875 173.199219 159.011719 C 171.855469 159.304688 170.511719 159.480469 169.109375 159.65625 C 169.578125 160.355469 170.046875 161.058594 170.394531 161.757812 C 171.5625 164.269531 172.847656 166.722656 173.785156 169.351562 C 174.191406 170.753906 174.425781 172.273438 174.367188 173.789062 C 174.132812 179.515625 169.753906 181.851562 164.90625 178.8125 C 163.855469 178.113281 162.863281 177.296875 161.460938 176.242188 C 161.75 177.238281 161.925781 177.9375 162.101562 178.578125 C 163.445312 183.777344 160.292969 189.035156 155.09375 190.378906 C 154.332031 190.613281 153.574219 190.671875 152.757812 190.671875 C 149.019531 190.671875 145.804688 188.277344 144.695312 184.710938 C 143.585938 181.089844 144.636719 178.171875 147.96875 175.71875 C 148.199219 175.484375 148.316406 175.308594 148.433594 175.015625 C 141.894531 175.367188 141.894531 175.367188 137.160156 171.511719 C 137.511719 172.5625 137.804688 173.265625 137.921875 173.90625 C 138.738281 176.242188 139.382812 178.578125 139.90625 181.03125 C 140.140625 182.785156 139.964844 184.597656 139.5 186.289062 C 138.855469 189.035156 136.050781 190.730469 133.308594 190.085938 C 132.023438 189.792969 130.914062 188.976562 130.210938 187.867188 C 127.816406 184.070312 125.65625 180.15625 125.890625 175.484375 C 125.890625 175.074219 125.890625 174.726562 125.832031 173.964844 C 124.894531 174.550781 124.195312 175.015625 123.496094 175.425781 C 122.675781 175.894531 121.742188 176.359375 120.808594 176.710938 C 117.886719 177.527344 115.492188 175.191406 116.601562 172.273438 C 118.179688 168.824219 120.574219 166.429688 123.496094 164.972656 Z M 113.214844 145.929688 C 114.03125 147.097656 114.558594 147.742188 115.082031 148.5 C 116.367188 147.507812 117.421875 146.804688 118.296875 145.988281 C 121.566406 142.894531 125.304688 142.949219 129.101562 144.46875 C 132.957031 145.988281 135.46875 148.792969 135.644531 153.230469 C 135.875 157.496094 133.597656 161.582031 129.917969 163.628906 C 129.101562 164.09375 127.699219 164.09375 128.109375 165.789062 C 128.167969 166.023438 127.464844 166.429688 127.058594 166.722656 C 126.355469 167.308594 125.714844 167.832031 125.011719 168.359375 C 126.765625 168.242188 128.515625 167.65625 129.976562 166.722656 C 131.730469 165.554688 133.191406 165.320312 134.648438 167.367188 C 134.535156 166.253906 134.359375 165.144531 134.359375 163.976562 C 134.359375 161.058594 135.820312 158.3125 138.328125 156.675781 C 140.023438 155.625 141.015625 155.742188 142.417969 157.261719 C 141.835938 157.902344 141.132812 158.429688 140.667969 159.128906 C 139.148438 161.117188 138.796875 163.453125 140.023438 165.144531 C 141.015625 166.429688 142.125 167.539062 143.292969 168.535156 C 144.113281 169.292969 145.398438 169.46875 146.332031 168.824219 C 148.375 167.714844 149.253906 164.5625 148.316406 162.050781 C 147.382812 163.042969 146.566406 164.152344 145.164062 162.808594 C 143.644531 161.347656 143.351562 158.894531 144.519531 157.144531 C 144.8125 156.734375 145.164062 156.328125 145.515625 155.742188 C 141.953125 153.347656 140.023438 150.367188 141.25 146.164062 C 139.847656 145.871094 138.738281 145.695312 137.628906 145.347656 C 131.789062 143.535156 129.917969 138.394531 132.78125 133.136719 C 134.066406 130.570312 135.175781 127.882812 136.167969 125.136719 C 135.761719 124.84375 135.585938 124.550781 135.46875 124.550781 C 132.722656 124.667969 130.09375 124.902344 127 125.019531 C 127.640625 125.777344 128.050781 126.1875 128.402344 126.65625 C 131.144531 129.867188 131.085938 133.429688 128.167969 136.527344 C 125.480469 139.445312 121.566406 140.789062 117.652344 140.148438 C 116.484375 140.03125 115.199219 139.738281 113.855469 139.445312 C 114.910156 141.839844 115.902344 144.003906 117.011719 146.457031 C 115.726562 146.515625 114.851562 146.28125 113.214844 145.929688 Z M 168.351562 173.265625 C 168.585938 168.59375 166.367188 163.453125 163.386719 161.234375 C 160.640625 159.070312 156.84375 158.722656 153.867188 160.414062 C 154.332031 161.175781 154.625 162.167969 155.152344 162.226562 C 158.363281 162.984375 160.292969 165.4375 162.453125 167.597656 C 164.144531 169.410156 166.015625 171.160156 168.351562 173.265625 Z M 157.957031 131.152344 L 158.714844 131.503906 C 160 129.867188 161.285156 128.347656 162.511719 126.65625 C 163.328125 125.722656 163.328125 124.320312 162.570312 123.382812 C 160.757812 121.28125 158.246094 119.878906 155.445312 119.472656 C 153.808594 119.179688 152.875 120.171875 152.699219 121.867188 C 152.40625 123.617188 153.632812 125.3125 155.445312 125.605469 C 157.664062 126.1875 158.128906 127.648438 158.128906 129.574219 C 158.070312 130.042969 157.957031 130.628906 157.957031 131.152344 Z M 146.214844 134.65625 C 145.222656 132.964844 144.460938 131.5625 143.644531 130.335938 C 143.234375 129.75 142.359375 128.933594 141.953125 128.992188 C 141.191406 129.285156 140.550781 129.925781 140.257812 130.683594 C 139.554688 132.671875 138.503906 134.480469 137.101562 136 C 135.351562 138.042969 135.351562 138.6875 136.871094 141.257812 C 141.660156 141.492188 143.0625 137.050781 146.214844 134.65625 Z M 132.839844 122.332031 C 133.773438 121.574219 134.476562 120.347656 135.175781 120.347656 C 137.746094 120.347656 139.441406 118.476562 141.777344 117.660156 C 141.191406 116.550781 140.609375 115.617188 140.140625 114.625 C 139.730469 113.628906 139.5 112.578125 139.148438 111.585938 C 136.460938 111.234375 136.285156 111.234375 135.585938 113.046875 C 134.824219 115.03125 133.597656 116.667969 132.082031 118.070312 C 129.800781 120.347656 129.917969 120.929688 132.839844 122.332031 Z M 122.210938 150.136719 C 124.019531 150.253906 126.296875 149.433594 126.824219 152.121094 C 127.058594 152.820312 126.882812 153.523438 126.53125 154.105469 C 125.246094 155.160156 124.019531 156.152344 122.617188 157.027344 C 123.4375 158.078125 124.488281 159.363281 126.238281 159.128906 C 128.226562 158.839844 129.277344 157.378906 129.859375 155.625 C 130.152344 154.808594 130.269531 153.875 130.152344 153.054688 C 129.917969 150.953125 128.460938 149.785156 126.648438 149.082031 C 125.128906 148.5 123.496094 148.207031 122.210938 150.136719 Z M 146.859375 145.578125 C 145.046875 147.449219 144.871094 148.617188 146.625 150.019531 C 149.3125 152.355469 153.050781 153.054688 156.378906 151.769531 C 157.3125 151.421875 158.070312 150.777344 158.714844 150.019531 C 159.648438 148.910156 159.765625 147.332031 159.007812 146.164062 C 158.363281 144.820312 157.546875 143.710938 155.617188 143.769531 C 155.96875 144.761719 156.261719 145.8125 156.378906 146.863281 C 156.671875 149.082031 155.035156 151.070312 152.875 151.363281 C 152.230469 151.421875 151.53125 151.363281 150.886719 151.070312 C 149.371094 150.484375 148.144531 149.375 147.617188 147.855469 C 147.324219 147.15625 147.089844 146.398438 146.859375 145.578125 Z M 149.3125 178.695312 C 149.371094 179.804688 149.542969 181.03125 149.894531 182.144531 C 150.363281 183.835938 152.113281 184.828125 153.808594 184.304688 C 153.925781 184.246094 154.101562 184.246094 154.21875 184.1875 C 156.027344 183.429688 157.019531 181.5 156.671875 179.632812 C 156.378906 178.464844 155.210938 177.644531 153.984375 177.878906 C 152.464844 178.054688 151.0625 178.347656 149.3125 178.695312 Z M 177.464844 151.652344 C 177.230469 150.195312 175.828125 149.199219 174.425781 149.433594 C 174.367188 149.433594 174.367188 149.433594 174.308594 149.433594 C 170.863281 149.785156 167.535156 150.835938 164.4375 152.53125 C 164.089844 152.761719 163.855469 153.230469 163.152344 154.28125 C 168.234375 152.878906 173.023438 153.933594 177.464844 151.652344 Z M 147.910156 120.699219 C 146.449219 121.632812 145.222656 122.390625 143.644531 123.382812 C 148.316406 124.378906 148.84375 129.285156 152.054688 131.910156 C 152.640625 130.277344 153.105469 129.050781 153.515625 127.765625 C 149.425781 125.953125 148.726562 125.078125 147.910156 120.699219 Z M 110.0625 160.53125 C 105.855469 163.976562 104.21875 168.59375 105.855469 172.214844 C 108.542969 170.226562 109.886719 166.546875 110.0625 160.53125 Z M 173.84375 132.144531 C 171.621094 133.488281 170.628906 134.65625 170.628906 136.761719 C 170.570312 138.101562 170.164062 139.445312 169.578125 140.613281 C 168.820312 142.601562 167.007812 143.886719 164.964844 144.121094 C 165.257812 145.230469 165.429688 146.105469 165.78125 147.273438 C 166.890625 146.515625 168.292969 146.164062 168.820312 145.230469 C 170.570312 141.78125 172.03125 138.21875 173.609375 134.714844 C 173.667969 133.898438 173.84375 132.964844 173.84375 132.144531 Z M 116.425781 129.050781 C 116.195312 129.050781 116.019531 129.050781 115.785156 128.992188 C 115.140625 129.691406 114.675781 130.511719 114.324219 131.386719 C 114.207031 132.144531 114.324219 132.90625 114.734375 133.546875 C 116.601562 135.707031 122.675781 135.066406 123.960938 132.554688 C 124.195312 132.144531 123.84375 131.445312 123.726562 130.859375 C 123.085938 132.261719 121.683594 133.082031 120.164062 132.90625 C 117.945312 132.789062 116.894531 131.210938 116.425781 129.050781 Z M 151.878906 171.453125 C 154.277344 171.921875 156.496094 172.445312 158.773438 172.914062 C 157.371094 170.519531 156.027344 168.300781 154.625 165.847656 C 153.632812 167.949219 152.816406 169.703125 151.878906 171.453125 Z M 100.480469 117.894531 C 100.191406 117.953125 99.898438 118.011719 99.722656 118.128906 C 99.3125 122.332031 100.65625 126.539062 103.460938 129.691406 C 102.46875 125.777344 101.476562 121.867188 100.480469 117.894531 Z M 132.371094 170.8125 C 130.328125 174.375 131.203125 178.929688 134.359375 181.617188 C 133.65625 177.9375 133.015625 174.316406 132.371094 170.8125 Z M 97.503906 141.492188 C 99.957031 143.535156 102.757812 145.113281 105.796875 146.339844 C 103.871094 143.476562 101.53125 141.375 97.503906 141.492188 Z M 154.277344 137.402344 C 153.691406 136.703125 153.28125 136.351562 152.757812 135.707031 C 152.347656 136.761719 152.113281 137.34375 151.707031 138.21875 C 152.640625 137.871094 153.222656 137.753906 154.277344 137.402344 Z M 112.6875 149.902344 L 112.398438 150.367188 C 112.804688 150.660156 113.214844 150.953125 113.683594 151.1875 C 113.796875 151.070312 113.914062 150.894531 113.972656 150.777344 C 113.566406 150.484375 113.097656 150.136719 112.6875 149.902344 Z M 112.6875 149.902344 " fill-opacity="1" fill-rule="nonzero"/><path fill="#bb8f0e" d="M 236.804688 231.378906 C 239.140625 231.320312 239.316406 231.378906 239.667969 233.25 C 240.078125 235.703125 240.367188 238.15625 240.425781 240.667969 C 241.011719 256.4375 241.421875 272.207031 241.945312 288.035156 C 242.414062 302.113281 242.9375 316.1875 243.464844 330.324219 C 243.582031 336.28125 244.398438 342.238281 245.800781 347.960938 C 248.253906 357.132812 249.597656 366.59375 252.925781 375.648438 C 254.328125 379.445312 255.496094 383.359375 256.898438 387.445312 C 262.039062 388.148438 267.292969 388.089844 272.375 387.328125 C 273.894531 387.097656 275.878906 386.980469 276.699219 385.988281 C 277.398438 385.226562 276.816406 383.183594 276.933594 381.78125 C 277.046875 379.09375 277.046875 376.40625 277.339844 373.71875 C 278.390625 364.492188 277.632812 355.265625 276.640625 346.09375 C 275.996094 340.371094 275.9375 334.585938 275.472656 328.863281 C 275.121094 324.773438 274.710938 320.804688 274.070312 316.714844 C 273.367188 312.042969 272.433594 307.3125 271.675781 302.636719 C 271.207031 299.71875 271.441406 296.679688 272.375 293.820312 C 273.835938 289.203125 274.128906 284.472656 274.246094 279.742188 C 274.652344 269.289062 275.296875 258.949219 275.707031 248.496094 C 275.820312 245.339844 275.707031 242.1875 275.707031 239.03125 C 275.648438 232.375 275.472656 225.714844 275.414062 219.054688 C 275.355469 218.355469 275.414062 217.65625 275.707031 217.011719 C 276.054688 216.371094 276.699219 215.902344 277.457031 215.726562 C 278.21875 215.84375 278.859375 216.3125 279.210938 216.894531 C 279.5 217.539062 279.617188 218.238281 279.558594 218.941406 C 279.617188 223.960938 279.617188 229.042969 279.675781 234.125 C 279.675781 235.117188 279.445312 235.996094 280.671875 236.636719 C 281.3125 237.105469 281.722656 237.804688 281.78125 238.625 C 283.125 245.984375 284.582031 253.285156 285.519531 260.644531 C 286.101562 265.492188 286.277344 270.339844 285.925781 275.246094 C 285.34375 283.65625 285.808594 292.125 287.269531 300.476562 C 288.671875 307.601562 288.90625 314.902344 287.972656 322.144531 C 287.035156 329.039062 286.453125 335.929688 285.519531 342.824219 C 285.167969 344.632812 284.699219 346.445312 284.058594 348.195312 C 283.007812 346.328125 282.421875 344.109375 282.597656 341.945312 C 282.714844 334.878906 282.714844 327.871094 283.179688 320.804688 C 283.589844 313.445312 282.949219 306.085938 281.488281 298.957031 C 280.785156 295.453125 280.4375 291.890625 279.851562 288.09375 C 278.683594 293.351562 277.105469 298.375 277.164062 303.632812 C 277.222656 306.550781 277.046875 309.589844 277.046875 312.507812 C 277.046875 313.269531 277.105469 314.144531 277.398438 314.84375 C 279.910156 320.570312 280.261719 326.761719 280.554688 332.953125 C 280.902344 340.660156 281.488281 348.429688 281.664062 356.140625 C 281.953125 364.492188 281.664062 372.84375 279.675781 381.023438 C 279.558594 381.839844 279.617188 382.773438 279.792969 383.589844 C 280.613281 387.097656 280.085938 388.207031 276.992188 390.015625 C 275.707031 390.71875 274.769531 391.886719 273.425781 392.585938 C 268.230469 395.449219 262.855469 394.6875 257.539062 393.347656 C 256.78125 393.113281 256.082031 392.878906 255.085938 392.527344 C 255.085938 400.238281 250.414062 405.785156 246.792969 412.035156 C 247.203125 412.09375 247.496094 412.328125 247.726562 412.269531 C 254.152344 410.285156 260.753906 408.765625 266.007812 403.976562 C 267.761719 402.339844 270.273438 401.582031 272.550781 400.589844 C 273.894531 400.003906 274.710938 399.480469 274.769531 397.902344 C 274.828125 396.617188 275.0625 395.332031 275.414062 394.105469 C 275.648438 393.402344 276.347656 392.9375 276.816406 392.351562 C 277.515625 392.761719 278.160156 393.347656 278.683594 393.988281 C 279.09375 394.921875 279.445312 395.800781 279.617188 396.792969 C 280.613281 401.40625 278.160156 407.246094 274.070312 409.523438 C 268.460938 412.738281 262.972656 416.183594 257.191406 418.988281 C 252.574219 421.089844 247.84375 422.839844 242.9375 424.242188 C 240.425781 425.0625 237.742188 424.886719 235.34375 423.660156 C 232.542969 422.257812 232.484375 420.5625 234.175781 418.050781 C 239.199219 410.460938 246.382812 404.5 250.238281 396.03125 C 251.058594 394.515625 252.050781 393.113281 253.160156 391.769531 C 249.773438 391.183594 249.070312 389.023438 248.722656 386.160156 C 247.378906 375.414062 244.808594 364.84375 242.179688 354.386719 C 240.308594 346.386719 239.140625 338.207031 238.734375 329.914062 C 238.03125 318.410156 236.980469 306.902344 236.164062 295.453125 C 235.753906 289.789062 235.230469 284.179688 235.230469 278.515625 C 235.230469 264.90625 235.578125 251.296875 235.8125 237.746094 C 235.871094 235.585938 236.164062 233.425781 236.398438 231.207031 Z M 236.804688 231.378906 " fill-opacity="1" fill-rule="nonzero"/><path fill="#bb8f0e" d="M 307.246094 394.28125 C 309.816406 389.839844 310.808594 385.460938 309.757812 380.496094 C 308.355469 374.128906 307.363281 367.585938 306.371094 361.164062 C 306.019531 358.710938 305.960938 356.257812 305.726562 353.570312 C 300.585938 354.972656 295.214844 355.207031 290.015625 354.210938 C 288.203125 353.863281 286.394531 353.394531 284.523438 352.753906 C 284.058594 352.519531 283.355469 351.757812 283.355469 351.292969 C 283.414062 350.824219 284.117188 350.242188 284.757812 350.007812 C 285.578125 349.714844 286.453125 349.539062 287.328125 349.421875 C 289.199219 349.304688 291.125 349.304688 292.996094 349.1875 C 294.980469 349.132812 296.964844 349.1875 298.953125 349.074219 C 305.261719 348.664062 305.375 348.605469 306.660156 342.53125 C 307.714844 337.507812 308.472656 332.367188 309.40625 327.34375 C 309.640625 326.292969 309.757812 325.183594 310.050781 324.132812 C 312.792969 313.269531 315.597656 302.40625 318.167969 291.539062 C 318.753906 289.085938 318.925781 286.632812 318.753906 284.179688 C 317.234375 265.609375 317.816406 247.035156 317.757812 228.519531 C 317.757812 225.597656 317.816406 222.5625 317.992188 219.640625 C 318.050781 218.179688 318.226562 216.71875 318.460938 215.203125 C 318.578125 214.617188 319.21875 214.207031 319.628906 213.683594 C 320.09375 214.148438 321.03125 214.617188 321.148438 215.144531 C 321.554688 217.480469 321.847656 219.816406 321.964844 222.210938 C 322.433594 235.878906 322.78125 249.605469 323.25 263.269531 C 323.484375 269.230469 323.660156 275.1875 324.066406 281.144531 C 324.359375 284.589844 323.832031 288.09375 322.664062 291.367188 C 321.847656 294.050781 321.320312 296.738281 321.03125 299.484375 C 319.980469 306.960938 318.34375 314.320312 316.066406 321.503906 C 315.015625 324.773438 314.371094 328.222656 313.613281 331.609375 C 312.503906 336.515625 311.394531 341.421875 310.222656 346.328125 C 310.984375 346.5625 311.976562 346.910156 313.027344 347.144531 C 312.621094 349.949219 310.109375 350.53125 308.765625 351.992188 C 310.457031 359.058594 312.210938 366.070312 313.789062 373.136719 C 314.839844 377.75 316.183594 382.363281 315.65625 387.210938 C 315.65625 387.445312 315.597656 387.621094 315.65625 387.796875 C 317.699219 390.542969 316.414062 393.113281 315.074219 395.507812 C 313.730469 398.25 311.335938 400.296875 308.472656 401.171875 C 305.085938 402.164062 301.464844 401.929688 298.25 400.589844 C 295.332031 399.421875 293.753906 397.027344 292.703125 394.164062 C 289.546875 385.695312 289.898438 376.933594 290.191406 368.113281 C 290.25 365.425781 290.65625 362.796875 290.949219 360.113281 C 290.949219 359.46875 291.066406 358.945312 291.359375 358.417969 C 291.824219 357.773438 292.527344 356.957031 293.226562 356.898438 C 294.277344 356.78125 294.628906 357.832031 294.6875 358.710938 C 294.746094 360.171875 294.804688 361.628906 294.921875 363.207031 C 295.214844 370.625 295.503906 378.042969 295.738281 385.519531 C 295.796875 385.929688 295.796875 386.277344 295.738281 386.6875 C 295.332031 390.601562 295.679688 390.308594 299.242188 391.652344 C 301.988281 392.585938 304.675781 393.34375 307.246094 394.28125 Z M 307.246094 394.28125 " fill-opacity="1" fill-rule="nonzero"/><path fill="#bb8f0e" d="M 25.542969 383.476562 C 24.375 383.53125 23.148438 383.476562 21.980469 383.242188 C 16.082031 381.722656 10.300781 380.027344 5.21875 376.464844 C 4.808594 376.171875 4.460938 375.882812 4.050781 375.53125 C 0.78125 372.609375 0.195312 368.582031 3 365.25 C 4.632812 363.265625 6.621094 361.628906 8.898438 360.34375 C 13.511719 357.949219 17.308594 354.269531 19.878906 349.773438 C 22.214844 345.800781 25.195312 342.355469 28.875 339.550781 C 33.371094 336.046875 36.992188 331.550781 39.445312 326.46875 C 40.730469 323.898438 41.839844 321.210938 43.242188 318.699219 C 46.6875 312.507812 49.785156 306.085938 53.871094 300.476562 C 63.976562 286.867188 71.277344 271.800781 77.117188 256.027344 C 80.679688 246.214844 85.238281 236.8125 90.667969 227.875 C 95.167969 220.515625 97.679688 212.339844 99.839844 204.046875 C 101.183594 198.847656 102.644531 193.648438 104.160156 188.566406 C 104.570312 187.164062 104.980469 185.472656 107.199219 184.769531 C 107.433594 185.53125 107.492188 186.230469 107.492188 186.992188 C 105.972656 196.804688 104.570312 206.675781 101.589844 216.136719 C 100.421875 220.339844 98.789062 224.429688 96.625 228.167969 C 88.859375 241.078125 83.019531 254.859375 77.292969 268.703125 C 72.386719 280.328125 66.3125 291.425781 58.953125 301.644531 C 54.339844 308.363281 50.132812 315.3125 46.335938 322.554688 C 41.898438 330.675781 36.816406 338.035156 29.808594 344.226562 C 27.648438 346.269531 25.71875 348.546875 24.257812 351.175781 C 20.8125 356.722656 16.609375 361.28125 10.707031 364.257812 C 9.074219 365.25 7.671875 366.476562 6.503906 367.996094 C 5.394531 369.339844 5.570312 370.507812 6.855469 371.734375 C 7.671875 372.4375 8.546875 373.078125 9.539062 373.605469 C 13.394531 375.648438 17.25 377.691406 21.105469 379.679688 C 22.917969 380.554688 24.492188 381.78125 25.542969 383.476562 Z M 25.542969 383.476562 " fill-opacity="1" fill-rule="nonzero"/><path fill="#bb8f0e" d="M 268.636719 29.933594 C 268.519531 30.867188 268.636719 32.09375 268.171875 32.617188 C 267.234375 33.554688 265.953125 32.96875 264.898438 32.386719 C 263.441406 31.566406 262.386719 30.164062 261.863281 28.472656 C 261.101562 26.253906 260.402344 23.914062 259.527344 21.753906 C 258.242188 18.484375 256.605469 17.667969 253.21875 18.835938 C 251.058594 19.535156 248.953125 20.351562 246.851562 21.347656 C 246.09375 21.929688 245.390625 22.628906 244.867188 23.390625 C 244.75 23.625 244.808594 23.972656 244.632812 24.207031 C 242.589844 29.171875 243.113281 34.078125 245.214844 38.925781 C 246.851562 42.664062 248.136719 46.519531 249.890625 50.140625 C 252.285156 55.105469 256.605469 56.039062 260.8125 52.359375 C 264.316406 49.324219 267.878906 46.167969 269.574219 41.613281 C 269.863281 40.855469 270.273438 40.210938 270.859375 39.628906 C 271.5 39.160156 272.550781 38.578125 273.078125 38.808594 C 273.835938 39.21875 274.246094 39.976562 274.363281 40.855469 C 274.363281 42.546875 273.953125 44.125 273.253906 45.703125 C 271.851562 47.863281 270.390625 49.964844 268.695312 51.953125 C 267.9375 52.945312 267.003906 53.820312 266.183594 54.753906 C 266.652344 55.863281 267.003906 57.089844 267.292969 58.257812 C 267.234375 59.078125 266.945312 59.953125 266.535156 60.65625 C 265.835938 60.421875 265.132812 60.1875 264.492188 59.894531 C 264.140625 59.777344 264.023438 59.3125 263.730469 58.960938 C 261.6875 61.996094 258.882812 64.277344 255.613281 65.851562 C 255.90625 62.640625 258.707031 61.53125 259.933594 59.136719 C 258.941406 59.253906 258.125 59.371094 257.25 59.429688 C 252.226562 59.71875 248.253906 57.96875 245.976562 53.351562 C 242.878906 46.929688 240.71875 40.035156 239.550781 32.96875 C 239.433594 32.386719 239.433594 31.800781 239.492188 31.214844 C 240.078125 28.414062 240.601562 25.609375 241.1875 22.804688 C 241.070312 22.574219 240.835938 22.339844 240.601562 22.105469 C 238.03125 19.59375 237.742188 17.433594 239.785156 14.453125 C 243.171875 9.664062 247.378906 5.984375 253.042969 4.40625 C 259 2.773438 265.015625 1.546875 270.972656 0.261719 C 272.433594 0.0273438 273.894531 -0.03125 275.414062 0.0273438 C 278.800781 -0.0898438 281.957031 1.488281 283.882812 4.230469 C 285.167969 5.867188 286.21875 7.679688 286.976562 9.605469 C 289.429688 16.613281 290.597656 23.855469 288.789062 31.273438 C 288.496094 32.792969 287.738281 34.3125 286.628906 35.421875 C 285.867188 36.125 285.578125 37.464844 285.167969 38.34375 C 289.371094 42.898438 291.183594 48.039062 289.722656 51.425781 C 285.402344 49.03125 284.234375 44.710938 282.597656 40.503906 C 281.488281 40.855469 280.378906 41.203125 279.210938 41.496094 C 278.390625 41.613281 277.457031 41.613281 276.523438 41.496094 C 275.9375 41.378906 275.0625 40.796875 275.0625 40.386719 C 275.003906 39.628906 275.296875 38.925781 275.820312 38.34375 C 276.875 37.640625 278.042969 37.175781 279.328125 36.882812 C 281.488281 36.472656 283.183594 35.539062 284.117188 33.4375 C 284.464844 32.792969 284.699219 32.035156 284.757812 31.332031 C 284.875 28.238281 284.816406 25.140625 284.640625 22.105469 C 284.292969 18.601562 283.648438 15.039062 282.890625 11.589844 C 282.480469 10.191406 281.78125 8.847656 280.84375 7.679688 C 279.675781 5.515625 277.28125 4.289062 274.828125 4.640625 C 273.078125 4.699219 271.265625 4.933594 269.515625 5.285156 C 264.550781 6.453125 259.46875 7.796875 254.5625 9.195312 C 250.238281 10.363281 246.558594 13.402344 244.632812 17.492188 C 245.976562 16.671875 247.320312 15.855469 248.722656 15.269531 C 250.765625 14.277344 252.925781 13.578125 255.144531 13.167969 C 258.765625 12.527344 262.445312 14.511719 263.90625 17.957031 C 264.839844 19.710938 265.25 21.695312 266.007812 23.507812 C 266.769531 25.667969 267.761719 27.828125 268.636719 29.933594 Z M 268.636719 29.933594 " fill-opacity="1" fill-rule="nonzero"/><path fill="#bb8f0e" d="M 115.902344 182.144531 C 116.367188 182.785156 116.835938 183.429688 117.1875 184.1875 C 117.535156 185.824219 117.828125 187.457031 117.886719 189.152344 C 118.355469 198.496094 117.246094 207.84375 114.441406 216.777344 C 113.449219 219.992188 112.398438 223.203125 111.34375 226.359375 C 107.839844 236.988281 104.335938 247.675781 100.890625 258.308594 C 99.488281 262.921875 97.445312 267.417969 94.933594 271.566406 C 93.296875 274.078125 91.835938 276.707031 90.144531 279.160156 C 84.828125 286.925781 80.738281 295.511719 76.417969 303.804688 C 69.175781 317.183594 60.648438 329.796875 50.894531 341.421875 C 48.207031 344.632812 45.695312 347.960938 43.066406 351.175781 C 41.898438 352.636719 40.496094 353.980469 38.863281 355.03125 C 38.976562 354.386719 39.152344 353.863281 39.445312 353.277344 C 42.132812 348.839844 44.761719 344.457031 47.621094 340.195312 C 49.492188 337.332031 51.710938 334.585938 53.8125 331.785156 C 59.128906 324.542969 63.976562 317.066406 68.300781 309.296875 C 73.554688 300.125 78.34375 290.605469 82.550781 280.851562 C 84.359375 276.648438 86.523438 272.675781 88.917969 268.703125 C 92.539062 262.6875 95.574219 256.320312 97.796875 249.546875 C 101.53125 238.914062 105.269531 228.226562 109.066406 217.539062 C 112.515625 208.015625 114.441406 197.972656 114.792969 187.867188 C 114.851562 186.40625 115.082031 184.945312 115.199219 183.429688 C 115.433594 183.019531 115.667969 182.550781 115.902344 182.144531 Z M 115.902344 182.144531 " fill-opacity="1" fill-rule="nonzero"/><path fill="#bb8f0e" d="M 112.863281 271.683594 C 112.746094 270.28125 112.628906 268.820312 112.804688 267.359375 C 114.207031 259.648438 115.609375 251.941406 117.363281 244.289062 C 120.398438 231.265625 122.035156 217.945312 122.558594 204.570312 C 122.675781 200.308594 123.203125 196.101562 123.554688 191.839844 C 123.609375 191.253906 123.667969 190.671875 123.84375 190.085938 C 124.136719 189.269531 124.488281 188.21875 125.597656 188.566406 C 126.0625 188.683594 126.355469 189.675781 126.648438 190.320312 C 126.707031 190.554688 126.707031 190.730469 126.648438 190.902344 C 126.707031 206.265625 127.289062 221.683594 124.195312 236.871094 C 122.09375 247.265625 120.339844 257.78125 116.195312 267.59375 C 115.492188 269.054688 114.734375 270.515625 113.855469 271.914062 C 113.566406 271.855469 113.214844 271.742188 112.863281 271.683594 Z M 112.863281 271.683594 " fill-opacity="1" fill-rule="nonzero"/><path fill="#bb8f0e" d="M 271.734375 142.542969 C 271.382812 140.847656 271.089844 139.15625 270.972656 137.402344 C 270.859375 131.910156 270.914062 126.480469 270.914062 121.046875 C 270.859375 112.519531 270.859375 103.992188 270.800781 95.464844 C 270.800781 91.320312 270.859375 87.113281 270.914062 82.964844 C 270.914062 82.03125 271.03125 81.214844 271.382812 80.394531 C 271.734375 79.8125 272.316406 79.402344 272.902344 79.34375 C 273.542969 79.460938 274.070312 79.929688 274.363281 80.511719 C 274.710938 81.449219 274.945312 82.382812 274.945312 83.375 C 274.945312 93.886719 275.003906 104.402344 274.710938 114.914062 C 274.480469 122.566406 273.777344 130.101562 273.3125 137.753906 C 273.078125 139.386719 272.84375 140.90625 272.492188 142.425781 L 271.734375 142.425781 Z M 271.734375 142.542969 " fill-opacity="1" fill-rule="nonzero"/><path fill="#bb8f0e" d="M 186.515625 119.820312 C 182.371094 119.414062 179.917969 117.019531 177.871094 113.980469 C 176.0625 110.945312 172.847656 109.074219 169.226562 108.839844 C 167.710938 108.78125 165.78125 108.839844 164.613281 106.855469 C 166.484375 104.695312 168.9375 104.167969 171.5625 104.519531 C 175.710938 105.101562 179.332031 107.378906 181.433594 110.945312 C 182.488281 112.578125 183.539062 114.332031 184.707031 116.199219 C 185.40625 114.566406 186.167969 113.046875 187.101562 111.585938 C 189.554688 108.140625 192.765625 105.394531 196.5625 103.585938 C 199.949219 101.890625 203.164062 102.53125 206.609375 104.226562 C 205.617188 105.746094 204.214844 105.6875 203.046875 105.921875 C 195.746094 107.03125 190.839844 111.117188 187.683594 117.601562 C 187.277344 118.476562 186.867188 119.238281 186.515625 119.820312 Z M 186.515625 119.820312 " fill-opacity="1" fill-rule="nonzero"/><path fill="#bb8f0e" d="M 144.578125 93.011719 C 149.777344 92.253906 152.933594 94.355469 154.277344 99.671875 C 155.445312 104.109375 154.332031 108.78125 151.238281 112.171875 C 150.945312 112.519531 150.652344 112.929688 150.421875 113.339844 C 149.371094 114.855469 148.257812 114.855469 147.265625 113.28125 C 146.972656 112.8125 146.800781 112.230469 146.566406 111.585938 C 145.515625 108.492188 144.519531 105.335938 143.410156 102.242188 C 142.125 98.851562 142.066406 95.699219 144.578125 92.835938 Z M 148.726562 98.96875 L 147.96875 99.085938 C 148.257812 100.019531 148.550781 100.957031 148.785156 101.890625 L 149.253906 101.773438 C 149.136719 100.957031 148.960938 99.960938 148.726562 98.96875 Z M 148.726562 98.96875 " fill-opacity="1" fill-rule="nonzero"/><path fill="#bb8f0e" d="M 311.742188 299.953125 C 311.042969 300.535156 310.222656 301.003906 309.347656 301.410156 C 304.792969 303.222656 299.828125 303.746094 295.039062 302.8125 C 293.695312 302.519531 292.117188 302.464844 291.882812 300.710938 C 291.769531 299.601562 293.050781 298.726562 295.390625 298.726562 C 299.710938 298.609375 304.089844 298.492188 308.472656 298.492188 C 309.523438 298.550781 310.574219 298.726562 311.566406 298.957031 Z M 311.742188 299.953125 " fill-opacity="1" fill-rule="nonzero"/><path fill="#bb8f0e" d="M 268.636719 30.046875 C 268.929688 29.933594 269.28125 29.699219 269.457031 29.464844 C 270.507812 28.003906 272.492188 27.421875 274.128906 28.121094 C 275.820312 28.820312 276.875 30.574219 276.640625 32.386719 C 276.347656 34.253906 275.472656 36.007812 273.894531 37.234375 C 272.609375 38.34375 271.382812 37.816406 271.148438 36.125 C 271.089844 34.78125 271.089844 33.4375 271.148438 32.152344 C 270.449219 31.507812 269.574219 30.75 268.636719 30.046875 C 268.636719 29.933594 268.636719 30.046875 268.636719 30.046875 Z M 268.636719 30.046875 " fill-opacity="1" fill-rule="nonzero"/><path fill="#bb8f0e" d="M 142.359375 135.941406 C 140.667969 135.941406 139.789062 135.589844 139.671875 134.421875 C 139.613281 133.3125 140.375 132.90625 141.367188 132.90625 C 142.476562 132.964844 143.761719 133.253906 143.820312 134.539062 C 143.820312 135.007812 142.710938 135.648438 142.359375 135.941406 Z M 142.359375 135.941406 " fill-opacity="1" fill-rule="nonzero"/><path stroke-linecap="butt" transform="matrix(0.748629, 0, 0, 0.748629, 405.770276, 531.638214)" fill="none" stroke-linejoin="miter" d="M -0.000994731 2.001665 L 52.798658 2.001665 " stroke="#ffffff" stroke-width="4" stroke-opacity="1" stroke-miterlimit="4"/></svg>