<svg xmlns="http://www.w3.org/2000/svg" xmlns:xlink="http://www.w3.org/1999/xlink" width="475" zoomAndPan="magnify" viewBox="0 0 356.25 325.500004" height="434" preserveAspectRatio="xMidYMid meet" version="1.0"><defs><clipPath id="908180dc7e"><path d="M 95 261 L 177 261 L 177 275.511719 L 95 275.511719 Z M 95 261 " clip-rule="nonzero"/></clipPath><clipPath id="b6764f9419"><path d="M 77 0.09375 L 190 0.09375 L 190 60 L 77 60 Z M 77 0.09375 " clip-rule="nonzero"/></clipPath><clipPath id="49c1ef3ed3"><path d="M 264 93 L 301.472656 93 L 301.472656 116 L 264 116 Z M 264 93 " clip-rule="nonzero"/></clipPath><clipPath id="96f1e70ba7"><path d="M 334 308 L 355.5 308 L 355.5 312 L 334 312 Z M 334 308 " clip-rule="nonzero"/></clipPath></defs><path fill="#ffffff" d="M 107.398438 207.359375 C 110.953125 208.382812 114.472656 209.644531 118.140625 210.179688 C 125.703125 210.992188 133.332031 211.035156 140.914062 211.59375 C 145.328125 211.246094 144.433594 203.480469 140.328125 203.269531 C 134.734375 202.957031 129.199219 201.878906 123.578125 202.074219 C 117.917969 202.375 112.242188 202.234375 106.691406 201.007812 C 98.886719 199.789062 92.011719 195.933594 84.878906 192.792969 C 71.453125 187.722656 61.191406 180.917969 56.328125 166.800781 C 55.191406 163.5625 54.683594 160.152344 54.175781 156.773438 C 53.636719 154.714844 53.976562 149.960938 51.730469 149.132812 C 49.140625 149.210938 50.269531 152.792969 50.277344 154.488281 C 50.53125 157.882812 50.960938 161.261719 51.621094 164.601562 C 53.351562 175.320312 61.046875 183.519531 69.179688 190.113281 C 73.796875 194.1875 78.636719 198.101562 84.359375 200.53125 C 87.953125 202.125 91.539062 203.847656 95.363281 204.832031 C 99.339844 205.847656 103.445312 206.210938 107.398438 207.351562 Z M 107.398438 207.359375 " fill-opacity="1" fill-rule="nonzero"/><path fill="#ffffff" d="M 230.953125 140.015625 C 229.324219 140.679688 229.0625 142.796875 229.460938 144.300781 C 229.753906 146.347656 229.742188 148.410156 229.519531 150.460938 C 228.371094 158.042969 228.394531 165.757812 227.09375 173.304688 C 225.710938 178.628906 222.058594 182.96875 218.398438 186.9375 C 212.335938 193.285156 205.589844 199.1875 197.699219 203.144531 C 193.578125 205.023438 189.050781 205.746094 184.570312 206.273438 C 180.292969 206.738281 175.992188 206.417969 171.707031 206.367188 C 167.40625 206.433594 163.109375 206.605469 158.800781 206.558594 C 156.320312 206.707031 153.574219 205.890625 151.238281 206.882812 C 146.660156 213.082031 163.617188 211.601562 166.765625 211.964844 C 176.457031 212.890625 186.03125 211.105469 195.546875 209.449219 C 213.257812 206.8125 225.207031 194.589844 231.480469 178.320312 C 232.9375 174.402344 233.648438 170.265625 234.34375 166.160156 C 235.335938 159.972656 236.382812 153.65625 235.519531 147.398438 C 235.019531 144.777344 234.820312 139.207031 230.949219 140.015625 Z M 230.953125 140.015625 " fill-opacity="1" fill-rule="nonzero"/><path fill="#ffffff" d="M 115.4375 215.339844 C 115.710938 214.058594 116.320312 212.414062 115.386719 211.285156 C 115.011719 210.839844 114.332031 210.8125 113.917969 211.234375 C 112.828125 212.859375 112.414062 214.882812 111.4375 216.597656 C 110.292969 218.871094 108.628906 220.878906 107.683594 223.242188 C 106.324219 231.453125 111.347656 233.492188 116.882812 237.828125 C 117.703125 238.546875 118.949219 238.140625 119.304688 237.148438 C 120.425781 234.257812 116.863281 232.914062 115.226562 231.21875 C 113.828125 229.71875 111.988281 228.453125 111.167969 226.53125 C 110.453125 225.082031 111.773438 223.976562 112.335938 222.726562 C 113.53125 220.34375 114.726562 217.917969 115.441406 215.339844 Z M 115.4375 215.339844 " fill-opacity="1" fill-rule="nonzero"/><path fill="#ffffff" d="M 158.5625 235.15625 C 156.800781 237.328125 157.988281 241.703125 161.007812 241.925781 C 162.9375 241.925781 163.609375 239.765625 164.5625 238.445312 C 167.210938 234.613281 169.171875 229.820312 167.992188 225.128906 C 167.179688 222.3125 165.839844 219.671875 165.203125 216.796875 C 164.898438 215.480469 164.1875 212.578125 162.347656 213.949219 C 160.855469 215.796875 161.8125 218.636719 161.925781 220.820312 C 162.097656 223.398438 163.964844 225.742188 163.601562 228.335938 C 163.011719 231.269531 160.472656 233.085938 158.5625 235.160156 Z M 158.5625 235.15625 " fill-opacity="1" fill-rule="nonzero"/><path fill="#ffffff" d="M 130.980469 227.792969 C 132.523438 227.800781 134.066406 227.832031 135.609375 227.832031 C 137.171875 227.972656 138.652344 227.75 138.527344 225.820312 C 138.460938 224.941406 137.847656 223.769531 136.832031 223.789062 C 134.074219 223.839844 131.3125 223.832031 128.5625 223.601562 C 124.796875 223.363281 121.039062 222.785156 117.257812 223.027344 C 115.691406 222.886719 114.539062 223.71875 115.175781 225.375 C 116.058594 227.46875 121.957031 226.523438 124.144531 227.0625 C 126.421875 227.300781 128.683594 227.769531 130.980469 227.792969 Z M 130.980469 227.792969 " fill-opacity="1" fill-rule="nonzero"/><path fill="#ffffff" d="M 156.832031 223.28125 C 154.890625 223.449219 145.53125 222.921875 145.066406 224.65625 C 144.585938 225.730469 145.277344 227.171875 146.464844 227.363281 C 148.902344 227.789062 151.40625 227.828125 153.882812 227.953125 C 154.972656 227.964844 156.070312 227.921875 157.164062 227.890625 C 159.609375 227.675781 159.105469 223.382812 156.839844 223.28125 Z M 156.832031 223.28125 " fill-opacity="1" fill-rule="nonzero"/><path fill="#ffffff" d="M 107.636719 255.304688 C 111.683594 252.679688 115.832031 249.492188 117.410156 244.742188 C 117.855469 243.390625 118.359375 241.664062 117.410156 240.414062 C 115.644531 238.378906 114.472656 241.542969 113.625 242.804688 C 112.203125 244.761719 110.34375 246.316406 108.457031 247.8125 C 104.445312 251.183594 99.382812 253.03125 94.125 252.34375 C 92.488281 252.484375 89.730469 251.308594 88.570312 252.617188 C 87.449219 254.035156 88.066406 256.796875 89.945312 257.222656 C 92.117188 257.632812 94.308594 257.925781 96.511719 258.148438 C 100.480469 258.804688 104.394531 257.597656 107.644531 255.304688 Z M 107.636719 255.304688 " fill-opacity="1" fill-rule="nonzero"/><path fill="#ffffff" d="M 184.355469 257.660156 C 181.078125 257.90625 177.765625 257.496094 174.589844 256.683594 C 168.257812 254.738281 166.042969 251.59375 163.558594 245.703125 C 162.703125 243.542969 161.464844 244.589844 161.660156 246.453125 C 161.804688 248.523438 162.429688 250.542969 163.183594 252.457031 C 163.769531 253.917969 164.402344 255.417969 165.367188 256.675781 C 168.105469 260.238281 172.761719 261.6875 177.089844 261.984375 C 179.6875 262.179688 182.273438 261.761719 184.84375 261.464844 C 185.296875 261.414062 185.644531 261 185.808594 260.605469 C 186.285156 259.5 185.695312 257.71875 184.355469 257.648438 Z M 184.355469 257.660156 " fill-opacity="1" fill-rule="nonzero"/><g clip-path="url(#908180dc7e)"><path fill="#ffffff" d="M 172.609375 266.777344 C 171.667969 267.261719 170.683594 267.648438 169.710938 268.050781 C 161.082031 272.679688 152.445312 271.472656 143.128906 271.332031 C 138.882812 271.273438 134.628906 271.597656 130.386719 271.238281 C 123.292969 270.507812 116.394531 268.601562 109.625 266.421875 C 105.847656 265.234375 102.253906 263.558594 98.527344 262.230469 C 97.535156 261.34375 95.128906 262.164062 95.609375 263.679688 C 96.152344 264.554688 97.289062 264.816406 98.152344 265.300781 C 105.199219 268.378906 112.394531 271.644531 120.140625 272.316406 C 127.398438 273.867188 134.664062 275.675781 142.125 275.75 C 151.574219 275.910156 161.121094 275.300781 170.296875 272.964844 C 171.933594 272.429688 176.324219 270.511719 176.628906 268.746094 C 176.933594 266.664062 174.085938 265.964844 172.601562 266.792969 Z M 172.609375 266.777344 " fill-opacity="1" fill-rule="nonzero"/></g><path fill="#ffffff" d="M 160.125 125.257812 C 161.203125 124.359375 161.386719 121.902344 159.609375 121.808594 C 152.324219 121.699219 145.179688 122.832031 137.953125 123.492188 C 133.371094 123.796875 128.339844 123.394531 123.683594 122.96875 C 117.410156 122.558594 111.066406 122.628906 104.882812 121.363281 C 103.949219 120.324219 102.359375 121.199219 101.917969 122.289062 C 101.269531 123.375 101.929688 125.191406 103.382812 124.785156 C 108.539062 126.261719 113.976562 126.3125 119.285156 126.886719 C 126.96875 127.328125 134.660156 126.296875 142.347656 126.753906 C 146.214844 126.886719 150.089844 126.8125 153.945312 126.386719 C 155.59375 126.222656 157.242188 126.003906 158.898438 125.890625 C 159.355469 125.859375 159.8125 125.554688 160.128906 125.25 Z M 160.125 125.257812 " fill-opacity="1" fill-rule="nonzero"/><path fill="#ffffff" d="M 156.75 144.21875 C 153.1875 144.300781 149.640625 143.863281 146.078125 144.007812 C 141.003906 144.179688 135.980469 145.246094 130.894531 145.007812 C 126.625 144.820312 122.363281 144.429688 118.097656 144.191406 C 115.289062 143.894531 112.515625 143.375 109.714844 143.023438 C 108.679688 143.003906 107.53125 142.414062 106.566406 142.953125 C 105.472656 143.519531 104.925781 145.648438 106.398438 146.058594 C 110.109375 146.601562 113.847656 146.96875 117.582031 147.304688 C 121.488281 147.769531 125.417969 147.507812 129.335938 147.449219 C 133.234375 147.394531 137.128906 147.699219 141.015625 147.945312 C 146.007812 148.28125 150.984375 147.804688 155.96875 147.558594 C 157.660156 147.636719 158.800781 144.492188 156.757812 144.21875 Z M 156.75 144.21875 " fill-opacity="1" fill-rule="nonzero"/><path fill="#ffffff" d="M 198.765625 143.324219 C 199.144531 143.265625 199.417969 142.917969 199.53125 142.574219 C 199.871094 141.511719 199.03125 140.027344 197.820312 140.191406 C 194.726562 140.675781 191.628906 141.144531 188.546875 141.714844 C 186.363281 142.21875 182.691406 142.035156 180.953125 143.324219 C 180.417969 143.90625 180.773438 145.007812 181.511719 145.226562 C 185.925781 145.03125 190.371094 144.546875 194.757812 143.921875 C 196.089844 143.714844 197.425781 143.53125 198.765625 143.324219 Z M 198.765625 143.324219 " fill-opacity="1" fill-rule="nonzero"/><path fill="#ffffff" d="M 180.414062 133.347656 C 180.394531 130.234375 180.0625 126.894531 178.125 124.335938 C 176.976562 122.953125 173.992188 119.566406 172.035156 120.355469 C 169.8125 121.554688 170.929688 124.925781 172.855469 125.859375 C 175.375 127.753906 176.347656 128.226562 176.609375 131.574219 C 177.65625 139.035156 171.292969 144.605469 167.792969 150.5 C 165.03125 147.261719 162.296875 143.753906 161.652344 139.410156 C 161.058594 134.597656 163.191406 129.582031 166.925781 126.515625 C 167.488281 126.03125 168.144531 125.707031 168.804688 125.390625 C 169.789062 124.679688 168.929688 122.699219 167.738281 122.90625 C 163.753906 124.328125 160.980469 128.40625 159.480469 132.210938 C 156.679688 139.710938 161.578125 148.179688 166.695312 153.503906 C 168.011719 155.148438 169.128906 154.378906 170.355469 153.164062 C 172.277344 151.28125 174.203125 149.363281 175.769531 147.164062 C 178.660156 143.164062 180.5 138.324219 180.414062 133.359375 Z M 180.414062 133.347656 " fill-opacity="1" fill-rule="nonzero"/><path fill="#ffffff" d="M 83.953125 82.867188 C 84.785156 82.289062 85.652344 81.800781 86.554688 81.339844 C 89.792969 79.691406 93.503906 78.734375 97.140625 78.746094 C 97.808594 78.9375 98.347656 78.441406 98.40625 77.78125 C 98.539062 75.414062 94.875 76.46875 93.433594 76.5625 C 91.554688 76.492188 79.359375 81.03125 82.453125 83.542969 C 83.039062 83.714844 83.5 83.140625 83.953125 82.863281 Z M 83.953125 82.867188 " fill-opacity="1" fill-rule="nonzero"/><path fill="#ffffff" d="M 67.726562 88.761719 C 68.761719 87.808594 70.101562 87.179688 71.503906 87.015625 C 72.304688 86.96875 73.113281 87.003906 73.917969 86.9375 C 76.015625 86.671875 79.085938 85.882812 80.351562 84.082031 C 80.617188 83.933594 80.75 83.648438 80.714844 83.34375 C 80.695312 83.039062 80.460938 82.78125 80.148438 82.78125 C 79.449219 82.296875 78.574219 82.894531 77.824219 83.015625 C 76.609375 83.339844 75.378906 83.664062 74.132812 83.828125 C 73.066406 83.941406 71.992188 83.730469 70.933594 83.878906 C 69.179688 84.105469 67.636719 85.148438 66.464844 86.429688 C 65.511719 87.515625 65.140625 88.957031 64.734375 90.3125 C 64.164062 92.132812 64.328125 94.089844 64.710938 95.929688 C 65.3125 98.230469 66.355469 100.421875 66.386719 102.847656 C 66.425781 106.902344 66.09375 110.074219 67.917969 113.914062 C 68.773438 116.003906 70.75 117.292969 72.507812 118.574219 C 73.503906 119.238281 74.71875 118.390625 75.011719 117.371094 C 75.417969 116.21875 75.132812 114.792969 74.097656 114.078125 C 73.113281 113.273438 71.875 112.585938 71.359375 111.367188 C 69.980469 108.332031 70.34375 104.941406 69.582031 101.761719 C 69.332031 100.730469 68.976562 99.746094 68.566406 98.777344 C 67.890625 97.066406 66.570312 95.640625 66.285156 93.785156 C 66.011719 92.589844 66.296875 91.414062 66.769531 90.316406 C 67.015625 89.757812 67.277344 89.191406 67.71875 88.761719 Z M 67.726562 88.761719 " fill-opacity="1" fill-rule="nonzero"/><path fill="#ffffff" d="M 121.253906 80.289062 C 125.550781 77.484375 130.316406 75.078125 135.492188 74.5625 C 143.125 73.253906 151.570312 80.257812 157.742188 76.433594 C 159.316406 75.109375 159.011719 71.8125 156.882812 71.234375 C 156.292969 71.082031 155.640625 71.164062 155.03125 71.140625 C 151.488281 71.039062 148.113281 69.78125 144.636719 69.257812 C 136.746094 68.210938 124.566406 69.46875 118.128906 74.441406 C 113.539062 78.234375 111.601562 84.144531 109.683594 89.574219 C 107.320312 96.871094 107.722656 104.679688 109.847656 111.976562 C 110.566406 114.683594 111.5625 117.300781 112.792969 119.808594 C 113.144531 120.4375 113.40625 121.210938 114.03125 121.613281 C 115.949219 122.222656 115.640625 119.535156 114.980469 118.492188 C 114.132812 116.488281 113.316406 114.460938 112.660156 112.378906 C 111.777344 108.652344 110.953125 104.878906 110.363281 101.09375 C 109.980469 96.183594 112.128906 91.515625 114.972656 87.636719 C 116.710938 84.914062 118.664062 82.265625 121.253906 80.289062 Z M 121.253906 80.289062 " fill-opacity="1" fill-rule="nonzero"/><path fill="#ffffff" d="M 166.945312 112.949219 C 166.144531 114.335938 165.394531 115.742188 164.621094 117.140625 C 164.109375 118.320312 162.371094 119.546875 163.414062 120.882812 C 164.773438 122.183594 166.550781 118.15625 167.191406 117.210938 C 168.472656 114.996094 170.1875 113.050781 171.394531 110.785156 C 174.527344 103.957031 175.992188 94.789062 171.535156 88.316406 C 170.714844 87.625 169.71875 88.570312 169.6875 89.449219 C 169.625 90.058594 169.800781 90.640625 169.980469 91.21875 C 172.03125 96.3125 171.191406 101.832031 169.515625 106.902344 C 168.917969 109.023438 168.074219 111.058594 166.945312 112.957031 Z M 166.945312 112.949219 " fill-opacity="1" fill-rule="nonzero"/><path fill="#ffffff" d="M 234.035156 100.921875 C 236.707031 93.402344 233.09375 85.800781 232.136719 78.335938 C 231.722656 74.816406 234.34375 71.679688 233.507812 68.167969 C 232.492188 63.472656 224.535156 59.5625 220.152344 61.675781 C 217.828125 62.75 215.613281 64.066406 213.21875 64.992188 C 208.785156 65.734375 204.328125 64.648438 199.890625 64.769531 C 196.929688 64.984375 197.132812 70.613281 200.199219 70.3125 C 204.917969 69.527344 209.71875 69.203125 214.496094 69.207031 C 220.550781 67.558594 223.796875 66.117188 229.257812 70.421875 C 228.414062 74.570312 228.40625 78.785156 229.804688 82.816406 C 231.8125 89.449219 231.785156 96.082031 228.863281 102.445312 C 227.035156 106.238281 224.71875 109.804688 222.34375 113.273438 C 221.347656 114.308594 219.90625 116.539062 221.847656 117.355469 C 224.8125 117.191406 227.117188 112.46875 228.847656 110.300781 C 230.917969 107.386719 232.988281 104.394531 234.027344 100.933594 Z M 234.035156 100.921875 " fill-opacity="1" fill-rule="nonzero"/><g clip-path="url(#b6764f9419)"><path fill="#ffffff" d="M 80.433594 55.535156 C 82.222656 52.367188 84.089844 49.167969 86.542969 46.457031 C 87.945312 45.128906 89.464844 43.910156 91.007812 42.753906 C 93.082031 41.199219 95.636719 40.1875 97.261719 38.097656 C 98.101562 37.019531 98.222656 35.636719 98.589844 34.363281 C 99.191406 32.289062 100.144531 30.320312 101.460938 28.605469 C 102.488281 26.949219 105.277344 27.714844 106.921875 27.945312 C 108.992188 28.960938 110.101562 32.566406 111.785156 34.339844 C 113.449219 37.039062 116.675781 37.640625 119.519531 38.351562 C 125.992188 41.382812 126.5625 49.695312 127.964844 55.875 C 128.503906 58.707031 131.84375 59.15625 132.761719 56.324219 C 132.796875 56.195312 132.828125 56.050781 132.855469 55.890625 C 132.976562 56.941406 133.332031 57.632812 134.042969 57.714844 C 135.535156 57.734375 135.363281 55.847656 135.492188 54.800781 C 135.546875 53.148438 135.578125 51.496094 135.707031 49.847656 C 135.980469 46.933594 136.984375 44.175781 137.898438 41.40625 C 138.023438 41.234375 138.121094 41.03125 138.164062 40.804688 C 138.171875 40.714844 138.175781 40.625 138.183594 40.539062 C 138.273438 40.25 138.359375 39.972656 138.449219 39.6875 C 139.15625 37.640625 139.839844 35.589844 140.546875 33.550781 C 140.566406 33.539062 140.582031 33.527344 140.597656 33.507812 C 140.671875 35.882812 143.328125 37.503906 145.511719 37.621094 C 146.738281 37.65625 147.910156 37.382812 149.074219 37.007812 C 148.730469 37.195312 148.394531 37.398438 148.058594 37.617188 C 143.003906 40.417969 141.179688 42.828125 138.304688 47.777344 C 136.984375 50.648438 136.683594 53.886719 136.125 56.964844 C 135.984375 57.847656 136.449219 59.085938 137.421875 59.269531 C 139.445312 59.449219 139.464844 55.992188 140.144531 54.609375 C 141.160156 50.753906 143.664062 47.597656 145.855469 44.355469 C 148.488281 41.425781 152.3125 39.859375 156.1875 39.476562 C 158.828125 39.191406 161.984375 38.957031 163.855469 36.855469 C 165.578125 35.335938 168.652344 30.453125 171.089844 31.089844 C 175.375 33.214844 174.316406 39.0625 176.394531 42.703125 C 177.785156 44.917969 180.34375 46.003906 182.140625 47.832031 C 185.503906 50.863281 186.464844 55.378906 188.335938 59.277344 C 191.53125 60.871094 188.910156 53.003906 188.546875 51.703125 C 185.722656 41.488281 180.292969 43.082031 177.878906 38.5625 C 176.273438 34.1875 175.1875 27.15625 169.355469 26.96875 C 166.296875 27.53125 163.84375 29.855469 161.46875 31.722656 C 159.699219 32.796875 157.753906 33.53125 155.792969 34.238281 C 159.871094 31.5 162.421875 26.445312 162.359375 21.582031 C 162.808594 17.148438 158.992188 19.207031 156.371094 19.492188 C 154.320312 19.796875 152.222656 19.980469 150.28125 20.769531 C 149.132812 21.234375 147.996094 21.777344 146.960938 22.476562 C 148.101562 21.492188 149.125 20.496094 149.582031 20.070312 C 152.910156 17.09375 154.660156 13.25 154.414062 8.765625 C 154.445312 6.457031 154.039062 4.1875 153.558594 1.933594 C 153.488281 0.980469 152.679688 -0.449219 151.589844 0.277344 C 150.839844 1.089844 150.453125 2.238281 149.398438 2.777344 C 146.617188 4.289062 143.441406 5.285156 141.199219 7.617188 C 138.386719 10.730469 136.171875 14.972656 136.644531 19.265625 C 136.96875 20.800781 137.035156 22.859375 138.519531 23.761719 C 140.425781 24.65625 141.625 21.96875 140.964844 20.464844 C 139.117188 16.558594 141.71875 12.445312 144.058594 9.371094 C 146.007812 7.128906 148.878906 6.035156 151.207031 4.289062 C 151.378906 5.660156 151.265625 7.035156 151.183594 8.40625 C 151.066406 9.851562 151.226562 11.394531 150.558594 12.734375 C 149.054688 15.652344 146.335938 17.675781 144.019531 19.910156 C 142.800781 20.824219 141.179688 22.300781 141.546875 23.714844 C 141.328125 24.148438 141.109375 24.578125 140.882812 25.003906 C 140.113281 26.566406 139.535156 28.199219 138.996094 29.855469 C 138.582031 31.019531 138.164062 32.191406 137.757812 33.378906 C 136.949219 29.976562 134.984375 26.554688 132.574219 24.300781 C 130.605469 22.4375 127.914062 21.875 125.316406 21.503906 C 123.75 21.285156 122.15625 21.082031 120.566406 21.15625 C 119.886719 21.167969 119.640625 22.007812 119.902344 22.539062 C 120.058594 22.839844 120.292969 23.09375 120.441406 23.40625 C 121.125 25.015625 121.558594 26.738281 121.875 28.460938 C 122.027344 31.023438 122.484375 33.328125 123.457031 35.527344 C 122.71875 34.847656 121.9375 34.21875 121.089844 33.671875 C 116.261719 31.613281 115.550781 29.945312 112.628906 25.8125 C 111.453125 24.148438 109.886719 22.539062 107.726562 22.40625 C 105.148438 22.171875 102.03125 22.535156 100.347656 24.730469 C 98.695312 27.023438 97.777344 29.734375 96.726562 32.339844 C 96.164062 33.683594 95.980469 35.332031 94.402344 35.855469 C 92.132812 36.976562 89.789062 38.023438 87.722656 39.507812 C 84.410156 41.910156 82.269531 45.425781 80.292969 48.9375 C 79.207031 51.117188 77.421875 53.433594 77.714844 55.980469 C 78.027344 57.910156 80.617188 57.308594 80.414062 55.53125 Z M 151.996094 23.996094 C 154.65625 23.054688 157.5 22.800781 160.179688 21.90625 C 160.078125 23.726562 158.988281 25.214844 157.863281 26.574219 C 156.339844 28.269531 154.933594 30.167969 153 31.417969 C 151.011719 32.410156 148.890625 33.367188 146.671875 33.671875 C 145.535156 33.648438 144.609375 32.871094 143.71875 32.242188 C 143.289062 31.804688 142.792969 31.308594 142.121094 31.398438 C 144.738281 28.148438 148.050781 25.457031 151.996094 24 Z M 145.351562 23.796875 C 144.839844 24.34375 144.128906 25.105469 143.378906 25.984375 C 143.554688 25.558594 143.734375 25.132812 143.917969 24.707031 C 144.367188 24.476562 144.863281 24.152344 145.378906 23.777344 C 145.371094 23.785156 145.367188 23.792969 145.359375 23.796875 Z M 132.847656 53.890625 C 132.53125 50.863281 131.160156 46.335938 129.84375 43.523438 C 131.058594 44.195312 132.40625 44.664062 133.859375 44.96875 C 134.101562 45.035156 134.328125 45.039062 134.539062 45.007812 C 133.914062 47.535156 133.039062 51.160156 132.847656 53.890625 Z M 135.1875 33.703125 C 135.726562 36.023438 135.199219 38.433594 135.464844 40.757812 C 135.230469 40.480469 134.925781 40.25 134.5625 40.125 C 130.257812 38.1875 129 39.4375 126.003906 35.121094 C 124.542969 33.171875 124.644531 30.648438 124.246094 28.359375 C 123.871094 26.554688 123.578125 24.972656 122.59375 23.238281 C 129.148438 24.148438 133.109375 27.386719 135.1875 33.710938 Z M 135.1875 33.703125 " fill-opacity="1" fill-rule="nonzero"/></g><path fill="#ffffff" d="M 17.039062 143.203125 C 17.921875 145.710938 19.027344 148.246094 19.28125 150.910156 C 18.945312 157.859375 14.320312 163.988281 15.234375 171.117188 C 8.464844 167.816406 3.511719 160.832031 2.515625 153.382812 C 1.8125 147.941406 4.941406 143.175781 8.917969 139.78125 C 10.210938 138.679688 11.703125 137.367188 13.507812 137.441406 C 14.664062 137.53125 14.714844 135.441406 13.703125 135.175781 C 10.816406 134.089844 8.289062 136.738281 6.25 138.445312 C 2.019531 142.515625 0.210938 148.585938 -0.0234375 154.335938 C -0.460938 163.5625 6.066406 172.558594 14.957031 175.050781 C 18.742188 176.097656 18.480469 170.78125 18.980469 168.382812 C 19.351562 165.492188 20.359375 162.742188 20.777344 159.859375 C 22.066406 153.082031 21.402344 148.382812 18.5 142.140625 C 17.800781 140.765625 16.480469 142.15625 17.046875 143.203125 Z M 17.039062 143.203125 " fill-opacity="1" fill-rule="nonzero"/><path fill="#ffffff" d="M 41.132812 148.230469 C 40.628906 144.058594 41.203125 139.847656 40.914062 135.675781 C 40.363281 132.617188 38.152344 130.039062 35.878906 128.042969 C 34.078125 126.820312 32.691406 129.449219 33.351562 130.992188 C 34.128906 132.964844 36.871094 133.390625 37.792969 135.761719 C 38.929688 138.382812 38.382812 141.417969 38.679688 144.210938 C 38.554688 148.5 38.484375 152.875 40.453125 156.8125 C 36.707031 154.695312 32.585938 152.804688 30.039062 149.183594 C 27.898438 145.710938 26.089844 141.183594 27.414062 137.125 C 28.632812 135.773438 27.34375 132.453125 25.542969 134.300781 C 22.996094 139.050781 24.730469 145.011719 26.78125 149.648438 C 29.90625 155.292969 36.351562 157.882812 41.773438 160.824219 C 43.632812 161.695312 44.3125 159.152344 43.984375 157.757812 C 43.367188 154.492188 41.429688 151.597656 41.144531 148.238281 Z M 41.132812 148.230469 " fill-opacity="1" fill-rule="nonzero"/><path fill="#ffffff" d="M 208.742188 147.730469 C 210.660156 148.058594 210.742188 145.46875 209.980469 144.300781 C 209.402344 142.71875 208.925781 141.101562 208.398438 139.5 C 206.15625 132.25 200.949219 126.394531 194.992188 121.878906 C 191.386719 119.421875 186.800781 118.753906 182.527344 118.5 C 182.050781 118.519531 181.464844 118.367188 181.085938 118.722656 C 180.652344 119.167969 180.742188 119.984375 181.21875 120.367188 C 182.355469 120.78125 183.671875 120.664062 184.851562 120.996094 C 188.132812 121.960938 191.492188 122.90625 194.496094 124.578125 C 199.976562 128.082031 202.554688 134.199219 204.816406 140.027344 C 205.507812 141.507812 207.425781 147.367188 208.746094 147.738281 Z M 208.742188 147.730469 " fill-opacity="1" fill-rule="nonzero"/><path fill="#ffffff" d="M 214.449219 146.175781 C 212.125 145.703125 211.871094 149.773438 213.847656 150.351562 C 220.335938 151.570312 218.324219 157.015625 218.363281 161.871094 C 218.296875 164.316406 218.53125 166.769531 218.546875 169.214844 C 216.222656 167.855469 213.390625 167.042969 211.339844 165.207031 C 206.683594 161.332031 205.011719 157.726562 205.910156 151.640625 C 207.351562 150.257812 205.335938 147.84375 204.105469 149.925781 C 202.890625 153.933594 202.980469 159.160156 204.878906 162.953125 C 206.480469 165.746094 209.007812 168 211.738281 169.65625 C 213.496094 170.554688 215.433594 171.023438 217.277344 171.722656 C 218.863281 172.476562 220.3125 171.773438 220.609375 170.027344 C 221.550781 166.382812 221.371094 162.578125 221.378906 158.847656 C 221.636719 153.800781 219.652344 147.90625 214.445312 146.175781 Z M 214.449219 146.175781 " fill-opacity="1" fill-rule="nonzero"/><path fill="#ffffff" d="M 201.367188 120.054688 C 199.292969 118.542969 198.238281 122.222656 199.863281 123.28125 C 201.355469 124.246094 203.058594 124.996094 204.867188 124.976562 C 211.546875 125.199219 212.375 123.542969 217.898438 120.964844 C 219.722656 120.40625 219.433594 118.132812 218.246094 117.066406 C 216.019531 114.339844 213.71875 111.539062 210.632812 109.753906 C 209.007812 108.796875 207.332031 107.925781 205.476562 107.507812 C 200.652344 106.644531 195.386719 108.1875 191.132812 110.464844 C 189.460938 111.476562 187.824219 112.542969 186.273438 113.730469 C 182.921875 116.175781 186.660156 121.027344 188.167969 117.121094 C 190.390625 115.597656 192.574219 113.972656 195.082031 112.9375 C 198.613281 111.570312 202.636719 110.910156 206.410156 111.519531 C 210.855469 112.371094 213.65625 115.425781 216.621094 118.542969 C 214.226562 118.886719 212.164062 120.234375 209.953125 121.117188 C 206.601562 122.277344 204.308594 122.0625 201.375 120.054688 Z M 201.367188 120.054688 " fill-opacity="1" fill-rule="nonzero"/><path fill="#ffffff" d="M 226.75 122.984375 C 226.964844 123.738281 227.1875 124.488281 227.398438 125.25 C 228.382812 128.964844 228.851562 132.773438 229.367188 136.574219 C 229.796875 138.304688 231.5625 137.613281 231.273438 136.03125 C 230.71875 132.960938 230.320312 129.839844 229.476562 126.832031 C 229.082031 125.515625 228.585938 124.234375 228.101562 122.945312 C 227.933594 122.507812 227.773438 122.054688 227.574219 121.628906 C 227.5 121.484375 227.390625 121.34375 227.226562 121.292969 C 226.355469 121.203125 226.558594 122.46875 226.75 122.988281 Z M 226.75 122.984375 " fill-opacity="1" fill-rule="nonzero"/><path fill="#ffffff" d="M 224.363281 138.375 C 220.8125 138.59375 217.242188 138.605469 213.699219 139.003906 C 212.679688 139.203125 211.355469 139.03125 210.628906 139.886719 C 210.117188 140.566406 210.203125 141.613281 210.722656 142.261719 C 211.179688 142.886719 212.042969 142.816406 212.722656 142.867188 C 216.78125 142.847656 220.933594 143.175781 224.878906 142.058594 C 226.535156 141.539062 226.167969 138.332031 224.363281 138.375 Z M 224.363281 138.375 " fill-opacity="1" fill-rule="nonzero"/><path fill="#ffffff" d="M 250.289062 109.4375 C 246.828125 108.054688 243.039062 106.472656 239.273438 107.449219 C 237.902344 108.097656 235.671875 108.242188 235.03125 109.773438 C 234.394531 111.183594 235.304688 113.792969 237.164062 113.363281 C 239.476562 112.867188 241.761719 112.113281 244.136719 112.023438 C 250.882812 111.976562 255.035156 117.808594 259.601562 121.882812 C 254.46875 123.210938 249.242188 124.449219 243.914062 123.679688 C 239.417969 123.410156 234.9375 121.847656 231.894531 118.398438 C 231.316406 117.730469 230.78125 117.019531 230.441406 116.199219 C 230.445312 115.640625 230.28125 115.082031 229.945312 114.652344 C 228.832031 113.234375 227.164062 114.605469 227.347656 116.09375 C 228.167969 122.914062 237.558594 127.480469 243.792969 127.714844 C 248.226562 127.960938 252.5 127.117188 256.839844 126.132812 C 261.945312 124.851562 265.945312 124.226562 261.0625 118.761719 C 258.011719 115.140625 254.832031 111.214844 250.304688 109.445312 Z M 250.289062 109.4375 " fill-opacity="1" fill-rule="nonzero"/><path fill="#ffffff" d="M 264.199219 100.433594 C 261.976562 99.59375 259.847656 98.472656 257.523438 97.9375 C 253.65625 97.285156 249.65625 97.703125 245.796875 98.210938 C 244.183594 98.484375 242.574219 98.828125 241.011719 99.316406 C 238.441406 100.242188 231.074219 103.304688 233.460938 106.886719 C 234.117188 107.800781 235.386719 107.304688 235.546875 106.289062 C 238.839844 103.339844 243.097656 102.035156 247.425781 101.640625 C 252.140625 100.78125 256.4375 99.964844 260.964844 102.097656 C 261.917969 102.425781 262.871094 102.757812 263.816406 103.105469 C 265.304688 103.40625 265.457031 100.820312 264.203125 100.433594 Z M 264.199219 100.433594 " fill-opacity="1" fill-rule="nonzero"/><g clip-path="url(#49c1ef3ed3)"><path fill="#ffffff" d="M 296.984375 101.796875 C 294.671875 100.261719 292.4375 98.625 290.277344 96.878906 C 285.554688 93.371094 279.199219 91.949219 273.578125 94.027344 C 272.023438 94.558594 270.472656 95.125 268.941406 95.722656 C 268.410156 95.929688 268.070312 96.558594 267.933594 97.082031 C 267.457031 98.539062 268.613281 100.914062 270.371094 100.160156 C 276.230469 97.761719 283.167969 97.371094 288.996094 100.039062 C 290.996094 101.183594 292.566406 102.929688 294.363281 104.351562 C 295.316406 105.195312 296.230469 106.078125 297.003906 107.101562 C 287.097656 113.097656 276.511719 114.582031 267.683594 105.800781 C 267.195312 105.308594 266.71875 104.800781 266.230469 104.3125 C 265.492188 103.578125 264.574219 104.5625 264.730469 105.386719 C 264.808594 105.988281 265.125 106.453125 265.519531 106.902344 C 268.972656 110.785156 273.417969 114.453125 278.773438 114.945312 C 284.894531 115.375 291.597656 114.4375 297.28125 112.105469 C 304.167969 109.292969 301.492188 105.335938 296.972656 101.785156 Z M 296.984375 101.796875 " fill-opacity="1" fill-rule="nonzero"/></g><path fill="#ffffff" d="M 244.609375 85.980469 C 237.84375 96.75 244.339844 98.757812 243.929688 94.25 C 244.1875 90.09375 247.058594 86.691406 249.371094 83.421875 C 251.492188 80.574219 254.699219 78.824219 258.214844 78.480469 C 261.671875 77.980469 265.195312 77.984375 268.648438 78.511719 C 267.238281 82.488281 266.324219 86.785156 263.867188 90.285156 C 263.136719 91.125 262.132812 91.65625 261.207031 92.246094 C 259.828125 92.925781 258.839844 93.5625 259.332031 95.289062 C 260.046875 97.289062 261.5625 96.316406 262.820312 95.519531 C 268.007812 93.085938 268.230469 86.722656 270.300781 82.066406 C 270.929688 80.570312 272.097656 79.300781 272.496094 77.710938 C 273.125 74.097656 268.871094 74.25 266.390625 73.894531 C 263.449219 73.730469 260.507812 74.332031 257.785156 75.40625 C 252.164062 77.292969 247.492188 80.734375 244.609375 85.988281 Z M 244.609375 85.980469 " fill-opacity="1" fill-rule="nonzero"/><path fill="#ffffff" d="M 233.203125 51.785156 C 235.769531 49.046875 238.6875 46.203125 242.511719 45.515625 C 246.90625 45.015625 252.003906 45.230469 255.484375 48.277344 C 251.617188 50.019531 249.050781 53.707031 245.132812 55.332031 C 242.59375 56.34375 239.84375 56.519531 237.144531 56.214844 C 234.847656 56.144531 234.898438 60.261719 237.011719 60.558594 C 241.464844 61.15625 246.0625 60.554688 249.363281 57.25 C 251.324219 55.523438 252.558594 53.085938 254.742188 51.585938 C 255.785156 50.769531 257.207031 50.488281 258.09375 49.484375 C 258.890625 48.507812 258.621094 47.027344 257.808594 46.136719 C 256.699219 44.925781 255.683594 43.578125 254.328125 42.632812 C 252.164062 41.128906 249.503906 40.550781 246.90625 40.402344 C 242.875 40.066406 238.757812 40.929688 235.582031 43.542969 C 233.347656 45.40625 230.933594 47.496094 229.835938 50.253906 C 229.050781 52.78125 232.34375 55.003906 233.195312 51.796875 Z M 233.203125 51.785156 " fill-opacity="1" fill-rule="nonzero"/><path fill="#ffffff" d="M 202.621094 49.648438 C 203.164062 44.164062 204.59375 38.402344 208.664062 34.433594 C 211.179688 31.753906 215.105469 29.855469 218.804688 30.777344 C 220.050781 31.480469 220.042969 33.855469 220.214844 35.160156 C 219.960938 38.824219 219.109375 43 216.164062 45.464844 C 215.085938 46.359375 214.074219 47.351562 212.9375 48.183594 C 211.679688 49.128906 211.96875 51.59375 213.476562 52.125 C 214.507812 52.609375 217.867188 49.394531 218.621094 48.5625 C 221.886719 44.785156 224.945312 36.789062 223.59375 31.855469 C 220.761719 19.347656 206.449219 31.292969 203.214844 37.636719 C 201.996094 39.792969 199.566406 48.945312 200.65625 51.003906 C 201.703125 52.925781 203.566406 51.261719 202.621094 49.644531 Z M 202.621094 49.648438 " fill-opacity="1" fill-rule="nonzero"/><path fill="#ffffff" d="M 183.753906 63.441406 C 185.097656 59.90625 183.664062 52.996094 178.820312 53.652344 C 174.851562 54.296875 173.664062 60.515625 173.28125 63.867188 C 172.683594 62.832031 171.964844 61.863281 171.304688 60.859375 C 170.609375 59.828125 169.921875 58.789062 168.949219 57.980469 C 166.035156 55.601562 162.25 56.089844 159.886719 58.980469 C 159.152344 59.792969 158.554688 60.839844 158.300781 61.914062 C 157.207031 66.484375 161.019531 71.277344 163.902344 74.484375 C 160.015625 77.464844 157.722656 82.492188 161.832031 86.375 C 162.835938 87.371094 164.257812 87.96875 165.671875 87.726562 C 167.121094 87.515625 168.613281 87.019531 169.808594 86.152344 C 170.878906 85.359375 171.761719 84.355469 172.570312 83.300781 C 173.96875 85.800781 175.96875 89.21875 179.125 89.449219 C 182.050781 89.636719 184.34375 87.746094 185.492188 85.171875 C 186.425781 83.371094 186.597656 81.222656 186.027344 79.285156 C 187.640625 79.183594 189.183594 78.574219 190.648438 77.929688 C 192.304688 77.171875 193.875 76.078125 194.789062 74.46875 C 196.738281 70.777344 196.167969 67.246094 194.191406 64.953125 C 194.546875 64.972656 194.859375 64.644531 194.890625 64.28125 C 195.355469 63.644531 195.964844 63.152344 196.535156 62.625 C 204.167969 55.886719 208.773438 54.433594 218.753906 56.722656 C 221.347656 57.136719 223.945312 56.621094 226.476562 56.089844 C 228.433594 55.421875 228.414062 52.3125 226.878906 51.191406 C 226.148438 50.621094 225.265625 50.972656 224.445312 51.105469 C 222.375 51.433594 220.332031 51.921875 218.242188 52.132812 C 211.625 52.398438 204.402344 52.914062 199.070312 57.289062 C 197.933594 58.292969 196.886719 59.386719 195.804688 60.4375 C 194.929688 61.347656 193 62.933594 193.519531 64.28125 C 191.207031 62.210938 187.550781 61.542969 183.734375 63.4375 Z M 174.785156 79.546875 C 174.785156 79.546875 174.785156 79.546875 174.78125 79.546875 C 174.796875 79.484375 174.8125 79.425781 174.824219 79.363281 C 174.8125 79.425781 174.796875 79.488281 174.785156 79.554688 Z M 192.050781 71.515625 C 191.203125 72.402344 189.925781 72.707031 188.792969 73.089844 C 187.796875 73.375 186.789062 73.617188 185.746094 73.609375 C 183.976562 73.507812 182.222656 73.214844 180.488281 72.867188 C 178.570312 72.738281 177.929688 75.34375 178.671875 76.773438 C 178.976562 77.453125 179.53125 77.972656 180.246094 78.1875 C 181.136719 78.449219 182.03125 78.742188 182.933594 78.964844 C 183.878906 79.910156 184.640625 81.230469 184.535156 82.601562 C 184.273438 84.710938 182.660156 86.632812 180.40625 86.527344 C 177.726562 86.355469 176.023438 83.332031 175.292969 81.039062 C 175.148438 80.347656 175.007812 79.640625 174.882812 78.945312 C 175.027344 77.617188 173.6875 75.875 172.339844 76.824219 C 171.820312 77.183594 171.695312 77.808594 171.472656 78.351562 C 170.703125 79.84375 169.8125 81.273438 168.773438 82.589844 C 167.636719 83.933594 165.902344 84.882812 164.136719 84.984375 C 162.988281 84.917969 162.199219 84.136719 161.515625 83.253906 C 160.71875 82.238281 161.023438 80.804688 161.851562 79.890625 C 162.988281 78.65625 164.332031 77.640625 165.730469 76.734375 C 166.105469 76.511719 166.480469 76.265625 166.867188 76.074219 C 167.292969 76.003906 167.585938 75.738281 167.742188 75.335938 C 168.003906 74.703125 167.84375 73.914062 167.355469 73.433594 C 165.71875 72.363281 164.433594 70.839844 163.101562 69.417969 C 161.539062 67.683594 159.207031 64.433594 161.683594 62.507812 C 162.753906 61.558594 164.148438 60.914062 165.585938 61.308594 C 166.582031 61.507812 167.515625 61.96875 168.15625 62.769531 C 169.066406 63.863281 169.960938 64.972656 170.765625 66.136719 C 171.574219 67.375 173.109375 66.898438 173.402344 65.511719 C 173.597656 66.167969 174.410156 66.59375 174.742188 65.792969 C 174.835938 65.542969 174.867188 65.273438 174.90625 65.011719 C 175.382812 62.617188 176.054688 59.601562 177.828125 57.835938 C 178.71875 57.003906 180.324219 56.535156 181.257812 57.53125 C 182.050781 58.566406 182.40625 59.976562 182.171875 61.265625 C 181.695312 63.472656 179.808594 64.933594 178.652344 66.769531 C 177.859375 68.140625 178.933594 70.515625 180.699219 69.75 C 183.949219 68.535156 187.449219 66.222656 191 67.558594 C 192.859375 68.25 193.265625 69.984375 192.039062 71.507812 Z M 192.050781 71.515625 " fill-opacity="1" fill-rule="nonzero"/><path fill="#ffffff" d="M 105.15625 81.394531 C 110.394531 81.761719 113.105469 77.453125 112.222656 72.59375 C 114.832031 72.59375 118.597656 72.066406 120.789062 70.632812 C 124.085938 68.394531 125.34375 62.808594 121.105469 60.859375 C 118.433594 59.726562 115.53125 61.125 113.082031 62.234375 C 114.484375 58.792969 113.964844 53.59375 110.417969 51.667969 C 106.332031 50.011719 102.824219 54.527344 102.34375 58.214844 C 101.476562 57.035156 100.394531 55.96875 99.007812 55.433594 C 95.828125 54.347656 91.773438 55.105469 89.832031 58.03125 C 87.445312 61.40625 89.601562 65.53125 93.425781 66.375 C 90.28125 67.835938 89.972656 72.59375 92.746094 74.574219 C 94.964844 76.027344 97.953125 75.636719 100.339844 74.835938 C 99.96875 77.859375 101.96875 81.082031 105.144531 81.394531 Z M 98.386719 72.160156 C 96.777344 72.339844 94.8125 72.695312 93.476562 71.558594 C 92.480469 70.277344 93.605469 68.511719 94.957031 68.035156 C 96.015625 67.578125 97.28125 67.742188 98.308594 67.277344 C 99.027344 66.496094 98.09375 65.628906 97.324219 65.390625 C 95.726562 64.558594 93.929688 64.066406 92.492188 62.953125 C 91.351562 62.046875 91.46875 61.023438 92.378906 59.988281 C 93.984375 58.28125 97.171875 57.554688 99.136719 59.035156 C 100.601562 60.34375 101.097656 62.507812 102.589844 63.761719 C 103.15625 64.789062 104.628906 64.898438 105.15625 63.773438 C 105.632812 63 105.449219 62.101562 105.382812 61.253906 C 105.449219 60 105.464844 58.648438 106.113281 57.535156 C 106.84375 56.4375 108.316406 55.328125 109.671875 55.976562 C 111.539062 57.84375 110.386719 60.730469 109.6875 62.882812 C 109.410156 63.703125 109.078125 64.628906 109.472656 65.46875 C 109.695312 66.058594 110.445312 66.492188 111.003906 66.066406 C 112.964844 63.734375 116.992188 61.996094 119.914062 63.527344 C 121.558594 64.425781 120.859375 65.613281 119.894531 66.730469 C 118.789062 68.027344 117.164062 68.738281 115.511719 69.019531 C 113.9375 69.257812 112.324219 69.144531 110.761719 68.878906 C 110.351562 68.765625 109.949219 68.625 109.535156 68.828125 C 108.476562 69.386719 108.484375 71.113281 109.296875 71.882812 C 110.636719 75.210938 109.898438 79.496094 105.605469 79.636719 C 103.839844 79.636719 102.273438 78.015625 102.507812 76.230469 C 102.519531 74.429688 104.78125 72.074219 102.871094 70.664062 C 102.417969 70.410156 101.96875 70.664062 101.625 70.972656 C 100.609375 71.507812 99.523438 71.945312 98.390625 72.167969 Z M 98.386719 72.160156 " fill-opacity="1" fill-rule="nonzero"/><path fill="#ffffff" d="M 67.332031 46.328125 C 64.46875 43.070312 60.023438 42.386719 55.960938 41.730469 C 55.222656 41.617188 54.804688 42.472656 54.785156 43.082031 C 54.757812 43.800781 55.148438 44.558594 55.902344 44.695312 C 56.828125 44.898438 57.75 45.160156 58.660156 45.441406 C 60.746094 46.113281 62.964844 46.660156 64.683594 48.085938 C 65.472656 48.804688 66.195312 49.574219 66.925781 50.355469 C 68 51.566406 69.359375 52.550781 70.0625 54.042969 C 71.175781 55.878906 72.199219 59.847656 74.367188 60.445312 C 75.175781 60.546875 75.8125 59.816406 75.980469 59.09375 C 76.304688 57.886719 75.765625 56.820312 74.820312 56.113281 C 73.742188 54.484375 72.964844 52.667969 71.824219 51.074219 C 70.449219 49.382812 68.800781 47.949219 67.339844 46.335938 Z M 67.332031 46.328125 " fill-opacity="1" fill-rule="nonzero"/><path fill="#ffffff" d="M 61.960938 42.441406 C 62.296875 42.539062 62.691406 42.46875 62.882812 42.167969 C 63.210938 41.742188 62.90625 41.21875 62.5625 40.917969 C 62.011719 40.238281 61.339844 39.679688 60.710938 39.070312 C 59.503906 37.890625 58.507812 36.480469 57.859375 34.917969 C 57.3125 33.285156 56.964844 31.589844 56.914062 29.867188 C 56.898438 28.097656 57.234375 26.351562 57.261719 24.578125 C 59.039062 25.714844 60.933594 26.660156 62.621094 27.933594 C 63.902344 28.871094 65.105469 29.917969 66.414062 30.835938 C 67.804688 31.699219 68.921875 32.859375 69.636719 34.339844 C 70.179688 35.5 70.941406 36.878906 70.710938 38.226562 C 70.488281 40.042969 68.84375 40.703125 67.53125 41.640625 C 66.5 42.410156 66.683594 44.320312 67.796875 44.925781 C 69.046875 45.457031 70.859375 43.59375 71.585938 42.691406 C 72.824219 41.101562 73.367188 39.019531 73.367188 37.03125 C 73.277344 34.9375 72.585938 32.90625 71.722656 31.003906 C 70.875 29.136719 69.410156 27.640625 67.675781 26.578125 C 65.988281 25.40625 64.242188 24.292969 62.285156 23.625 C 61.515625 23.347656 60.730469 23.125 59.953125 22.859375 C 58.835938 22.472656 57.710938 22.070312 56.683594 21.488281 C 55.488281 20.863281 55.121094 22.191406 55.132812 23.117188 C 55.019531 25.113281 54.441406 27.042969 54.328125 29.03125 C 54.246094 30.757812 54.441406 32.492188 54.847656 34.167969 C 55.515625 37.027344 59.121094 41.578125 61.96875 42.457031 Z M 61.960938 42.441406 " fill-opacity="1" fill-rule="nonzero"/><path fill="#ffffff" d="M 53.121094 41.902344 C 53.121094 41.902344 53.109375 41.902344 53.101562 41.902344 C 53.082031 41.910156 53.0625 41.921875 53.042969 41.929688 C 53.070312 41.921875 53.09375 41.910156 53.121094 41.894531 Z M 53.121094 41.902344 " fill-opacity="1" fill-rule="nonzero"/><path fill="#ffffff" d="M 26.632812 48.511719 C 27.683594 48.4375 28.71875 48.5625 29.757812 48.683594 C 33.570312 48.925781 37.300781 49.605469 41.023438 50.449219 C 43.824219 50.90625 46.816406 50.78125 49.519531 49.902344 C 49.996094 49.707031 50.453125 49.472656 50.90625 49.21875 C 50.464844 49.511719 50.046875 49.835938 49.652344 50.191406 C 48.601562 51.238281 47.957031 52.582031 47.191406 53.835938 C 46.289062 55.371094 44.65625 56.195312 43.390625 57.382812 C 43.054688 57.621094 42.738281 57.917969 42.699219 58.34375 C 42.554688 60.304688 45.195312 60.324219 46.582031 60.566406 C 47.621094 60.679688 48.65625 60.792969 49.699219 60.910156 C 46.765625 62.433594 44.6875 65.570312 44.667969 68.898438 C 44.757812 70.957031 45.640625 72.867188 45.511719 74.957031 C 45.546875 77.425781 45.242188 79.933594 44.171875 82.1875 C 40.730469 89.738281 41.660156 98.820312 45.429688 106.074219 C 46.847656 108.511719 48.816406 110.582031 50.734375 112.625 C 51.34375 113.265625 51.875 114.0625 52.671875 114.472656 C 54.65625 115.417969 55.394531 112.21875 53.8125 111.367188 C 53.679688 111.316406 53.628906 111.179688 53.539062 111.078125 C 51.738281 108.359375 49.75 105.714844 48.53125 102.664062 C 46.972656 98.574219 46.109375 94.183594 46.453125 89.796875 C 46.738281 87.382812 47.367188 85.035156 47.902344 82.664062 C 48.542969 79.761719 48.554688 76.742188 48.414062 73.78125 C 48.167969 69.835938 46.34375 68.230469 51.355469 66.730469 C 53.183594 66.546875 55.050781 66.515625 56.878906 66.757812 C 59.597656 67.511719 62.53125 68.21875 65.292969 67.246094 C 66.792969 66.65625 68.160156 65.753906 69.789062 65.53125 C 71.570312 65.226562 73.351562 65.796875 75.117188 66.015625 C 78.261719 66.617188 80.992188 68.648438 84.179688 68.988281 C 86.378906 69.089844 87.058594 66.1875 86.246094 64.546875 C 85.617188 63.0625 83.902344 62.554688 82.460938 62.183594 C 80.847656 61.703125 79.234375 61.195312 77.5625 60.960938 C 74.914062 60.609375 72.214844 60.4375 69.542969 60.476562 C 68.652344 60.527344 67.757812 60.566406 66.875 60.71875 C 65.835938 60.871094 64.863281 61.367188 63.796875 61.367188 C 63.261719 61.367188 62.730469 61.308594 62.207031 61.21875 C 62.832031 61.125 63.453125 60.984375 64.0625 60.789062 C 66.691406 59.773438 69.625 57.402344 69.511719 54.335938 C 69.53125 52.429688 67.148438 50.9375 66.039062 52.972656 C 63.628906 58.03125 58.746094 57.867188 53.921875 57.332031 C 51.550781 57.15625 49.171875 57.09375 46.796875 57.175781 C 48.238281 55.992188 48.980469 54.230469 50.144531 52.8125 C 53.375 49.414062 58.398438 48.996094 62.785156 49.796875 C 63.546875 50.039062 63.929688 49.5625 64.003906 48.664062 C 64.082031 47.535156 63.136719 47.160156 62.175781 47.097656 C 58.761719 46.5625 55 46.953125 51.921875 48.601562 C 52.164062 48.449219 52.410156 48.296875 52.652344 48.152344 C 53.6875 47.402344 53.792969 45.808594 53.3125 44.714844 C 52.949219 43.808594 51.855469 43.039062 50.898438 43.546875 C 49.40625 44.367188 47.785156 44.957031 46.097656 45.203125 C 43.539062 45.710938 40.953125 46.0625 38.335938 46.011719 C 34.792969 45.960938 31.371094 44.914062 27.898438 44.367188 C 28.203125 42.746094 28.074219 40.957031 29.007812 39.527344 C 31.929688 34.898438 38.261719 34.371094 43.03125 36.074219 C 46.210938 37.519531 48.460938 40.503906 51.792969 41.730469 C 52.1875 41.890625 52.664062 42.0625 53.082031 41.914062 C 53.488281 41.761719 53.707031 41.261719 53.660156 40.828125 C 53.484375 39.300781 51.40625 38.707031 50.339844 37.820312 C 48.359375 36.542969 46.777344 34.726562 44.777344 33.480469 C 40.679688 30.835938 34.859375 32.25 30.871094 34.484375 C 26.09375 37.273438 25.015625 40.980469 24.4375 46.1875 C 24.339844 47.414062 25.320312 48.714844 26.628906 48.519531 Z M 26.632812 48.511719 " fill-opacity="1" fill-rule="nonzero"/><path fill="#ffffff" d="M 85.304688 147.152344 C 82.390625 144.542969 80.636719 149.152344 82.777344 151.164062 C 83.519531 152.105469 84.726562 152.59375 85.394531 153.578125 C 86.261719 155.800781 86.175781 158.328125 85.996094 160.679688 C 85.285156 165.136719 84.472656 169.601562 84.746094 174.132812 C 83.359375 173.796875 81.945312 173.761719 80.5625 173.082031 C 77.773438 171.480469 75.214844 169.195312 73.90625 166.210938 C 73.0625 162.691406 72.894531 157.339844 74.304688 153.984375 C 74.914062 152.722656 75.5625 151.453125 76.503906 150.398438 C 76.6875 150.21875 76.871094 150.027344 77.105469 149.925781 C 77.746094 149.566406 77.710938 148.601562 77.371094 148.042969 C 76.027344 146.109375 73.796875 149.113281 73.0625 150.320312 C 70.070312 154.976562 69.59375 161.988281 71.371094 167.175781 C 73.296875 171.378906 79.164062 177.074219 83.792969 177.867188 C 87.191406 178.789062 88.058594 177.003906 88.1875 173.964844 C 88.289062 172.167969 88.363281 170.355469 88.574219 168.566406 C 88.980469 164.957031 89.203125 161.339844 89.082031 157.707031 C 89.484375 153.476562 88.6875 149.996094 85.324219 147.160156 Z M 85.304688 147.152344 " fill-opacity="1" fill-rule="nonzero"/><path fill="#ffffff" d="M 97.628906 148.773438 C 99.289062 149.945312 100.289062 149.011719 100.082031 147.183594 C 100.113281 144.65625 100.253906 142.128906 100.070312 139.609375 C 99.902344 136.914062 99.070312 134.335938 98.285156 131.773438 C 97.921875 130.601562 97.558594 129.410156 96.96875 128.335938 C 95.761719 126.164062 93.503906 124.714844 91.332031 123.636719 C 89.921875 123.269531 87.671875 122.308594 86.734375 123.910156 C 85.925781 125.402344 86.835938 127.859375 88.636719 128.058594 C 90.789062 128.160156 93.292969 128.851562 94.539062 130.738281 C 95.585938 133.378906 96.765625 135.964844 97.796875 138.609375 C 98.226562 140.667969 98.273438 142.796875 98.152344 144.890625 C 97 143.792969 95.535156 143.144531 94.148438 142.394531 C 91.6875 141 89.160156 139.703125 86.820312 138.101562 C 83.507812 135.9375 83.582031 134.292969 83.609375 130.636719 C 83.488281 129.773438 82.476562 128.671875 81.609375 129.382812 C 81.113281 129.828125 81.152344 130.449219 81.09375 131.0625 C 81.042969 131.582031 80.980469 132.109375 80.96875 132.636719 C 80.808594 135.0625 81.390625 137.523438 82.96875 139.417969 C 85.375 142.375 88.738281 144.328125 91.945312 146.289062 C 93.730469 147.363281 95.769531 147.863281 97.628906 148.773438 Z M 97.628906 148.773438 " fill-opacity="1" fill-rule="nonzero"/><path fill="#ffffff" d="M 77.339844 142.796875 C 77.511719 144.128906 76.71875 146.105469 78.191406 146.871094 C 78.75 147.121094 79.375 146.726562 79.46875 146.109375 C 79.59375 145.222656 79.847656 144.359375 79.882812 143.460938 C 79.917969 141.289062 79.085938 139.222656 78.902344 137.066406 C 78.585938 135.164062 78.882812 133.285156 79.234375 131.410156 C 79.480469 128.84375 80.574219 126.46875 81.84375 124.253906 C 83.632812 121.859375 86.105469 119.914062 88.738281 118.519531 C 89.011719 118.410156 89.285156 118.296875 89.570312 118.253906 C 91.171875 117.933594 90.382812 115 88.855469 115.394531 C 86.554688 116.035156 84.667969 117.578125 82.886719 119.101562 C 80.839844 120.765625 79.1875 122.863281 78.066406 125.242188 C 76.769531 127.71875 76.851562 130.578125 76.558594 133.296875 C 76.425781 136.488281 77.175781 139.628906 77.335938 142.796875 Z M 77.339844 142.796875 " fill-opacity="1" fill-rule="nonzero"/><path fill="#ffffff" d="M 67.5625 130.261719 C 70.363281 127.992188 73.894531 130.363281 73.785156 128.328125 C 73.753906 127.148438 72.417969 127.058594 71.511719 127.058594 C 65.789062 126.667969 62.125 132.476562 59.375 136.699219 C 57.789062 139.691406 56.925781 143.019531 56.277344 146.328125 C 55.953125 147.863281 55.234375 149.757812 56.703125 150.9375 C 58.164062 152.246094 63.128906 149.527344 64.972656 149.0625 C 67.074219 148.433594 69.175781 147.566406 70.671875 145.894531 C 71.980469 144.339844 73.214844 142.695312 74.28125 140.960938 C 75.125 139.457031 76.800781 137.894531 75.257812 136.222656 C 74.738281 135.683594 73.824219 135.480469 73.316406 136.160156 C 71.753906 138.050781 70.414062 140.089844 68.953125 142.054688 C 66.539062 144.632812 62.632812 144.15625 59.628906 145.652344 C 59.921875 142.871094 59.769531 139.945312 61.078125 137.386719 C 62.664062 134.585938 65.179688 132.382812 67.566406 130.265625 Z M 67.5625 130.261719 " fill-opacity="1" fill-rule="nonzero"/><path fill="#ffffff" d="M 51.425781 124.425781 C 50.085938 127.3125 49.75 130.578125 49.375 133.707031 C 48.886719 138.710938 49.519531 141.933594 55.332031 141.792969 C 56.898438 141.832031 57.230469 139.589844 56.472656 138.535156 C 55.660156 137.355469 53.8125 137.664062 52.644531 136.921875 C 52.027344 133.085938 52.269531 129.109375 53.3125 125.363281 C 53.351562 125.199219 53.445312 125.078125 53.515625 124.921875 C 53.640625 124.359375 53.558594 123.941406 53.375 123.675781 C 53.839844 123.777344 54.300781 123.886719 54.765625 124.003906 C 57.335938 124.628906 59.953125 124.800781 62.578125 124.800781 C 62.714844 124.84375 62.875 124.867188 63.015625 124.894531 C 65.363281 125.175781 67.683594 124.601562 70.007812 124.308594 C 71.652344 124.074219 73.390625 124.09375 74.890625 123.308594 C 75.046875 123.238281 75.207031 123.148438 75.351562 123.039062 C 75.703125 122.945312 76.050781 122.84375 76.394531 122.714844 C 77.417969 122.253906 78.457031 120.816406 77.675781 119.746094 C 77.003906 119.1875 76.128906 119.050781 75.226562 119.015625 C 74.675781 118.542969 73.808594 118.746094 73.046875 118.949219 C 69.441406 118.898438 65.851562 119.152344 62.265625 119.476562 C 60.53125 119.085938 58.824219 118.644531 57.117188 118.152344 C 53.367188 116.828125 49.375 116.25 45.496094 117.355469 C 43.804688 117.808594 42.148438 118.339844 40.496094 118.929688 C 40.507812 117.488281 39.683594 116.015625 38.171875 116.03125 C 32.585938 116.957031 27.515625 116.480469 22.582031 113.527344 C 18.847656 111.464844 14.632812 110.878906 10.582031 109.753906 C 14.675781 105.609375 20.289062 100.597656 26.496094 103.195312 C 31.023438 104.859375 35.199219 107.019531 38.699219 110.449219 C 39.410156 110.9375 40.117188 111.925781 41.0625 111.703125 C 41.882812 111.4375 42.039062 110.429688 41.832031 109.699219 C 41.410156 108.464844 39.949219 108.015625 39.09375 107.105469 C 32.609375 101.359375 22.730469 97.582031 14.472656 101.683594 C 10.96875 103.699219 4.523438 107.710938 7.335938 112.433594 C 9.054688 114.554688 12.238281 113.914062 14.523438 115.0625 C 19.40625 117.039062 23.167969 121.421875 28.519531 122.273438 C 29.675781 122.519531 30.839844 122.460938 32 122.339844 C 31.839844 122.40625 31.6875 122.476562 31.53125 122.539062 C 26.429688 124.710938 23.371094 126.449219 20.136719 131.128906 C 19.171875 132.617188 16.003906 136.902344 18.582031 138.019531 C 19.65625 138.089844 19.507812 136.769531 19.894531 136.101562 C 20.59375 134.6875 21.507812 133.390625 22.527344 132.183594 C 29.769531 123.699219 41.640625 121.425781 52.25 123.441406 C 51.933594 123.597656 51.628906 123.917969 51.417969 124.410156 Z M 51.425781 124.425781 " fill-opacity="1" fill-rule="nonzero"/><path fill="#ffffff" d="M 198.339844 161.777344 C 195.222656 161.484375 197.039062 168.140625 196.585938 170.109375 C 196.328125 174.617188 194.699219 178.898438 193.105469 183.074219 C 192.441406 185.621094 188.386719 189.433594 190.699219 191.75 C 193.171875 193.878906 194.867188 186.433594 195.933594 184.917969 C 198.027344 180.484375 199.195312 175.632812 199.671875 170.769531 C 199.527344 168.738281 200.636719 162.410156 198.34375 161.777344 Z M 198.339844 161.777344 " fill-opacity="1" fill-rule="nonzero"/><path fill="#ffffff" d="M 168.144531 189.316406 C 171.78125 190.957031 171.472656 184.554688 172.285156 182.441406 C 173.253906 178.160156 174.207031 173.777344 173.933594 169.367188 C 173.777344 167.570312 173.738281 165.441406 172.457031 164.042969 C 171.476562 163.117188 170.152344 164.082031 170.117188 165.261719 C 170.0625 166.667969 170.488281 168.058594 170.507812 169.460938 C 170.625 172.527344 170.183594 175.574219 169.324219 178.523438 C 168.847656 181.660156 165.089844 186.867188 168.144531 189.324219 Z M 168.144531 189.316406 " fill-opacity="1" fill-rule="nonzero"/><path fill="#ffffff" d="M 143.117188 164.253906 C 142.792969 162.800781 141.210938 163.105469 140.855469 164.367188 C 139.960938 167.210938 140.226562 170.300781 140.113281 173.246094 C 140.253906 177.113281 140.164062 181.074219 141.3125 184.808594 C 141.574219 185.636719 142.5 186.367188 143.332031 185.90625 C 145.074219 184.746094 143.605469 182.503906 143.511719 180.890625 C 142.78125 176.464844 142.566406 171.949219 142.648438 167.46875 C 142.546875 166.34375 143.238281 165.328125 143.125 164.253906 Z M 143.117188 164.253906 " fill-opacity="1" fill-rule="nonzero"/><path fill="#ffffff" d="M 116.695312 160.144531 C 116.179688 159.800781 115.539062 159.878906 115.117188 160.328125 C 113.824219 162.476562 115.011719 165.308594 115.011719 167.683594 C 115.742188 171.21875 115.5 180.941406 118.3125 182.707031 C 120.726562 184.066406 121.800781 180.210938 120.402344 178.6875 C 119.011719 173.734375 118.261719 168.640625 117.683594 163.535156 C 117.429688 162.386719 117.835938 160.902344 116.695312 160.136719 Z M 116.695312 160.144531 " fill-opacity="1" fill-rule="nonzero"/><path fill="#ffffff" d="M 98.78125 183.222656 C 99.363281 183.984375 100.511719 183.851562 100.894531 182.972656 C 102.050781 180.148438 97.476562 178.511719 96.988281 175.78125 C 96.417969 170.496094 96.328125 165.128906 96.023438 159.820312 C 96.5625 158.976562 95.878906 157.210938 94.742188 157.789062 C 92.804688 159.117188 94.195312 164.347656 93.929688 166.609375 C 94.226562 173.046875 93.679688 178.371094 98.78125 183.226562 Z M 98.78125 183.222656 " fill-opacity="1" fill-rule="nonzero"/><path fill="#ffffff" d="M 127.914062 242.171875 C 130.429688 242.589844 132.949219 242.976562 135.496094 243.128906 C 140.660156 243.46875 145.855469 242.941406 150.871094 241.714844 C 152.148438 241.433594 154.332031 241.644531 154.414062 239.867188 C 154.476562 238.074219 151.304688 239.332031 150.183594 239.28125 C 148.292969 239.5625 146.414062 239.941406 144.488281 239.929688 C 140.546875 239.675781 136.589844 239.5625 132.664062 239.128906 C 129.332031 238.546875 125.972656 238.203125 122.585938 238.089844 C 121.316406 237.460938 120.066406 239.378906 120.726562 240.464844 C 122.675781 242.007812 125.558594 241.644531 127.910156 242.171875 Z M 127.914062 242.171875 " fill-opacity="1" fill-rule="nonzero"/><path fill="#ffffff" d="M 40.21875 85.261719 C 40.910156 85.085938 41.054688 84.09375 40.679688 83.566406 C 39.5625 81.578125 36.351562 81.578125 34.609375 82.722656 C 31.855469 84.917969 31.941406 89.117188 32.964844 92.191406 C 31.066406 91.652344 28.792969 90.875 26.933594 91.890625 C 24.945312 93.238281 25.148438 96.292969 26.410156 98.078125 C 26.800781 98.75 27.765625 98.871094 28.253906 98.25 C 29.269531 97.132812 28.296875 95.824219 27.960938 94.667969 C 28.347656 93.621094 31.023438 94.140625 31.949219 94.324219 C 33.328125 94.605469 34.265625 95.855469 35.574219 96.199219 C 38.300781 95.683594 35.097656 90.648438 35.003906 88.875 C 34.414062 84.984375 37.125 84.609375 40.21875 85.269531 Z M 40.21875 85.261719 " fill-opacity="1" fill-rule="nonzero"/><path fill="#ffffff" d="M 239.445312 82.578125 C 238.464844 83.238281 238.492188 85.039062 239.601562 85.546875 C 241.101562 86.003906 243.832031 81.746094 244.257812 80.449219 C 245.65625 76.949219 243.890625 70.523438 239.121094 72.5 C 237.101562 73.433594 233.253906 77.496094 235.34375 79.660156 C 237.007812 80.847656 237.433594 78.335938 238.21875 77.414062 C 239.730469 75.316406 242.492188 75.296875 242.277344 78.386719 C 242.234375 80.238281 240.960938 81.667969 239.4375 82.578125 Z M 239.445312 82.578125 " fill-opacity="1" fill-rule="nonzero"/><g clip-path="url(#96f1e70ba7)"><path stroke-linecap="butt" transform="matrix(0.748424, 0, 0, 0.748424, 335.743158, 308.364897)" fill="none" stroke-linejoin="miter" d="M -0.0012971 2.002052 L 52.802345 2.002052 " stroke="#ffffff" stroke-width="4" stroke-opacity="1" stroke-miterlimit="4"/></g></svg>