<svg xmlns="http://www.w3.org/2000/svg" xmlns:xlink="http://www.w3.org/1999/xlink" width="541" zoomAndPan="magnify" viewBox="0 0 405.75 296.999993" height="396" preserveAspectRatio="xMidYMid meet" version="1.0"><defs><clipPath id="4e5cac3ecc"><path d="M 0 206 L 46 206 L 46 251.9375 L 0 251.9375 Z M 0 206 " clip-rule="nonzero"/></clipPath><clipPath id="7fee7864f2"><path d="M 244 45 L 344.039062 45 L 344.039062 192 L 244 192 Z M 244 45 " clip-rule="nonzero"/></clipPath><clipPath id="3c5bb4a6e9"><path d="M 111 0.0898438 L 247 0.0898438 L 247 50 L 111 50 Z M 111 0.0898438 " clip-rule="nonzero"/></clipPath><clipPath id="880d4ce08b"><path d="M 364 295 L 405.5 295 L 405.5 296.90625 L 364 296.90625 Z M 364 295 " clip-rule="nonzero"/></clipPath></defs><path fill="#ffffff" d="M 155.183594 65.25 C 152.546875 64.625 149.871094 64.199219 147.160156 64.140625 C 136.910156 63.335938 126.417969 70.5625 123.546875 80.4375 C 120.820312 90.964844 123.34375 107.222656 136.554688 108.375 C 138.742188 108.621094 140.988281 108.527344 143.121094 107.953125 C 145.003906 107.179688 149.550781 106.765625 150.0625 104.621094 C 150.5625 103.144531 149.632812 100.695312 147.789062 101.078125 C 138.125 103.875 126.800781 107.4375 126.113281 93.160156 C 126.390625 85.46875 126.957031 75.511719 134.230469 71.066406 C 137.914062 69.066406 141.839844 67.808594 145.828125 66.535156 C 151.5 64.859375 156.867188 67.984375 161.597656 70.738281 C 162.53125 70.9375 162.785156 69.53125 162.21875 68.996094 C 160.09375 67.464844 157.636719 66.191406 155.183594 65.253906 Z M 155.183594 65.25 " fill-opacity="1" fill-rule="nonzero"/><path fill="#ffffff" d="M 162.265625 92.511719 C 163.683594 94.917969 165.65625 92.246094 166.515625 90.792969 C 169.433594 85.769531 170.425781 74.40625 165.152344 70.722656 C 163.332031 70.351562 162.984375 73.488281 164.433594 74.136719 C 166.75 78.4375 166.171875 84.019531 163.53125 88.046875 C 162.519531 89.3125 161.253906 90.832031 162.265625 92.511719 Z M 162.265625 92.511719 " fill-opacity="1" fill-rule="nonzero"/><path fill="#ffffff" d="M 172.617188 87.429688 C 173.882812 90.417969 176.453125 92.730469 179.304688 94.210938 C 181.3125 95.222656 183.375 96.132812 185.457031 96.984375 C 186.097656 97.246094 186.613281 96.546875 186.707031 96 C 187.636719 92.679688 174.308594 93.066406 175.21875 83.496094 C 175.722656 79.113281 178.519531 75.4375 181.503906 72.355469 C 184.101562 70.292969 187.375 69.410156 190.378906 68.105469 C 194.421875 66.113281 198.910156 65.847656 203.230469 67.039062 C 206.457031 67.921875 209.976562 68.964844 212.058594 71.765625 C 212.316406 71.828125 212.585938 71.890625 212.84375 71.949219 C 213.792969 70.875 212.265625 69.613281 211.546875 68.734375 C 207.292969 64.773438 200.992188 64.859375 195.617188 63.550781 C 194.09375 63.46875 192.613281 63.632812 191.164062 63.976562 C 190.75 62.992188 190.042969 62.066406 189.273438 61.5 C 187.886719 60.304688 185.792969 60.402344 184.445312 59.191406 C 185.0625 57.113281 186.460938 55.363281 187.363281 53.402344 C 188.324219 52.074219 188.34375 49.648438 190.042969 49.09375 C 195.394531 48.507812 203.308594 49.316406 205.578125 43.164062 C 206.03125 41.039062 206.171875 38.800781 207.121094 36.808594 C 209.148438 36.734375 216.191406 39.152344 215.914062 35.605469 C 215.683594 34.539062 214.507812 34.925781 213.722656 34.695312 C 212.019531 34.507812 210.382812 33.964844 208.734375 33.527344 C 204.5625 32.160156 203.574219 37.800781 203.316406 40.796875 C 203.632812 43.488281 201.011719 45.09375 198.5625 45.015625 C 193.242188 44.980469 186.707031 42.332031 184.855469 49.335938 C 183.707031 52.785156 181.007812 55.78125 180.875 59.511719 C 180.726562 62.894531 183.820312 64.363281 186.328125 65.816406 C 184.113281 66.941406 182.027344 68.367188 180.105469 69.796875 C 174.539062 73.667969 170.097656 80.527344 172.621094 87.421875 Z M 172.617188 87.429688 " fill-opacity="1" fill-rule="nonzero"/><path fill="#ffffff" d="M 191.347656 96.464844 C 190.652344 96.265625 190.265625 97.144531 190.46875 97.703125 C 191.523438 99.484375 195.195312 99.5625 197.105469 99.472656 C 199.351562 99.261719 201.242188 97.976562 203.160156 96.914062 C 204.089844 96.3125 205.902344 95.769531 205.292969 94.320312 C 204.390625 91.789062 198.328125 100.238281 191.351562 96.46875 Z M 191.347656 96.464844 " fill-opacity="1" fill-rule="nonzero"/><path fill="#ffffff" d="M 154.515625 141.027344 C 159.523438 142.507812 164.648438 144.609375 169.949219 144.335938 C 180.664062 143.273438 186.554688 138.320312 189.699219 128.074219 C 191.734375 121.355469 195.539062 114.023438 192.550781 107.03125 C 189.859375 101.199219 184.183594 97.507812 178.984375 94.128906 C 178.398438 93.535156 177.75 94.476562 178.003906 95.058594 C 178.527344 96.375 180.136719 96.761719 181.191406 97.550781 C 184.546875 99.925781 188.253906 102.484375 189.707031 106.503906 C 190.964844 110.09375 190.277344 113.949219 189.476562 117.554688 C 188.203125 123.753906 185.570312 129.90625 180.621094 134.046875 C 175.109375 138.066406 168.195312 141.511719 161.257812 139.554688 C 157.46875 138.660156 152.898438 137.429688 151.695312 133.214844 C 148.851562 125.667969 151.550781 119.726562 155.734375 113.417969 C 157.65625 110.277344 159.261719 106.96875 162.007812 104.417969 C 164.65625 101.828125 168.054688 100.230469 171.617188 99.332031 C 172.367188 99.148438 172.617188 98.207031 172.5 97.539062 C 172.367188 96.433594 171.34375 96.082031 170.394531 96.488281 C 168.773438 96.894531 167.152344 97.335938 165.574219 97.882812 C 160.273438 99.242188 156.347656 103.105469 153.421875 107.574219 C 150.632812 111.34375 147.808594 115.285156 146.695312 119.914062 C 145.039062 127.234375 146.695312 137.964844 154.515625 141.027344 Z M 154.515625 141.027344 " fill-opacity="1" fill-rule="nonzero"/><path fill="#ffffff" d="M 134.601562 140.9375 C 136.203125 141.183594 137.601562 142.070312 139.125 142.484375 C 140.542969 142.539062 140.828125 140.441406 139.964844 139.609375 C 136.242188 137.054688 131.253906 137.207031 126.902344 136.707031 C 116.382812 136.089844 106.628906 141.746094 102.792969 151.703125 C 98.15625 163.015625 99.925781 172.164062 110.816406 178.71875 C 114.042969 180.472656 117.765625 180.96875 121.269531 181.949219 C 123 182.097656 123.515625 179.664062 122.757812 178.445312 C 122.554688 178.082031 122.207031 177.679688 121.78125 177.570312 C 119.242188 176.847656 116.59375 176.269531 114.367188 174.785156 C 110.714844 172.496094 107.761719 169.277344 104.996094 166.011719 C 102.710938 162.863281 103.460938 158.605469 104.976562 155.285156 C 112.738281 139.726562 117.617188 137.671875 134.605469 140.929688 Z M 134.601562 140.9375 " fill-opacity="1" fill-rule="nonzero"/><path fill="#ffffff" d="M 143.539062 144.425781 C 143.265625 143.859375 142.519531 144.023438 142.394531 144.589844 C 142.191406 146.1875 143.609375 147.496094 144.054688 148.964844 C 145.046875 151.683594 145.917969 154.515625 146.027344 157.421875 C 145.964844 161.964844 142.960938 165.726562 140.714844 169.460938 C 138.277344 173.203125 134.714844 176.515625 130.03125 176.667969 C 129.203125 176.796875 128.363281 176.917969 127.523438 176.960938 C 125.417969 177.203125 125.628906 181.109375 127.746094 181.140625 C 139.378906 181.632812 146.878906 169.96875 147.542969 159.421875 C 147.902344 154.09375 146.167969 148.972656 143.53125 144.417969 Z M 143.539062 144.425781 " fill-opacity="1" fill-rule="nonzero"/><path fill="#ffffff" d="M 96.378906 113.515625 C 100.921875 106.960938 106.820312 104.886719 114.375 107.699219 C 120.621094 109.285156 126.410156 114.324219 125.839844 121.25 C 125.707031 124.992188 126 130.921875 121.144531 131.648438 C 120.042969 131.628906 119.953125 133.480469 120.964844 133.691406 C 130.589844 133.519531 128.5625 116.765625 125.445312 111.019531 C 122.664062 104.933594 116.125 101.445312 109.601562 101.160156 C 104.570312 101.011719 99.15625 103.214844 95.882812 107.078125 C 94.898438 108.671875 92.964844 110.160156 93.300781 112.21875 C 93.398438 113.71875 95.335938 114.972656 96.386719 113.515625 Z M 96.378906 113.515625 " fill-opacity="1" fill-rule="nonzero"/><path fill="#ffffff" d="M 106.523438 140.898438 C 108.414062 140.433594 111.472656 140.171875 110.933594 137.488281 C 110.09375 132.976562 103.953125 139.390625 97.304688 135.019531 C 92.691406 132.550781 90.433594 126.953125 90.0625 121.945312 C 89.902344 119.992188 91.105469 119.84375 90.800781 118.667969 C 89.839844 116.589844 88.3125 119.433594 88.273438 120.617188 C 87.753906 124.949219 88.574219 129.574219 90.742188 133.378906 C 93.835938 138.558594 100.433594 142.414062 106.523438 140.90625 Z M 106.523438 140.898438 " fill-opacity="1" fill-rule="nonzero"/><path fill="#ffffff" d="M 62.914062 167.871094 C 65.410156 170.527344 69.15625 171.0625 72.507812 172.023438 C 74.835938 172.628906 75.714844 169.308594 74.683594 167.699219 C 73.570312 165.960938 70.167969 165.832031 68.296875 164.910156 C 64.96875 163.238281 62.992188 159.75 61.304688 156.550781 C 59.980469 152.785156 59.496094 148.285156 61.113281 144.53125 C 63.640625 140.28125 67.800781 136.707031 72.648438 135.484375 C 74.308594 134.949219 76.105469 135.375 77.757812 135.015625 C 79.035156 134.363281 78.417969 132.011719 76.925781 132.214844 C 63.507812 131.71875 54.03125 146.847656 57.367188 159.152344 C 58.605469 162.347656 60.675781 165.28125 62.90625 167.863281 Z M 62.914062 167.871094 " fill-opacity="1" fill-rule="nonzero"/><path fill="#ffffff" d="M 84.140625 173.136719 C 93.191406 170.6875 98.179688 159.382812 97.601562 150.613281 C 97.386719 147.039062 95.769531 143.722656 93.1875 141.253906 C 90.914062 138.90625 88.585938 136.535156 85.582031 135.132812 C 84.316406 133.664062 83.011719 136.101562 83.941406 137.195312 C 85.082031 138.546875 86.867188 139.214844 88.101562 140.5 C 89.828125 142.214844 91.582031 143.941406 92.957031 145.964844 C 98.722656 155.03125 92.359375 165.421875 82.644531 167.804688 C 80.683594 168.15625 79.40625 169.269531 79.753906 171.394531 C 80.066406 173.84375 82.273438 173.820312 84.132812 173.136719 Z M 84.140625 173.136719 " fill-opacity="1" fill-rule="nonzero"/><path fill="#ffffff" d="M 70.945312 198.855469 C 71.371094 198.207031 71.796875 197.5625 72.230469 196.914062 C 73.277344 195.558594 71.5625 192.671875 70.058594 194.351562 C 69.351562 195.222656 68.601562 196.066406 67.789062 196.835938 C 65.402344 199.171875 62.324219 200.578125 59.375 202.074219 C 55.667969 204.25 51.488281 205.3125 47.1875 205.140625 C 36.898438 205.292969 32.539062 193.253906 33.285156 184.539062 C 33.75 178.992188 38.113281 175.097656 42.304688 171.980469 C 44.363281 170.445312 46.945312 170.019531 49.214844 168.988281 C 50.054688 168.5 49.789062 166.628906 48.730469 166.628906 C 45.671875 167.1875 42.71875 168.734375 40.1875 170.535156 C 36.5625 173.527344 33.558594 177.347656 31.527344 181.601562 C 27.003906 191.402344 31.902344 203.410156 40.269531 209.519531 C 44.960938 213.015625 51.589844 214.59375 57.195312 212.589844 C 63.289062 209.917969 67.601562 204.421875 70.949219 198.855469 Z M 70.945312 198.855469 " fill-opacity="1" fill-rule="nonzero"/><path fill="#ffffff" d="M 55.558594 171.242188 C 61.984375 171.800781 68.203125 175.667969 71.625 181.136719 C 73.175781 183.972656 72.515625 187.152344 71.929688 190.15625 C 71.515625 191.640625 73.101562 193.859375 74.597656 192.523438 C 77.425781 186.59375 74.207031 179.1875 69.589844 175.007812 C 66.472656 171.121094 61.648438 169.328125 56.800781 168.882812 C 53.664062 168.492188 53.765625 172.054688 55.558594 171.242188 Z M 55.558594 171.242188 " fill-opacity="1" fill-rule="nonzero"/><path fill="#ffffff" d="M 95.160156 175.617188 C 97.957031 176.324219 97.792969 171.914062 94.699219 171.863281 C 91.609375 171.191406 88.867188 173.449219 86.511719 175.148438 C 80.664062 179.042969 78.433594 185.96875 78.222656 192.714844 C 76.308594 204.242188 84.757812 215.894531 96.910156 215.359375 C 105.523438 215.410156 115.863281 212.515625 119.222656 203.710938 C 120.871094 198.988281 122.53125 193.855469 120.753906 188.917969 C 120.136719 187.976562 119.8125 183.628906 118.414062 184.222656 C 117.070312 185.144531 118.839844 188.242188 118.9375 189.65625 C 119.898438 193.160156 117.9375 196.476562 116.539062 199.574219 C 114.136719 204.875 108.671875 208.226562 103.074219 209.226562 C 96.648438 210.046875 89.597656 208.390625 85.171875 203.429688 C 82.867188 201.273438 81.023438 198.484375 80.886719 195.253906 C 80.144531 189.757812 81.621094 184.136719 85.667969 180.21875 C 88.066406 178.074219 91.671875 174.277344 95.160156 175.625 Z M 95.160156 175.617188 " fill-opacity="1" fill-rule="nonzero"/><path fill="#ffffff" d="M 94.839844 219.226562 C 94.269531 219.375 94.050781 220.105469 94.148438 220.628906 C 94.464844 222.453125 94.746094 224.316406 94.554688 226.175781 C 94.34375 230.761719 90.3125 233.511719 86.710938 235.636719 C 83.9375 237.371094 80.664062 237.660156 77.476562 237.765625 C 72.042969 237.914062 65.878906 236.308594 63.421875 230.953125 C 61.546875 226.460938 60.445312 219.53125 63.914062 215.574219 C 65.820312 213.832031 67.667969 211.527344 70.292969 210.949219 C 71.050781 210.703125 72.078125 211.351562 72.648438 210.703125 C 73.347656 209.5625 72.332031 208.816406 71.222656 208.875 C 67.832031 208.542969 65.089844 211.492188 62.914062 213.730469 C 59.046875 218.953125 57.855469 227.996094 60.371094 234.019531 C 63.035156 240.820312 70.753906 242.476562 77.25 243.265625 C 84.457031 245.238281 91.742188 241.636719 95.222656 235.160156 C 97.53125 231.234375 97.238281 226.519531 96.328125 222.222656 C 96 221.269531 96.277344 219.164062 94.847656 219.226562 Z M 94.839844 219.226562 " fill-opacity="1" fill-rule="nonzero"/><g clip-path="url(#4e5cac3ecc)"><path fill="#ffffff" d="M 39.304688 212.597656 C 37.902344 211.613281 36.464844 210.101562 34.691406 209.976562 C 33.480469 210.273438 33.925781 212.121094 34.984375 212.347656 C 36.9375 213.691406 38.8125 215.160156 40.164062 217.152344 C 48.027344 230.234375 40.925781 242.410156 27.125 246.503906 C 20.558594 248.257812 13.96875 244.589844 9.164062 240.339844 C 6.238281 237.984375 5.003906 234.269531 4.46875 230.667969 C 4.105469 225.347656 5.410156 219.0625 10.488281 216.3125 C 16.226562 213.214844 22.539062 211.34375 29.097656 212.023438 C 31.332031 212.164062 31.859375 208.964844 30.699219 207.519531 C 29.785156 206.265625 27.984375 206.667969 26.636719 206.367188 C 18.261719 205.273438 6.53125 212.109375 2.949219 219.683594 C -4.75 234.898438 2.816406 253.039062 21.277344 252.300781 C 25.96875 252.109375 30.53125 250.519531 34.816406 248.710938 C 39.460938 246.777344 42.988281 242.578125 44.488281 237.824219 C 45.800781 233.703125 45.699219 229.28125 45.183594 225.03125 C 44.894531 220.296875 43.09375 215.605469 39.296875 212.605469 Z M 39.304688 212.597656 " fill-opacity="1" fill-rule="nonzero"/></g><path fill="#ffffff" d="M 210.929688 84.445312 C 209.898438 86.105469 211.898438 89.050781 213.457031 86.953125 C 215.5625 83.300781 218.261719 76.945312 214.691406 73.496094 C 212.375 73.152344 214.863281 77.785156 213.277344 80.207031 C 212.65625 81.710938 211.6875 83.011719 210.929688 84.445312 Z M 210.929688 84.445312 " fill-opacity="1" fill-rule="nonzero"/><path fill="#ffffff" d="M 221.261719 120.308594 C 220.710938 116.289062 216.371094 119.355469 213.285156 118.03125 C 209.898438 116.792969 206.484375 114.8125 204.503906 111.714844 C 203.265625 109.609375 203.625 106.96875 203.847656 104.632812 C 204.664062 99.542969 211.230469 93.460938 215.9375 91.769531 C 216.828125 91.519531 217.769531 91.480469 218.660156 91.722656 C 220.730469 91.789062 220.894531 87.757812 217.667969 88.300781 C 214.867188 88.128906 212.6875 90.011719 210.601562 91.609375 C 208.609375 93.136719 206.625 94.71875 205.121094 96.742188 C 202.066406 100.785156 201.285156 105.976562 201.035156 110.90625 C 201.09375 115.875 204.25 120.40625 208.511719 122.804688 C 210.53125 123.976562 212.921875 124.636719 215.257812 124.28125 C 217.59375 123.6875 221.734375 123.714844 221.269531 120.308594 Z M 221.261719 120.308594 " fill-opacity="1" fill-rule="nonzero"/><path fill="#ffffff" d="M 238.914062 94.703125 C 236.214844 89.203125 231.144531 86.882812 225.234375 86.609375 C 222.613281 86.023438 221.625 90.234375 224.074219 91.015625 C 226.867188 91.375 229.917969 90.617188 232.542969 92.035156 C 236.722656 94.460938 237.933594 99.90625 238.226562 104.398438 C 238.621094 107.628906 237.1875 110.703125 235.414062 113.324219 C 234.160156 115.398438 229.183594 117.097656 230.515625 119.757812 C 230.824219 120.386719 231.558594 120.820312 232.21875 120.398438 C 234.101562 119.292969 235.898438 118.007812 237.164062 116.195312 C 238.84375 113.675781 240.25 110.835938 240.867188 107.851562 C 241.367188 103.449219 241.121094 98.632812 238.917969 94.695312 Z M 238.914062 94.703125 " fill-opacity="1" fill-rule="nonzero"/><path fill="#ffffff" d="M 196.101562 167.253906 C 198.9375 168.023438 202.011719 168.601562 204.898438 167.792969 C 207.738281 166.875 210.601562 165.445312 212.527344 163.109375 C 213.546875 161.800781 214.390625 160.363281 215.28125 158.96875 C 216.078125 157.792969 215.695312 155.511719 214.046875 155.394531 C 212.671875 155.546875 211.902344 157.535156 210.867188 158.390625 C 206.402344 162.351562 199.96875 163.785156 194.210938 162.269531 C 189.125 161.144531 184.730469 157.695312 182.605469 152.917969 C 181.667969 150.371094 181.890625 147.414062 182.664062 144.851562 C 183.125 144.628906 183.273438 144.035156 183.164062 143.566406 C 183.082031 143.191406 182.726562 142.710938 182.285156 142.832031 C 180.28125 143.691406 180.359375 147.578125 180.136719 149.488281 C 179.167969 158.6875 188.484375 164.605469 196.105469 167.253906 Z M 196.101562 167.253906 " fill-opacity="1" fill-rule="nonzero"/><path fill="#ffffff" d="M 216.445312 148.144531 C 217.273438 146.019531 217.832031 143.738281 217.65625 141.441406 C 217.425781 138.410156 216.511719 135.34375 214.523438 132.996094 C 212.164062 130.4375 209.261719 128.15625 205.726562 127.644531 C 200.375 126.375 195.585938 127.996094 191.640625 131.722656 C 190.496094 132.84375 186.96875 136.109375 188.972656 137.589844 C 189.65625 137.839844 189.972656 137.113281 190.167969 136.597656 C 191.582031 134.574219 193.695312 133.097656 195.820312 131.894531 C 199.789062 130.011719 204.957031 129.230469 208.867188 131.609375 C 213.410156 135.007812 214.441406 141.289062 213.285156 146.5625 C 212.679688 148.832031 215.300781 150.824219 216.441406 148.144531 Z M 216.445312 148.144531 " fill-opacity="1" fill-rule="nonzero"/><path fill="#ffffff" d="M 218.585938 136.109375 C 220.21875 137.144531 220.746094 131.46875 226.136719 129.90625 C 229.445312 128.601562 233.128906 128.652344 236.550781 129.441406 C 237.226562 129.664062 237.9375 130.164062 238.574219 129.5625 C 241.019531 126.527344 236.074219 125.246094 233.824219 125.050781 C 228.816406 124.535156 221.757812 127.175781 219.304688 131.761719 C 218.730469 133.023438 217.121094 134.929688 218.585938 136.101562 Z M 218.585938 136.109375 " fill-opacity="1" fill-rule="nonzero"/><path fill="#ffffff" d="M 252.203125 150.421875 C 252.851562 146.15625 253.105469 141.523438 251.351562 137.480469 C 249.832031 134.230469 247.519531 130.746094 243.875 129.746094 C 242.703125 129.53125 242.328125 131.261719 243.105469 131.910156 C 244.863281 132.683594 246.234375 133.703125 247.261719 135.382812 C 250.046875 139.550781 250.390625 146.066406 249.347656 150.863281 C 248.316406 153.9375 244.328125 158.59375 241.121094 159.371094 C 236.894531 160.316406 232.488281 161.226562 228.152344 160.984375 C 226.179688 160.152344 224.113281 159.152344 222.988281 157.246094 C 221.644531 155.429688 219.914062 157.976562 220.804688 159.40625 C 221.96875 162.074219 224.8125 163.015625 227.179688 164.320312 C 232.214844 165.8125 239.414062 165.566406 243.84375 162.507812 C 247.535156 159.316406 251.101562 155.296875 252.199219 150.417969 Z M 252.203125 150.421875 " fill-opacity="1" fill-rule="nonzero"/><path fill="#ffffff" d="M 214.609375 170.785156 C 212.445312 169.816406 210.027344 169.855469 207.742188 169.351562 C 205.917969 169.148438 205.617188 172.277344 207.136719 172.890625 C 209.003906 173.714844 210.960938 174.398438 212.648438 175.566406 C 215.378906 177.628906 215.929688 181.070312 216.414062 184.234375 C 217.160156 186.988281 217.515625 190.425781 215.382812 192.65625 C 209.90625 197.914062 201.546875 197.175781 194.523438 196.761719 C 190.804688 196.339844 186.089844 194.871094 185.074219 190.804688 C 183.832031 186.25 183.535156 181.324219 184.5 176.695312 C 185.167969 173.945312 187.707031 172.308594 190.15625 171.253906 C 191.558594 170.816406 191.664062 168.378906 190.203125 167.964844 C 188.558594 167.933594 185.246094 170.382812 184.105469 171.605469 C 179.921875 177.164062 180.988281 185.988281 183.003906 192.230469 C 183.691406 194.769531 185.457031 196.792969 187.503906 198.371094 C 193 203.078125 201.019531 203.984375 207.820312 201.992188 C 211.304688 201.042969 214.429688 199.078125 217.160156 196.75 C 219.207031 195.082031 220.46875 192.65625 221.035156 190.113281 C 221.652344 187.574219 221.460938 184.960938 221.128906 182.386719 C 220.902344 177.808594 218.941406 172.890625 214.613281 170.777344 Z M 214.609375 170.785156 " fill-opacity="1" fill-rule="nonzero"/><path fill="#ffffff" d="M 169.382812 185.550781 C 171.738281 184.8125 174.21875 184.085938 175.957031 182.222656 C 176.820312 181.308594 178.175781 180.523438 178.101562 179.105469 C 178.214844 177.859375 176.851562 176.363281 175.683594 177.375 C 174.519531 178.328125 173.265625 179.164062 172.105469 180.128906 C 171.023438 181.027344 169.453125 181.503906 168.1875 182.128906 C 164.648438 184.003906 161.207031 183.585938 157.484375 182.578125 C 154.992188 181.886719 152.898438 180.289062 150.824219 178.804688 C 149.601562 177.882812 148.40625 176.871094 147.617188 175.542969 C 147.355469 175.140625 147.332031 174.53125 146.816406 174.347656 C 145.316406 174.160156 145.761719 176.21875 146.332031 176.992188 C 147.445312 178.996094 149.257812 180.460938 150.996094 181.90625 C 153.304688 184.222656 156.035156 185.855469 159.316406 186.289062 C 162.703125 187.109375 166.125 186.675781 169.390625 185.539062 Z M 169.382812 185.550781 " fill-opacity="1" fill-rule="nonzero"/><path fill="#ffffff" d="M 177.265625 171.4375 C 177.65625 172.789062 179.339844 173.011719 179.933594 171.6875 C 181.441406 168.875 181.101562 165.566406 180.148438 162.632812 C 179.691406 160.175781 178.519531 157.429688 176.726562 155.570312 C 175.777344 154.363281 175 153.027344 173.886719 151.949219 C 171.660156 149.992188 168.761719 148.949219 166 147.980469 C 160.476562 146.046875 154.316406 149.410156 152.3125 154.769531 C 152.007812 155.734375 151.398438 156.816406 151.777344 157.828125 C 151.96875 158.324219 152.675781 158.324219 152.859375 157.828125 C 154.679688 154.539062 157.867188 151.535156 161.832031 151.390625 C 165.261719 151.167969 170.578125 152.171875 172.925781 154.832031 C 174.109375 156.792969 175.492188 158.726562 176.191406 160.921875 C 176.675781 163.128906 177.273438 165.335938 177.566406 167.578125 C 177.640625 168.875 176.851562 170.152344 177.285156 171.433594 Z M 177.265625 171.4375 " fill-opacity="1" fill-rule="nonzero"/><path fill="#ffffff" d="M 152.179688 185.359375 C 149.800781 183.71875 148.433594 187.988281 150.214844 189.34375 C 151.945312 191.074219 153.222656 193.179688 154.152344 195.433594 C 155.628906 198.210938 154.839844 201.171875 153.71875 203.925781 C 151.605469 209.703125 146.667969 214.023438 141.527344 217.121094 C 134.957031 219.824219 127.035156 216.980469 122.179688 212.109375 C 121.335938 211.617188 120.4375 208.753906 119.546875 210.605469 C 119.246094 212.832031 121.449219 214.527344 122.828125 215.996094 C 127.035156 220.742188 133.59375 221.359375 139.554688 221.148438 C 148.191406 220.113281 156.78125 213.933594 158.152344 204.949219 C 159.082031 201.265625 159.007812 197.453125 157.414062 193.96875 C 156.328125 190.773438 155.015625 187.394531 152.171875 185.359375 Z M 152.179688 185.359375 " fill-opacity="1" fill-rule="nonzero"/><path fill="#ffffff" d="M 139.074219 181.910156 C 134.257812 180.976562 124.285156 185.429688 124.757812 190.984375 C 124.878906 191.683594 125.769531 192.015625 126.167969 191.351562 C 128.328125 186.300781 135.015625 185.042969 140 185.421875 C 142.34375 185.300781 141.957031 181.464844 139.074219 181.910156 Z M 139.074219 181.910156 " fill-opacity="1" fill-rule="nonzero"/><path fill="#ffffff" d="M 176.648438 201.515625 C 172.824219 203.632812 167.410156 203.9375 163.347656 202.328125 C 160.171875 200.796875 159.921875 205.796875 165.675781 206.921875 C 170.058594 206.984375 175.492188 207.921875 178.921875 204.5625 C 180.085938 202.972656 182.78125 200.820312 181.238281 198.734375 C 179.480469 197.074219 178.195312 200.898438 176.648438 201.507812 Z M 176.648438 201.515625 " fill-opacity="1" fill-rule="nonzero"/><path fill="#ffffff" d="M 122.363281 219.914062 C 120.5 219.074219 120.277344 222.015625 119.03125 222.789062 C 114.5 226.671875 107.351562 227.757812 102.082031 224.78125 C 101.019531 221.035156 96.261719 227.96875 107.796875 230.296875 C 112.828125 231.546875 118.636719 229.675781 121.683594 225.40625 C 122.519531 223.871094 124.171875 221.3125 122.359375 219.914062 Z M 122.363281 219.914062 " fill-opacity="1" fill-rule="nonzero"/><path fill="#ffffff" d="M 235.96875 166.894531 C 234.191406 167.722656 235.210938 169.898438 234.859375 171.386719 C 234.160156 174.996094 230.832031 177.210938 227.84375 178.902344 C 227.1875 179.320312 226.25 179.304688 225.78125 179.964844 C 225.296875 180.675781 225.511719 181.835938 226.308594 182.230469 C 228.210938 182.960938 230.121094 181.53125 231.730469 180.652344 C 236.152344 178.328125 239.039062 173.265625 237.902344 168.265625 C 237.714844 167.386719 236.871094 166.519531 235.960938 166.894531 Z M 235.96875 166.894531 " fill-opacity="1" fill-rule="nonzero"/><g clip-path="url(#7fee7864f2)"><path fill="#ffffff" d="M 340.648438 103.71875 C 339.203125 102.191406 337.066406 101.941406 335.132812 101.433594 C 332.5625 100.546875 330.117188 99.308594 327.59375 98.296875 C 325.675781 97.324219 324.21875 95.707031 322.515625 94.441406 C 324.164062 93.777344 325.933594 93.398438 327.496094 92.539062 C 331.210938 90.597656 334.863281 85.488281 331.488281 81.675781 C 329.464844 78.667969 321.484375 78.851562 326.179688 74.015625 C 329.894531 70.441406 328.433594 67.042969 325.722656 63.4375 C 324.175781 61.09375 322.242188 59.007812 319.933594 57.398438 C 317.984375 55.871094 315.441406 55.039062 313.035156 55.933594 C 310.867188 56.355469 308.1875 58.328125 306.144531 56.761719 C 305.464844 55.515625 305.074219 54.113281 304.371094 52.875 C 302.371094 49.566406 298.148438 45.597656 294.234375 45.046875 C 290.730469 44.972656 287.871094 47.445312 285.15625 49.355469 C 282.648438 51.144531 279.949219 52.996094 277.78125 55.246094 C 276.660156 56.378906 275.179688 57.046875 273.945312 57.996094 C 273.339844 59.5625 274.941406 59.34375 275.816406 58.757812 C 281.320312 56.566406 288.820312 45.894531 294.960938 49.679688 C 298.101562 52.347656 301.195312 55.191406 302.539062 59.199219 C 305.222656 64.625 311.054688 60.730469 315.34375 60.910156 C 319.15625 63.09375 322.214844 66.578125 324.902344 70.015625 C 324.105469 71.941406 322.433594 73.550781 322.273438 75.714844 C 321.738281 82.859375 334.34375 82.167969 328.023438 86.984375 C 325.179688 88.96875 321.371094 88.472656 318.417969 90.261719 C 315.535156 91.941406 316.011719 96.414062 318.945312 97.78125 C 321.402344 99.066406 323.40625 101.121094 325.945312 102.242188 C 328.433594 103.082031 331.054688 103.425781 333.554688 104.226562 C 335.1875 104.722656 337.027344 104.671875 338.515625 105.566406 C 340.929688 107.648438 340.769531 111.289062 340.386719 114.175781 C 339.058594 117.242188 337.128906 120.183594 336.703125 123.59375 C 335.925781 126.976562 337.074219 130.265625 337.492188 133.59375 C 337.613281 136.03125 336.644531 138.410156 337.179688 140.898438 C 334.535156 141.414062 331.792969 140.835938 329.140625 141.414062 C 324.851562 142.164062 320.089844 144.035156 315.859375 142.246094 C 310.679688 138.769531 305 136.265625 299.179688 134.066406 C 296.792969 132.820312 295.066406 129.960938 292.03125 130.382812 C 289.238281 130.457031 285.378906 133.675781 287.667969 136.496094 C 288.074219 136.953125 288.660156 137.09375 289.203125 137.324219 C 290.449219 138.015625 290.601562 139.710938 290.765625 140.996094 C 290.925781 143.457031 290.277344 146.035156 289.902344 148.46875 C 289.398438 154.519531 285.785156 156.035156 280.359375 157.066406 C 277.195312 157.308594 274.027344 157.886719 271.445312 159.859375 C 269.902344 160.941406 268.269531 162.117188 267.441406 163.867188 C 266.113281 166.191406 267.761719 168.660156 267.359375 171.058594 C 266.710938 174.582031 261.792969 185.421875 258.050781 185.691406 C 255.148438 179.054688 256.21875 176.527344 250.269531 171.007812 C 248.710938 169.828125 247.445312 165.316406 245.070312 167.09375 C 241.832031 170.636719 248.597656 176.234375 250.246094 179.417969 C 252.089844 183.246094 251.910156 189.039062 256.191406 191.15625 C 262.351562 192.449219 265.539062 183.910156 267.492188 179.417969 C 269.0625 175.433594 271.175781 171.40625 270.789062 167.003906 C 273.1875 164.585938 276.496094 163.269531 279.863281 163.003906 C 283.035156 162.472656 286.171875 161.265625 288.738281 159.300781 C 292.636719 156.300781 292.605469 151.097656 293.195312 146.65625 C 293.960938 142.707031 294.550781 138.125 292.019531 134.664062 C 293.738281 133.964844 295.097656 135.152344 296.410156 136.082031 C 297.734375 136.949219 299.253906 137.378906 300.738281 137.882812 C 303.617188 138.863281 306.265625 140.460938 308.605469 142.394531 C 310.800781 144.1875 312.511719 146.613281 315.050781 147.960938 C 319.480469 150.164062 324.761719 148.621094 329.324219 147.546875 C 331.9375 146.847656 334.691406 147.199219 337.328125 146.625 C 339.949219 146.269531 342.074219 143.921875 341.53125 141.210938 C 341.394531 140.261719 341.035156 139.320312 341.265625 138.359375 C 342.832031 131.863281 339.835938 125.933594 343.054688 119.65625 C 345.261719 114.550781 344.308594 107.898438 340.621094 103.703125 Z M 340.648438 103.71875 " fill-opacity="1" fill-rule="nonzero"/></g><path fill="#ffffff" d="M 277.597656 68.550781 C 278.578125 68.742188 279.535156 69.042969 280.515625 69.246094 C 285.792969 70.460938 290.863281 72.507812 295.9375 74.347656 C 299.285156 75.777344 300.703125 79.378906 303.460938 81.503906 C 304.578125 82.179688 305.558594 83.902344 306.972656 83.675781 C 307.765625 83.332031 308.035156 82.3125 307.851562 81.523438 C 307.421875 80.167969 305.828125 79.597656 304.898438 78.597656 C 302.996094 77.121094 301.289062 75.453125 299.457031 73.910156 C 293.050781 69.613281 285.261719 66.890625 277.648438 65.738281 C 276.832031 65.453125 276.242188 66.386719 276.253906 67.140625 C 276.253906 67.863281 276.78125 68.785156 277.601562 68.558594 Z M 277.597656 68.550781 " fill-opacity="1" fill-rule="nonzero"/><path fill="#ffffff" d="M 271.105469 73.757812 C 270.882812 73.515625 270.546875 73.546875 270.363281 73.824219 C 269.851562 74.933594 271.660156 76.019531 272.003906 77.089844 C 272.691406 78.519531 273.3125 79.984375 273.734375 81.511719 C 274.566406 84.949219 274.917969 88.605469 276.910156 91.628906 C 279.734375 95.351562 281.910156 99.480469 284.519531 103.339844 C 287.472656 107.539062 292.324219 109.441406 296.257812 112.484375 C 300.394531 116.195312 303.808594 120.851562 309.542969 122.167969 C 310.789062 122.363281 312.273438 123.605469 313.46875 122.875 C 314.125 122.289062 314.230469 121.238281 313.855469 120.46875 C 312.945312 119.175781 310.953125 119.183594 309.613281 118.453125 C 304.273438 116.957031 299.992188 113.40625 296.066406 109.632812 C 289.820312 104.390625 283.984375 98.558594 279.640625 91.597656 C 277.742188 88.71875 276.042969 85.667969 275.046875 82.339844 C 274.238281 79.285156 273.378906 76.097656 271.105469 73.757812 Z M 271.105469 73.757812 " fill-opacity="1" fill-rule="nonzero"/><path fill="#ffffff" d="M 264.730469 76.796875 C 264.902344 76.359375 265.253906 75.957031 265.03125 75.449219 C 262.828125 71.917969 261.195312 88.441406 260.761719 89.75 C 260.195312 93.167969 259.4375 96.605469 259.570312 100.082031 C 259.707031 103.640625 260.4375 107.140625 260.703125 110.683594 C 260.820312 116.359375 260.347656 122.023438 260.886719 127.691406 C 260.902344 130.578125 264.214844 130.488281 264.203125 127.691406 C 264.382812 119.992188 263.402344 112.34375 263.050781 104.664062 C 262.652344 99.804688 261.882812 94.960938 262.210938 90.074219 C 262.734375 85.601562 263.867188 81.21875 264.730469 76.804688 Z M 264.730469 76.796875 " fill-opacity="1" fill-rule="nonzero"/><path fill="#ffffff" d="M 262.683594 145.714844 C 262.441406 147.746094 262.421875 149.804688 262.039062 151.824219 C 261.714844 154.382812 261.328125 156.925781 260.609375 159.40625 C 260.425781 160.105469 259.773438 160.953125 260.460938 161.578125 C 262.058594 162.574219 262.226562 156.714844 262.613281 155.734375 C 263.222656 152.472656 263.96875 149.164062 263.949219 145.835938 C 263.90625 144.984375 262.84375 144.851562 262.683594 145.714844 Z M 262.683594 145.714844 " fill-opacity="1" fill-rule="nonzero"/><path fill="#ffffff" d="M 260.75 63.167969 C 262.867188 61.285156 257.078125 59.433594 255.683594 59.492188 C 253.832031 59.363281 251.785156 59.460938 250.148438 60.421875 C 249.128906 61.109375 249.164062 62.992188 250.3125 63.519531 C 251.203125 63.773438 251.941406 62.882812 252.808594 62.742188 C 254.699219 62.203125 256.722656 62.328125 258.589844 62.882812 C 259.296875 63.113281 260.003906 63.429688 260.75 63.167969 Z M 260.75 63.167969 " fill-opacity="1" fill-rule="nonzero"/><path fill="#ffffff" d="M 253.671875 74.015625 C 254.347656 73.515625 255.097656 73.144531 255.875 72.847656 C 256.84375 72.191406 256.878906 70.523438 255.90625 69.84375 C 252.199219 69.308594 249.984375 73.535156 248.054688 76.097656 C 246.464844 78.152344 244.199219 79.578125 241.972656 80.855469 C 241.203125 81.226562 240.421875 81.550781 239.617188 81.84375 C 238.421875 82.289062 238.792969 84.8125 240.210938 84.40625 C 242.03125 83.644531 243.886719 82.925781 245.546875 81.84375 C 248.933594 79.960938 250.90625 76.566406 253.671875 74.015625 Z M 253.671875 74.015625 " fill-opacity="1" fill-rule="nonzero"/><g clip-path="url(#3c5bb4a6e9)"><path fill="#ffffff" d="M 115.429688 6.492188 C 119.800781 5.226562 126.851562 2.554688 129.132812 8.25 C 129.636719 10.855469 129.089844 13.59375 129.796875 16.195312 C 131.417969 22.144531 134.636719 28.449219 140.359375 31.324219 C 139.523438 47.097656 154.648438 52.519531 167.769531 48.203125 C 173.550781 46.347656 178.183594 41.886719 180.96875 36.566406 C 183.863281 31.585938 185.09375 25.878906 187.542969 20.707031 C 189.324219 17.742188 193.269531 17.023438 196.390625 16.234375 C 206.414062 15.085938 217.058594 22.339844 223.316406 29.65625 C 225.308594 33.175781 225.289062 37.433594 226.988281 41.070312 C 229.808594 47.15625 238.25 51.046875 244.441406 47.886719 C 245.464844 47.128906 247.363281 46.167969 246.902344 44.640625 C 246.75 44.222656 246.285156 43.859375 245.835938 44.101562 C 245.050781 44.609375 244.136719 44.84375 243.234375 45.042969 C 237.957031 45.601562 231.640625 42.855469 229.128906 38.0625 C 227.472656 33.667969 227.59375 28.632812 225.035156 24.554688 C 220.46875 17.046875 212.144531 13.390625 203.785156 11.914062 C 198.746094 10.578125 193.289062 10.125 188.433594 12.359375 C 181.21875 15.480469 182.285156 24.777344 180.207031 31.132812 C 178.5 38.425781 172.085938 42.777344 164.839844 43.242188 C 156.613281 44.042969 145.085938 41.960938 143.519531 32.277344 C 147.675781 32.558594 152.027344 31.769531 155.785156 29.964844 C 160.304688 27.328125 159.832031 21.769531 155.445312 19.269531 C 148.914062 14.101562 143.476562 19.25 141.269531 25.777344 C 136.972656 23.054688 134.140625 18.550781 132.410156 13.851562 C 131.34375 8.3125 131.519531 3.425781 125.457031 0.757812 C 121.550781 -0.699219 116.984375 0.449219 113.3125 2.082031 C 110.207031 4.023438 111.695312 9.527344 115.441406 6.492188 Z M 148.699219 20.503906 C 151.417969 20.914062 153.980469 22.945312 155.609375 25.089844 C 153.261719 28.367188 146.675781 27.882812 143.195312 26.777344 C 143.894531 24.101562 145.601562 20.707031 148.699219 20.503906 Z M 148.699219 20.503906 " fill-opacity="1" fill-rule="nonzero"/></g><path fill="#ffffff" d="M 240.679688 39.601562 C 242.144531 38.871094 242.601562 36.921875 243.863281 35.804688 C 244.917969 34.621094 246.273438 33.824219 247.777344 33.355469 C 250.226562 32.488281 252.65625 31.113281 255.09375 30.109375 C 255.644531 29.785156 256.625 29.492188 257.566406 29.125 C 254.890625 35.464844 252.433594 41.910156 249.429688 48.117188 C 247.558594 52.683594 244.195312 56.308594 241.597656 60.445312 C 238.710938 64.996094 236.042969 69.875 232.015625 73.535156 C 230.621094 74.683594 229.128906 75.726562 227.503906 76.523438 C 224.546875 78.023438 216.703125 78.914062 217.878906 83.574219 C 218.65625 85.792969 220.59375 84.609375 221.976562 83.785156 C 224.578125 82.257812 227.390625 81.144531 230.070312 79.742188 C 236.84375 76.839844 242.367188 71.683594 246.285156 65.484375 C 247.878906 63.027344 249.574219 60.617188 250.898438 58.003906 C 252.851562 54.128906 253.984375 50.296875 255.695312 46.265625 C 256.6875 43.972656 257.707031 41.734375 258.757812 39.519531 C 258.710938 43.617188 261.144531 47.148438 263.03125 50.660156 C 264.738281 53.207031 266.429688 55.445312 266.347656 58.683594 C 266.417969 59.554688 266.53125 60.414062 266.589844 61.285156 C 266.761719 62.933594 268.65625 62.632812 268.605469 61.089844 C 268.53125 58.5 268.410156 55.863281 267.480469 53.421875 C 265.550781 49.335938 263.324219 45.367188 261.453125 41.257812 C 260.691406 38.597656 261.480469 35.894531 261.832031 33.257812 C 264.230469 28.542969 266.78125 23.90625 269.5625 19.191406 C 273.734375 11.804688 280.917969 6.976562 289.613281 8.433594 C 291.277344 8.332031 293.304688 9.980469 294.617188 8.457031 C 295.589844 7.261719 295.613281 5.390625 294.617188 4.195312 C 292.222656 2.457031 288.972656 2.273438 286.109375 1.835938 C 275.597656 0.707031 267.175781 9.578125 262.664062 18.160156 C 261.320312 20.707031 260.105469 23.300781 258.949219 25.929688 C 255.511719 25.402344 251.988281 27.667969 248.660156 28.386719 C 243.957031 28.882812 240.605469 32.539062 238.988281 36.796875 C 238.492188 37.933594 239.191406 39.953125 240.6875 39.589844 Z M 240.679688 39.601562 " fill-opacity="1" fill-rule="nonzero"/><path fill="#ffffff" d="M 220.097656 47.1875 C 218.234375 46.773438 207.347656 50.738281 207.417969 52.714844 C 207.355469 54.871094 209.523438 53.390625 210.542969 52.914062 C 212.398438 52.085938 214.328125 51.429688 216.257812 50.773438 C 219.035156 49.6875 220.917969 49.636719 223.113281 51.882812 C 223.355469 52.085938 223.71875 52.105469 224 51.972656 C 226.5 49.851562 221.964844 47.554688 220.097656 47.1875 Z M 220.097656 47.1875 " fill-opacity="1" fill-rule="nonzero"/><path fill="#ffffff" d="M 230.105469 62.589844 C 230.566406 64.722656 230.488281 68.835938 232.410156 70.070312 C 233.804688 70.429688 234.648438 68.582031 234.292969 67.4375 C 231.976562 60.765625 232.09375 59.28125 233.6875 52.726562 C 230.945312 49.535156 229.828125 61.089844 230.105469 62.589844 Z M 230.105469 62.589844 " fill-opacity="1" fill-rule="nonzero"/><path fill="#ffffff" d="M 219.082031 67.375 C 222.546875 64.035156 225.285156 60.042969 227.328125 55.691406 C 227.695312 54.535156 229.128906 53.046875 228.210938 51.886719 C 226.691406 50.976562 226.027344 54.070312 225.265625 54.949219 C 223.488281 57.964844 221.402344 60.800781 219.082031 63.421875 C 218.277344 64.230469 217.402344 64.964844 216.566406 65.738281 C 214.9375 68.050781 217.253906 69.609375 219.074219 67.378906 Z M 219.082031 67.375 " fill-opacity="1" fill-rule="nonzero"/><g clip-path="url(#880d4ce08b)"><path stroke-linecap="butt" transform="matrix(0.749538, 0, 0, 0.749538, 365.924523, 295.409467)" fill="none" stroke-linejoin="miter" d="M 0.00167879 2.002152 L 52.799817 2.002152 " stroke="#ffffff" stroke-width="4" stroke-opacity="1" stroke-miterlimit="4"/></g></svg>