<svg xmlns="http://www.w3.org/2000/svg" xmlns:xlink="http://www.w3.org/1999/xlink" width="491" zoomAndPan="magnify" viewBox="0 0 368.25 332.250003" height="443" preserveAspectRatio="xMidYMid meet" version="1.0"><defs><clipPath id="e5618213ac"><path d="M 6.921875 7.089844 L 280.800781 7.089844 L 280.800781 251 L 6.921875 251 Z M 6.921875 7.089844 " clip-rule="nonzero"/></clipPath><clipPath id="7bdc01051f"><path d="M 142 252 L 143 252 L 143 253.976562 L 142 253.976562 Z M 142 252 " clip-rule="nonzero"/></clipPath><clipPath id="c2df7d380f"><path d="M 346 314 L 367.460938 314 L 367.460938 318 L 346 318 Z M 346 314 " clip-rule="nonzero"/></clipPath></defs><g clip-path="url(#e5618213ac)"><path fill="#c2940e" d="M 191.769531 216.253906 C 191.769531 215.648438 191.796875 215.039062 191.753906 214.4375 C 191.742188 214.28125 191.507812 214.113281 191.339844 214.019531 C 191.238281 213.964844 191.011719 213.996094 190.925781 214.082031 C 190.070312 214.882812 189.097656 215.628906 189.203125 217 C 188.777344 217.429688 188.300781 217.820312 187.929688 218.300781 C 187.460938 218.902344 186.832031 218.605469 186.265625 218.722656 C 185.703125 219.289062 185.082031 219.820312 184.566406 220.441406 C 183.597656 221.621094 181.820312 222.261719 181.988281 224.21875 C 181.078125 224.90625 180.609375 226.289062 179.070312 226.027344 C 178.898438 225.996094 178.410156 226.601562 178.4375 226.867188 C 178.597656 228.382812 178.15625 229.570312 176.925781 230.519531 C 176.289062 231.007812 175.816406 231.707031 175.1875 232.203125 C 174.578125 232.679688 174.8125 233.28125 174.730469 234.019531 C 171.953125 236.753906 169.082031 239.59375 166.21875 242.414062 L 166.21875 244.84375 C 165.628906 245.433594 165.054688 246.007812 164.445312 246.617188 L 162.023438 246.617188 C 160.765625 247.871094 159.496094 249.128906 158.328125 250.292969 C 157.722656 250.292969 157.324219 250.304688 156.917969 250.292969 C 155.378906 250.242188 155.328125 250.183594 155.292969 248.53125 C 155.261719 246.878906 155.105469 246.683594 153.789062 246.652344 C 153.589844 246.652344 153.382812 246.652344 153.183594 246.652344 C 151.996094 246.671875 150.75 246.867188 149.964844 245.601562 C 149.894531 245.484375 149.613281 245.433594 149.4375 245.445312 C 148.222656 245.5 147.078125 245.507812 146.21875 244.339844 C 145.945312 243.96875 145.132812 244.339844 144.605469 243.902344 C 143.488281 242.980469 143.457031 243.019531 142.550781 243.003906 C 141.519531 242.988281 141.5 243.015625 140.484375 242.15625 C 140.15625 241.871094 139.878906 241.734375 139.414062 241.777344 C 138.410156 241.871094 137.515625 241.828125 136.71875 240.925781 C 136.121094 240.25 134.90625 240.554688 134.207031 239.636719 C 133.710938 238.984375 132.703125 239.453125 131.929688 239.351562 C 131.746094 239.332031 131.566406 239.257812 131.398438 239.175781 C 130.964844 238.957031 130.824219 238.605469 131.339844 237.601562 C 131.4375 237.207031 131.113281 237.367188 130.992188 237.613281 C 130.742188 238.121094 130.992188 238.371094 131.503906 238.125 C 131.75 238.003906 131.914062 237.679688 132.058594 237.414062 C 132.078125 237.367188 131.75 237.039062 131.34375 237.601562 C 130.511719 238.289062 130.125 238.160156 129.957031 237.714844 C 129.820312 237.363281 129.859375 236.949219 129.75 236.589844 C 129.433594 235.546875 128.445312 235.394531 127.441406 236.203125 C 127.175781 236.421875 126.875 236.605469 126.589844 236.804688 C 126.015625 235.878906 125.046875 235.714844 124.09375 235.523438 C 123.09375 234.527344 122.046875 233.566406 121.117188 232.507812 C 120.609375 231.929688 120.027344 232.144531 119.261719 232.019531 C 118.695312 231.421875 118.042969 230.652344 117.304688 229.972656 C 116.289062 229.035156 115.519531 227.820312 114.214844 227.214844 C 112.511719 227.269531 112.082031 225.574219 110.953125 224.839844 C 110.808594 224.742188 110.566406 224.761719 110.375 224.789062 C 109.371094 224.9375 109.121094 223.71875 108.445312 223.632812 C 107.597656 223.527344 106.917969 223.402344 106.382812 222.703125 C 105.949219 222.136719 105.3125 222.347656 104.757812 222.453125 C 104.59375 222.480469 104.339844 222.84375 104.34375 222.847656 C 105.828125 224.4375 107.355469 225.988281 108.820312 227.59375 C 109.042969 227.835938 108.988281 228.316406 109.09375 228.679688 C 109.382812 229.625 109.390625 229.625 110.921875 229.648438 C 114.761719 233.488281 118.613281 237.347656 122.453125 241.214844 C 122.554688 241.316406 122.464844 241.605469 122.464844 241.804688 L 120.636719 241.804688 C 119.777344 240.945312 118.835938 240.15625 118.082031 239.207031 C 117.402344 238.347656 116.445312 238.269531 115.5625 237.910156 C 114.882812 237.628906 115.414062 236.707031 115.089844 236.320312 C 114.183594 235.246094 113.152344 234.257812 112.085938 233.320312 C 111.859375 233.121094 111.304688 233.292969 110.90625 233.292969 C 108.609375 230.996094 106.316406 228.707031 104.019531 226.414062 C 102.601562 225.746094 103.246094 223.859375 101.910156 223 C 100.742188 222.253906 99.867188 221.046875 98.808594 219.988281 C 98.398438 220.347656 97.980469 220.707031 97.554688 221.070312 C 96.71875 220.261719 95.882812 219.410156 94.992188 218.617188 C 94.105469 217.832031 93.527344 216.484375 92.3125 216.339844 C 90.878906 216.164062 90.371094 215.039062 89.5 214.296875 C 88.582031 213.511719 87.75 212.617188 86.914062 211.730469 C 86.335938 211.117188 85.367188 211.691406 84.808594 210.894531 C 84.351562 210.242188 83.6875 209.726562 83.113281 209.160156 C 81.285156 209.125 80.484375 207.59375 79.316406 206.585938 C 78.140625 206.820312 77.5 206.027344 76.808594 205.300781 C 76.113281 204.566406 75.417969 203.832031 74.652344 203.164062 C 74.078125 202.660156 73.105469 203.089844 72.570312 202.304688 C 72.234375 201.808594 71.726562 201.433594 71.296875 201.003906 C 70.722656 200.429688 70.199219 199.796875 69.554688 199.316406 C 69.292969 199.125 68.773438 199.28125 68.261719 199.28125 C 67.601562 198.597656 66.917969 197.855469 66.207031 197.136719 C 65.355469 196.265625 64.492188 195.414062 63.632812 194.554688 C 62.628906 194.457031 61.792969 194.097656 61.109375 193.285156 C 60.328125 192.359375 59.410156 191.550781 58.550781 190.695312 C 57.835938 189.980469 57.117188 189.261719 56.40625 188.546875 C 55.832031 187.972656 55.285156 187.378906 54.683594 186.835938 C 54.046875 186.269531 54.664062 185.257812 53.839844 184.734375 C 53.339844 184.417969 52.972656 183.894531 52.535156 183.464844 C 51.960938 182.890625 51.386719 182.316406 50.820312 181.746094 C 50.910156 179.851562 49.191406 179.167969 48.273438 177.941406 C 48.496094 176.207031 46.894531 175.660156 46.09375 174.589844 C 45.628906 173.972656 46.019531 173.054688 45.25 172.496094 C 44.605469 172.027344 44.09375 171.371094 43.519531 170.800781 C 43.691406 169.386719 42.613281 168.699219 41.796875 167.871094 C 40.941406 167.003906 40.097656 166.128906 39.214844 165.292969 C 38.035156 164.179688 36.800781 163.125 37.292969 161.203125 C 37.355469 160.964844 36.933594 160.488281 36.628906 160.300781 C 35.796875 159.792969 36.410156 158.777344 35.792969 158.191406 C 35.378906 157.804688 34.75 157.507812 34.890625 156.75 C 34.929688 156.554688 34.945312 156.324219 34.878906 156.148438 C 34.8125 155.976562 34.628906 155.839844 34.488281 155.703125 C 33.628906 154.84375 32.8125 153.941406 31.902344 153.136719 C 30.988281 152.328125 31.328125 150.917969 30.21875 150.15625 C 29.234375 149.476562 28.464844 148.484375 27.628906 147.601562 C 27.527344 147.496094 27.570312 147.214844 27.597656 147.019531 C 27.761719 146.007812 26.636719 145.804688 26.40625 145.082031 C 26.234375 144.546875 26.511719 143.902344 25.90625 143.457031 C 25.425781 143.105469 25.113281 142.640625 25.140625 141.945312 C 25.175781 141.1875 25.4375 140.296875 24.601562 139.753906 C 23.808594 139.25 24.226562 138.1875 23.714844 137.710938 C 22.894531 136.941406 22.582031 136.109375 22.734375 135.054688 C 22.832031 134.375 22.515625 133.890625 22.019531 133.535156 C 21.429688 133.101562 21.675781 132.441406 21.46875 131.933594 C 21.257812 131.417969 20.421875 131.066406 20.371094 130.585938 C 20.28125 129.746094 20.191406 129.019531 19.449219 128.519531 C 19.082031 128.269531 19.019531 127.917969 19.066406 127.453125 C 19.171875 126.445312 19.183594 125.449219 18.167969 124.789062 C 17.828125 124.574219 17.84375 124.15625 17.851562 123.707031 C 17.855469 122.714844 17.777344 121.71875 17.734375 120.726562 C 16.011719 119.589844 16.835938 117.828125 16.640625 116.316406 C 16.621094 116.140625 16.542969 115.949219 16.433594 115.800781 C 16.324219 115.632812 16.15625 115.503906 16.011719 115.363281 C 15.171875 114.546875 15.476562 113.078125 14.316406 112.394531 C 14.121094 112.28125 14.160156 111.628906 14.226562 111.257812 C 14.441406 110.089844 13.808594 109.367188 12.996094 108.738281 C 12.996094 107.503906 12.890625 106.28125 13.03125 105.082031 C 13.164062 103.925781 12.542969 103.257812 11.832031 102.691406 C 12.214844 102.164062 12.539062 101.71875 12.863281 101.28125 C 11.648438 100.675781 12.066406 99.121094 11.144531 98.34375 C 10.988281 98.214844 10.746094 98.0625 10.734375 97.914062 C 10.648438 96.71875 10.753906 95.492188 10.523438 94.339844 C 10.34375 93.449219 9.089844 93.015625 9.324219 91.792969 C 9.472656 91.011719 9.257812 90.164062 9.375 89.375 C 9.546875 88.199219 8.945312 87.488281 8.136719 86.859375 L 8.136719 77.089844 C 7.394531 76.394531 6.914062 75.695312 6.921875 74.527344 C 6.980469 65.21875 6.953125 55.910156 6.953125 46.605469 C 7.855469 45.953125 8.359375 45.175781 8.1875 44.039062 C 8.089844 43.445312 8.140625 42.839844 8.726562 42.441406 C 9.523438 41.902344 9.378906 41.078125 9.394531 40.285156 C 9.40625 39.90625 9.382812 39.40625 9.605469 39.171875 C 11.285156 37.414062 13.019531 35.710938 14.75 34.003906 C 14.863281 33.894531 15.132812 33.847656 15.296875 33.886719 C 16.496094 34.1875 16.730469 32.492188 17.835938 32.667969 C 18.300781 32.738281 18.597656 32.609375 18.898438 32.28125 C 19.574219 31.546875 20.304688 30.859375 20.925781 30.238281 C 22.238281 30.152344 23.546875 30.625 24.339844 29.273438 C 24.417969 29.136719 24.65625 29.039062 24.828125 29.023438 C 25.230469 28.984375 25.636719 28.992188 26.042969 29.015625 C 26.664062 29.050781 27.1875 28.925781 27.628906 28.417969 C 28.15625 27.804688 28.765625 27.265625 29.332031 26.691406 C 30.402344 26.71875 31.160156 26.191406 31.867188 25.433594 C 32.058594 25.226562 32.851562 25.539062 33 25.335938 C 34 24.003906 35.351562 24.003906 36.769531 24.195312 C 36.929688 24.21875 37.101562 24.445312 37.179688 24.617188 C 37.226562 24.71875 37.136719 24.917969 37.050781 25.035156 C 36.933594 25.199219 36.773438 25.324219 36.628906 25.472656 C 36.484375 25.617188 36.34375 25.753906 36.199219 25.898438 C 36.460938 26.128906 36.71875 26.53125 36.992188 26.546875 C 37.773438 26.585938 38.574219 26.53125 39.34375 26.378906 C 39.800781 26.289062 39.921875 25.832031 40.144531 24.824219 C 40.246094 24.429688 39.921875 24.589844 39.800781 24.835938 C 39.550781 25.34375 39.800781 25.59375 40.3125 25.347656 C 40.558594 25.226562 40.71875 24.902344 40.863281 24.636719 C 40.886719 24.589844 40.558594 24.261719 40.152344 24.824219 C 39.320312 25.511719 38.941406 25.382812 38.757812 24.9375 C 38.246094 23.714844 38.691406 22.941406 39.882812 22.933594 C 41.289062 22.933594 42.699219 22.933594 44.09375 22.933594 C 44.746094 22.019531 45.535156 21.503906 46.660156 21.71875 C 47.582031 21.898438 48.101562 21.300781 48.695312 20.753906 C 49.152344 20.332031 49.957031 20.292969 50.285156 20.734375 C 50.953125 21.636719 52.046875 21.496094 52.804688 22.019531 C 53.625 22.589844 54.257812 23.421875 54.988281 24.148438 C 55.65625 23.410156 56.316406 22.746094 57.496094 22.914062 C 58.371094 23.035156 58.398438 22.933594 59.535156 22.027344 C 59.878906 21.753906 60.023438 21.875 60.421875 22.25 C 61.503906 23.246094 61.789062 23.214844 62.902344 22.328125 C 63.726562 21.667969 63.882812 21.757812 64.113281 23.050781 C 64.3125 24.1875 65.378906 24.578125 66.257812 23.832031 C 66.566406 23.570312 66.832031 23.265625 67.121094 22.980469 C 67.558594 23.375 67.929688 23.925781 68.4375 24.117188 C 68.972656 24.3125 69.636719 24.199219 70.238281 24.144531 C 70.695312 24.101562 71.050781 24.1875 71.257812 24.625 C 71.765625 25.707031 73.097656 25.082031 73.785156 25.890625 C 74.5625 26.8125 75.484375 27.617188 76.34375 28.476562 C 77.054688 29.1875 77.78125 29.898438 78.480469 30.625 C 78.605469 30.753906 78.734375 30.988281 78.699219 31.128906 C 78.398438 32.332031 79.851562 32.679688 79.914062 33.664062 C 79.9375 34.027344 79.804688 34.421875 79.648438 34.757812 C 79.46875 35.128906 78.304688 35.324219 78.042969 34.992188 C 77.378906 34.15625 76.453125 34.011719 75.542969 33.664062 C 74.855469 33.402344 74.375 32.582031 73.804688 32.007812 C 72.8125 31 71.828125 29.992188 70.890625 29.039062 C 70.226562 28.953125 69.609375 29.222656 69.144531 28.59375 C 68.800781 28.128906 68.382812 27.699219 67.664062 27.796875 C 66.648438 27.921875 65.695312 27.851562 64.992188 26.890625 C 64.820312 26.660156 64.296875 26.652344 63.921875 26.601562 C 63.34375 26.523438 62.753906 26.496094 62.167969 26.445312 C 61.566406 25.230469 60.003906 25.667969 59.234375 24.734375 C 59.109375 24.578125 58.972656 24.378906 58.808594 24.316406 C 58.253906 24.117188 57.675781 24.003906 57.171875 24.449219 C 56.871094 24.71875 56.601562 25.019531 56.242188 25.375 C 53.292969 25.375 50.269531 25.402344 47.246094 25.355469 C 46.535156 25.34375 46.125 25.707031 45.757812 26.15625 C 45.464844 26.523438 45.171875 26.613281 44.714844 26.609375 C 43.207031 26.585938 43.179688 26.601562 42.046875 27.445312 C 41.707031 27.695312 41.433594 27.835938 40.976562 27.824219 C 39.566406 27.773438 38.15625 27.804688 36.8125 27.804688 C 36.15625 28.324219 35.796875 29.183594 34.804688 29.027344 C 34.394531 28.964844 34.085938 29.1875 33.8125 29.558594 C 33.089844 30.542969 31.585938 30.113281 30.859375 31.257812 C 30.195312 32.300781 29.214844 33.011719 27.828125 32.667969 C 27.382812 32.554688 27.003906 32.65625 26.753906 32.988281 C 26.234375 33.679688 25.585938 34.054688 24.695312 33.886719 C 24.253906 34.292969 23.820312 34.695312 23.378906 35.101562 C 21.976562 34.578125 21.53125 36.460938 20.242188 36.335938 C 19.199219 36.226562 18.914062 37.644531 17.710938 37.597656 C 16.679688 37.5625 16.238281 38.824219 15.460938 39.410156 C 14.617188 40.039062 14.328125 40.894531 14.128906 41.902344 C 13.988281 42.597656 13.113281 42.28125 12.5625 42.414062 C 12.09375 42.53125 11.925781 42.90625 12.078125 43.191406 C 12.164062 43.363281 12.367188 43.46875 12.496094 43.625 C 13.253906 44.574219 13.386719 45.046875 12.808594 45.675781 C 12.25 46.285156 11.855469 46.824219 11.808594 47.722656 C 11.785156 48.191406 11.09375 48.625 10.65625 49.125 C 10.65625 51.066406 10.648438 53.082031 10.671875 55.101562 C 10.671875 55.25 10.894531 55.429688 11.054688 55.53125 C 11.15625 55.597656 11.398438 55.601562 11.46875 55.53125 C 13.625 53.394531 15.792969 51.277344 17.894531 49.085938 C 18.554688 48.402344 19.289062 48.480469 20.070312 48.445312 C 20.449219 48.429688 20.988281 48.445312 21.167969 48.222656 C 21.875 47.332031 22.761719 47.109375 23.816406 47.238281 C 24.015625 47.257812 24.277344 47.320312 24.410156 47.226562 C 24.890625 46.886719 25.28125 46.410156 25.789062 46.132812 C 26.101562 45.960938 26.628906 46.171875 26.9375 45.992188 C 27.445312 45.703125 27.84375 45.234375 28.324219 44.8125 L 35.570312 44.8125 C 36.234375 44.078125 36.886719 43.414062 38.082031 43.558594 C 39.277344 43.703125 40.496094 43.589844 41.644531 43.589844 C 42.304688 43.078125 42.652344 42.335938 43.640625 42.355469 C 47.0625 42.414062 50.492188 42.375 53.8125 42.375 C 54.488281 41.769531 54.90625 41.027344 55.875 41.144531 C 56.472656 41.21875 57.097656 41.21875 57.691406 41.144531 C 59.203125 40.972656 60.957031 41.851562 62.140625 40.152344 C 62.230469 40.023438 62.472656 39.953125 62.652344 39.945312 C 63.460938 39.921875 64.273438 39.878906 65.078125 39.945312 C 66.59375 40.078125 68.347656 39.292969 69.484375 41.003906 C 70.476562 41.054688 71.46875 41.160156 72.457031 41.128906 C 73.136719 41.105469 73.605469 41.382812 73.972656 41.863281 C 74.257812 42.230469 74.554688 42.394531 74.988281 42.371094 C 75.59375 42.335938 76.214844 42.441406 76.804688 42.34375 C 77.96875 42.148438 78.6875 42.753906 79.324219 43.574219 C 80.757812 43.574219 82.167969 43.609375 83.582031 43.558594 C 84.042969 43.542969 84.429688 43.558594 84.617188 43.988281 C 85.113281 45.113281 86.53125 44.417969 87.121094 45.273438 C 87.644531 46.03125 88.441406 46 89.199219 46.128906 C 89.847656 46.996094 90.671875 47.375 91.78125 47.238281 C 92.960938 47.089844 94.179688 47.441406 95.34375 47.03125 C 95.792969 46.867188 95.917969 46.46875 95.773438 46.003906 C 96.234375 45.859375 96.523438 46.054688 96.824219 46.421875 C 97.1875 46.867188 97.578125 47.382812 98.308594 47.226562 C 98.738281 47.136719 99.023438 47.363281 99.328125 47.710938 C 99.859375 48.316406 100.441406 48.886719 101.042969 49.425781 C 101.273438 49.632812 101.558594 49.386719 101.910156 49.019531 C 102.421875 48.472656 103.089844 48.597656 103.035156 49.199219 C 102.917969 50.441406 103.816406 50.953125 104.476562 51.65625 C 104.878906 52.085938 104.890625 52.070312 106.117188 52.085938 C 114.84375 60.8125 123.585938 69.542969 132.296875 78.289062 C 132.789062 78.777344 133.316406 78.761719 133.898438 78.867188 C 134.199219 78.921875 134.597656 79.320312 134.65625 79.621094 C 134.765625 80.195312 134.714844 80.746094 135.230469 81.21875 C 136.277344 82.171875 137.25 83.203125 138.238281 84.222656 C 138.351562 84.335938 138.371094 84.609375 138.328125 84.78125 C 138.027344 85.980469 139.75 86.175781 139.558594 87.316406 C 139.386719 88.332031 140.265625 88.792969 140.851562 89.171875 C 141.984375 89.914062 141.746094 91.308594 142.542969 92.148438 C 143.097656 92.734375 143.929688 93.203125 144.195312 93.894531 C 144.542969 94.804688 144.660156 95.777344 145.546875 96.375 C 145.460938 97.472656 146.023438 98.238281 146.832031 98.878906 C 146.566406 100.070312 147.40625 100.6875 148.113281 101.386719 C 149.273438 102.515625 150.40625 103.671875 151.554688 104.820312 C 151.519531 106.152344 152.390625 106.960938 153.277344 107.746094 C 153.371094 107.828125 153.59375 107.890625 153.695312 107.839844 C 153.867188 107.75 154.101562 107.578125 154.113281 107.425781 C 154.1875 106.289062 154.601562 105.042969 155.359375 103.6875 C 155.1875 102.789062 155.613281 102.183594 156.265625 101.625 C 156.792969 101.179688 156.546875 100.515625 156.570312 99.9375 C 156.585938 99.339844 156.570312 98.773438 157.121094 98.332031 C 157.414062 98.101562 157.722656 97.734375 157.761719 97.398438 C 157.859375 96.601562 157.796875 95.785156 157.792969 94.976562 C 157.785156 93.789062 157.558594 92.527344 158.84375 91.769531 C 158.898438 91.1875 159.023438 90.601562 158.988281 90.019531 C 158.949219 89.347656 159.21875 88.867188 159.707031 88.492188 C 160.078125 88.214844 160.242188 87.914062 160.234375 87.488281 C 160.210938 86.683594 160.289062 85.863281 160.210938 85.066406 C 160.136719 84.347656 160.542969 83.945312 160.996094 83.566406 C 161.78125 82.902344 161.1875 81.625 162.253906 81.019531 C 163.09375 80.546875 162.558594 79.542969 162.644531 78.785156 C 162.710938 78.191406 162.65625 77.585938 162.65625 76.984375 C 163.539062 76.335938 164.066406 75.574219 163.890625 74.425781 C 163.792969 73.839844 163.851562 73.253906 164.40625 72.816406 C 164.695312 72.585938 165.035156 72.21875 165.058594 71.890625 C 165.136719 70.714844 164.847656 69.449219 166.136719 68.679688 C 166.191406 68.09375 166.320312 67.507812 166.292969 66.929688 C 166.257812 66.261719 166.503906 65.769531 167 65.394531 C 167.367188 65.117188 167.5625 64.816406 167.523438 64.394531 C 167.40625 63.148438 167.484375 61.980469 168.703125 61.238281 C 168.453125 60.066406 169.273438 59.425781 169.953125 58.71875 C 169.78125 57.828125 170.164062 57.191406 170.84375 56.65625 C 171.496094 56.136719 170.902344 55.117188 171.691406 54.566406 C 172.34375 54.109375 172.863281 53.457031 173.421875 52.867188 C 173.535156 52.742188 173.625 52.5 173.59375 52.34375 C 173.292969 51.144531 174.859375 50.847656 174.808594 49.804688 C 174.785156 49.355469 174.839844 49.015625 175.140625 48.71875 C 176.152344 47.726562 177.136719 46.707031 178.15625 45.71875 C 178.757812 45.140625 178.179688 44.148438 179 43.625 C 179.496094 43.300781 179.867188 42.789062 180.296875 42.355469 C 180.871094 41.78125 181.441406 41.210938 182.015625 40.636719 C 181.882812 38.703125 183.59375 38.007812 184.601562 36.859375 C 185.53125 35.800781 186.578125 34.835938 187.554688 33.847656 L 190.019531 33.847656 C 191.023438 32.84375 192.023438 31.84375 193.027344 30.839844 C 192.632812 30.402344 192.210938 29.984375 191.847656 29.523438 C 191.625 29.238281 192.003906 28.035156 192.308594 27.90625 C 193.164062 27.542969 194.085938 27.804688 194.242188 28.546875 C 194.359375 29.117188 194.1875 29.808594 194.835938 30.089844 C 194.984375 30.160156 195.449219 29.695312 195.660156 29.402344 C 196.109375 28.757812 196.757812 29.089844 197.316406 28.964844 C 197.480469 28.925781 197.644531 28.714844 197.734375 28.546875 C 197.78125 28.449219 197.734375 28.242188 197.65625 28.128906 C 197.414062 27.765625 197.046875 27.671875 196.589844 27.765625 C 196.160156 27.855469 195.808594 27.671875 195.59375 27.265625 C 195.363281 26.84375 195.480469 25.957031 195.816406 25.621094 C 196.097656 25.335938 196.417969 25.074219 196.667969 24.757812 C 196.984375 24.351562 197.253906 24.183594 197.53125 24.351562 C 197.921875 24.585938 197.933594 24.945312 197.945312 25.402344 C 197.960938 26.191406 198.953125 26.886719 199.539062 26.542969 C 200.039062 26.246094 200.402344 25.710938 200.910156 25.433594 C 201.394531 25.171875 202.074219 25.527344 202.546875 24.984375 C 203.082031 24.378906 203.722656 23.867188 204.25 23.253906 C 204.8125 22.582031 205.863281 23.269531 206.339844 22.40625 C 206.789062 21.589844 207.691406 21.785156 208.402344 21.53125 C 208.847656 21.367188 208.984375 20.96875 208.863281 20.523438 C 208.742188 20.058594 208.863281 19.703125 209.265625 19.472656 C 209.539062 19.324219 209.84375 19.472656 210.117188 19.914062 C 210.417969 20.386719 210.691406 20.484375 210.980469 20.1875 C 211.265625 19.898438 211.535156 19.585938 211.84375 19.335938 C 212.234375 19.023438 212.441406 18.738281 212.320312 18.46875 C 212.117188 18.035156 211.75 17.90625 211.289062 18.046875 C 210.824219 18.1875 210.46875 18.046875 210.269531 17.605469 C 210.21875 17.5 210.269531 17.285156 210.351562 17.1875 C 211.144531 16.308594 211.933594 15.410156 213.277344 15.464844 C 213.917969 14.5625 214.789062 14.300781 215.875 14.375 C 216.644531 14.425781 217.691406 14.769531 218.164062 14.144531 C 219.269531 12.691406 220.722656 13.28125 222.050781 13.214844 C 222.726562 13.179688 223.195312 12.9375 223.5625 12.457031 C 223.84375 12.089844 224.140625 11.9375 224.582031 11.953125 C 225.390625 11.988281 226.203125 11.921875 227.011719 11.984375 C 227.472656 12.015625 227.753906 11.871094 228.09375 11.625 C 229.332031 10.71875 229.351562 10.726562 230.761719 10.75 C 230.625 11.207031 230.742188 11.660156 231.179688 11.753906 C 232.910156 12.109375 234.660156 12.039062 236.398438 11.804688 C 238.148438 9.746094 240.488281 11.140625 242.527344 10.785156 C 243.492188 10.613281 244.511719 10.746094 245.503906 10.761719 C 245.917969 10.765625 246.335938 10.644531 246.4375 10.222656 C 246.476562 10.054688 245.988281 9.574219 245.746094 9.570312 C 241.964844 9.523438 238.1875 9.542969 234.40625 9.542969 C 234.261719 9.078125 234.40625 8.726562 234.835938 8.503906 C 235.738281 8.035156 236.871094 8.734375 237.679688 8.054688 C 238.304688 7.523438 238.816406 7.070312 239.730469 7.089844 C 243.578125 7.144531 247.429688 7.140625 251.28125 7.101562 C 252.523438 7.089844 253.699219 7.066406 254.433594 8.296875 C 255.609375 8.070312 256.296875 8.816406 256.929688 9.589844 C 257.589844 10.398438 258.375 10.902344 259.445312 10.875 C 260.371094 11.613281 260.90625 12.992188 262.136719 13.136719 C 263.570312 13.304688 264.066406 14.453125 264.945312 15.1875 C 265.722656 15.835938 266.382812 16.609375 267.109375 17.320312 C 267.972656 18.175781 268.847656 19.015625 269.652344 19.796875 C 269.734375 20.476562 269.488281 21.085938 270.101562 21.5625 C 270.738281 22.058594 271.304688 22.65625 271.8125 23.28125 C 272.03125 23.546875 272.109375 24.011719 272.082031 24.367188 C 271.992188 25.433594 272.28125 26.246094 273.089844 27.019531 C 273.589844 27.5 273.179688 28.574219 273.980469 29.0625 C 274.589844 29.429688 274.386719 30.109375 274.578125 30.636719 C 274.765625 31.15625 275.519531 31.492188 275.652344 32.003906 C 275.855469 32.757812 275.738281 33.597656 275.75 34.398438 C 275.753906 34.808594 275.75 35.207031 275.75 35.644531 C 276.429688 36.328125 277.121094 36.949219 277.003906 38.152344 C 276.847656 39.75 276.964844 41.382812 276.964844 42.949219 C 277.453125 43.601562 278.234375 43.9375 278.207031 44.933594 C 278.152344 46.742188 278.246094 48.550781 278.277344 50.363281 C 280.480469 52.34375 278.957031 54.929688 279.386719 57.195312 C 279.707031 58.886719 278.726562 60.832031 280.417969 62.246094 C 280.542969 62.351562 280.601562 62.59375 280.601562 62.765625 C 280.613281 67.832031 280.609375 72.890625 280.609375 77.960938 C 279.917969 78.894531 279.148438 79.753906 279.359375 81.109375 C 279.515625 82.09375 279.40625 83.132812 279.378906 84.140625 C 279.378906 84.300781 279.222656 84.519531 279.070312 84.609375 C 278.035156 85.261719 278.09375 86.28125 278.191406 87.285156 C 278.234375 87.753906 278.128906 88.046875 277.800781 88.355469 C 277.382812 88.746094 276.863281 89.0625 276.9375 89.824219 C 277.03125 90.824219 276.957031 91.84375 276.957031 92.859375 C 276.101562 93.5 275.542969 94.246094 275.726562 95.398438 C 275.820312 95.980469 275.796875 96.582031 275.214844 97.011719 C 274.710938 97.378906 274.496094 97.875 274.503906 98.542969 C 274.523438 99.53125 274.410156 100.523438 274.347656 101.507812 C 273.128906 102.105469 273.621094 103.714844 272.628906 104.441406 C 272.046875 104.863281 272.242188 105.511719 272.046875 106.027344 C 271.851562 106.546875 271.222656 106.886719 270.9375 107.394531 C 270.765625 107.707031 270.804688 108.195312 270.886719 108.574219 C 271.15625 109.773438 270.332031 110.398438 269.640625 111.132812 L 269.640625 114.710938 C 269.144531 115.34375 268.324219 115.695312 268.425781 116.691406 C 268.515625 117.589844 267.25 117.828125 267.257812 118.613281 C 267.277344 119.554688 266.652344 119.996094 266.210938 120.636719 C 265.800781 121.238281 266.140625 122.230469 265.320312 122.683594 C 264.460938 123.15625 265.101562 124.199219 264.46875 124.765625 C 263.867188 125.308594 263.347656 125.945312 262.734375 126.46875 C 262.171875 126.945312 262.445312 127.570312 262.316406 128.121094 C 261.082031 128.714844 261.433594 130.261719 260.582031 131.042969 C 259.683594 131.863281 260.097656 133.394531 258.875 133.992188 C 258.777344 134.996094 258.480469 135.898438 257.589844 136.496094 C 257.550781 137.292969 257.511719 138.089844 257.464844 138.980469 C 257.121094 139.347656 256.707031 139.78125 256.300781 140.21875 C 255.890625 140.652344 255.480469 141.09375 255.070312 141.535156 C 255.410156 142.738281 254.207031 143.210938 253.894531 144.082031 C 253.703125 144.609375 253.808594 145.195312 253.308594 145.675781 C 251.835938 147.066406 250.359375 148.46875 249.023438 149.976562 C 248.128906 150.988281 246.703125 151.527344 246.515625 153.195312 C 246.375 154.453125 244.992188 154.964844 244.269531 155.898438 C 244.179688 157.960938 242.355469 158.777344 241.253906 160.117188 C 240.621094 160.878906 239.925781 161.59375 239.261719 162.335938 C 239.492188 163.566406 238.472656 164.066406 237.820312 164.769531 C 237.128906 165.511719 236.390625 166.207031 235.679688 166.921875 C 235.953125 168.394531 234.746094 169.011719 233.949219 169.847656 C 232.976562 170.878906 231.949219 171.859375 230.945312 172.863281 C 230.089844 173.722656 229.21875 174.574219 228.371094 175.445312 C 227.535156 176.308594 226.714844 177.1875 225.890625 178.058594 C 226.121094 179.824219 224.410156 180.28125 223.644531 181.378906 C 223.613281 183.203125 222.078125 184.015625 221.0625 185.175781 C 221.296875 187.136719 219.292969 187.65625 218.59375 189.015625 C 218.929688 190.214844 217.710938 190.671875 217.378906 191.550781 C 217.746094 192.902344 215.785156 193.347656 216.164062 194.695312 C 215.507812 195.4375 214.90625 196.238281 214.167969 196.898438 C 213.601562 197.40625 213.925781 198.046875 213.691406 198.535156 C 213.441406 199.054688 212.875 199.410156 212.46875 199.855469 C 212.070312 200.292969 211.6875 200.75 211.300781 201.195312 C 211.632812 202.394531 210.375 202.832031 210.089844 203.730469 C 209.972656 204.09375 210.074219 204.578125 209.867188 204.84375 C 209.371094 205.476562 208.8125 206.105469 208.15625 206.558594 C 207.351562 207.109375 208.003906 208.140625 207.308594 208.652344 C 206.601562 209.175781 206.28125 209.835938 206.410156 210.726562 C 206.429688 210.847656 206.15625 211.011719 206.019531 211.160156 C 205.113281 212.160156 203.8125 212.878906 203.832031 214.527344 C 203.832031 214.8125 203.273438 215.078125 203.015625 215.390625 C 202.527344 215.992188 201.617188 216.332031 201.59375 217.21875 C 201.578125 217.894531 201.304688 218.328125 200.863281 218.753906 C 200.28125 219.316406 199.71875 219.894531 199.144531 220.46875 C 199.425781 222.449219 197.316406 222.910156 196.703125 224.320312 C 196.90625 225.8125 195.640625 226.378906 194.789062 227.117188 C 194.4375 227.425781 193.414062 226.921875 193.242188 227.636719 C 193.007812 228.625 192.777344 229.519531 191.90625 230.128906 C 192.042969 231.253906 191.390625 231.960938 190.625 232.640625 C 190.179688 233.039062 189.8125 233.511719 189.40625 233.953125 C 189.878906 235.339844 188.046875 235.78125 188.152344 237.09375 C 188.234375 238.070312 186.652344 238.425781 186.957031 239.632812 C 186.992188 239.777344 186.871094 240.015625 186.746094 240.136719 C 184.605469 242.296875 182.472656 244.457031 180.28125 246.566406 C 180.070312 246.769531 179.445312 246.726562 179.117188 246.578125 C 178.820312 246.4375 178.503906 245.992188 178.492188 245.671875 C 178.457031 244.476562 178.609375 243.277344 177.386719 242.457031 C 177.042969 242.222656 177.226562 241.164062 177.550781 240.835938 C 178.257812 240.117188 178.984375 239.410156 179.664062 238.667969 C 179.761719 238.554688 179.703125 238.269531 179.671875 238.070312 C 179.539062 237.085938 180.695312 236.882812 180.867188 236.136719 C 181 235.574219 180.832031 234.964844 181.40625 234.519531 C 181.703125 234.292969 182.015625 233.941406 182.082031 233.601562 C 182.226562 232.832031 182.097656 231.996094 182.320312 231.257812 C 182.476562 230.753906 183.300781 230.507812 183.300781 229.855469 C 183.300781 229.199219 183.582031 228.769531 183.980469 228.300781 C 184.722656 227.429688 186.089844 226.929688 185.777344 225.390625 C 185.753906 225.273438 185.988281 225.054688 186.152344 224.957031 C 186.792969 224.554688 187.734375 224.90625 188.230469 224.089844 C 188.585938 223.5 189.214844 223.585938 189.800781 223.484375 C 190.554688 223.355469 190.925781 222.21875 190.503906 221.589844 C 190.28125 221.261719 189.90625 221.03125 189.660156 220.714844 C 189.265625 220.203125 189.332031 219.628906 189.582031 219.074219 C 189.789062 218.636719 190.152344 218.5 190.613281 218.640625 C 190.480469 219.085938 190.609375 219.4375 191.015625 219.644531 C 191.441406 219.859375 191.714844 219.515625 191.832031 218.640625 C 192.28125 218.773438 192.628906 218.640625 192.84375 218.234375 C 193.128906 217.699219 193.128906 217.15625 192.84375 216.621094 C 192.628906 216.210938 192.28125 216.078125 191.832031 216.214844 Z M 12.5 97.09375 C 12.660156 97.148438 12.992188 97.160156 13.019531 97.09375 C 13.175781 96.703125 13.019531 96.410156 12.710938 96.152344 C 12.421875 95.90625 12.175781 95.941406 11.953125 96.390625 C 11.914062 96.46875 12.019531 96.660156 12.105469 96.765625 C 12.214844 96.898438 12.351562 97.039062 14.128906 97.839844 C 13.984375 97.578125 13.820312 97.25 13.574219 97.128906 C 13.070312 96.875 12.816406 97.128906 13.0625 97.640625 C 13.1875 97.886719 13.507812 98.046875 13.777344 98.191406 C 13.820312 98.214844 14.148438 97.886719 12.503906 97.097656 Z M 186.890625 213.144531 C 186.949219 212.984375 186.957031 212.65625 186.890625 212.625 C 186.5 212.46875 186.207031 212.625 185.949219 212.933594 C 185.703125 213.222656 185.738281 213.46875 186.1875 213.691406 C 186.265625 213.730469 186.457031 213.625 186.5625 213.539062 C 186.695312 213.429688 186.835938 213.296875 187.636719 211.523438 C 187.375 211.667969 187.046875 211.828125 186.925781 212.074219 C 186.675781 212.582031 186.925781 212.832031 187.4375 212.585938 C 187.683594 212.464844 187.84375 212.140625 187.988281 211.875 C 188.011719 211.828125 187.683594 211.5 186.898438 213.144531 Z M 49.375 167.140625 C 49.230469 166.878906 49.070312 166.546875 48.824219 166.425781 C 48.316406 166.175781 48.066406 166.425781 48.3125 166.9375 C 48.433594 167.183594 48.757812 167.34375 49.023438 167.492188 C 49.070312 167.511719 49.398438 167.183594 48.292969 166.410156 C 48.292969 165.863281 48.394531 165.289062 48.265625 164.769531 C 48.140625 164.253906 47.742188 163.84375 47.078125 163.980469 C 47.078125 162.914062 46.792969 162.019531 46.222656 161.296875 C 46.097656 161.148438 45.898438 161.003906 45.875 160.839844 C 45.808594 160.261719 46 159.621094 45.363281 159.230469 C 44.570312 158.746094 44.683594 157.890625 44.503906 157.15625 C 43.289062 156.554688 43.683594 155.027344 42.800781 154.21875 C 41.929688 153.433594 42.230469 151.984375 41.109375 151.25 C 40.742188 151.007812 41.121094 150.167969 40.667969 149.636719 C 39.753906 148.5625 39.792969 148.527344 39.785156 147.585938 C 39.773438 146.542969 39.816406 146.5 38.917969 145.523438 C 38.433594 144.996094 38.820312 144.242188 38.472656 143.898438 C 37.738281 143.167969 37.429688 142.351562 37.152344 141.378906 C 36.96875 140.71875 36.105469 140.335938 36.089844 139.382812 C 36.070312 138.441406 34.582031 138.050781 34.917969 136.851562 C 34.539062 135.992188 33.378906 135.523438 33.679688 134.316406 C 33.707031 134.191406 33.472656 134.007812 33.363281 133.851562 C 32.785156 133.070312 32.492188 132.382812 32.480469 131.789062 C 32.464844 130.703125 32.515625 130.660156 31.628906 129.726562 C 31.128906 129.199219 31.449219 128.5625 31.195312 128.078125 C 30.925781 127.570312 30.285156 127.230469 30.097656 126.710938 C 29.90625 126.1875 30.113281 125.507812 29.503906 125.136719 C 28.703125 124.644531 29.054688 123.667969 28.625 123.078125 C 28.164062 122.449219 27.570312 121.992188 27.582031 121.054688 C 27.59375 120.273438 26.328125 120.039062 26.417969 119.132812 C 26.519531 118.140625 25.691406 117.789062 25.21875 117.191406 C 25.453125 116.015625 24.660156 115.382812 23.9375 114.683594 C 23.515625 114.277344 23.144531 113.804688 22.757812 113.359375 C 23.019531 111.847656 21.625 111.378906 20.917969 110.488281 C 20.839844 110.386719 20.527344 110.476562 19.789062 110.460938 C 19.953125 110.515625 20.28125 110.527344 20.308594 110.460938 C 20.464844 110.070312 20.308594 109.773438 20.003906 109.519531 C 19.710938 109.273438 19.46875 109.304688 19.246094 109.757812 C 19.207031 109.835938 19.3125 110.023438 19.394531 110.128906 C 19.507812 110.265625 19.640625 110.402344 20.332031 110.472656 C 20.332031 110.878906 20.386719 111.289062 20.316406 111.679688 C 20.230469 112.152344 20.375 112.433594 20.742188 112.734375 C 21.191406 113.101562 21.652344 113.480469 21.558594 114.214844 C 21.429688 115.226562 21.453125 116.210938 22.460938 116.875 C 22.792969 117.09375 22.792969 117.511719 22.773438 117.957031 C 22.726562 118.765625 22.761719 119.574219 22.757812 120.382812 C 22.757812 120.789062 22.941406 121.109375 23.320312 121.363281 C 24.117188 121.902344 24.003906 122.734375 23.964844 123.519531 C 23.933594 124.15625 24.109375 124.652344 24.589844 125.089844 C 24.855469 125.335938 25.15625 125.726562 25.15625 126.050781 C 25.15625 127.265625 25.117188 128.40625 26.285156 129.265625 C 26.65625 129.539062 26.183594 130.441406 26.746094 130.863281 C 27.453125 131.394531 27.789062 132.050781 27.617188 132.933594 C 28.023438 133.375 28.425781 133.8125 28.832031 134.25 C 28.660156 135.144531 29.054688 135.777344 29.734375 136.304688 C 30.0625 136.554688 30.109375 136.933594 30.050781 137.386719 C 29.917969 138.421875 30.113281 139.296875 30.988281 140.054688 C 31.339844 140.363281 31.171875 141.214844 31.484375 141.632812 C 31.953125 142.261719 32.449219 142.75 32.539062 143.652344 C 32.628906 144.542969 34.03125 144.988281 33.695312 146.1875 C 34.09375 146.628906 34.476562 147.085938 34.890625 147.515625 C 35.449219 148.097656 35.949219 148.789062 36.625 149.203125 C 37.632812 149.820312 37.011719 151.113281 37.882812 151.738281 C 38.875 152.453125 38.382812 154.058594 39.59375 154.675781 C 39.710938 154.738281 39.792969 155.03125 39.765625 155.195312 C 39.5 156.515625 41.4375 156.960938 40.992188 158.332031 C 41.390625 158.777344 41.761719 159.242188 42.179688 159.660156 C 43.601562 161.097656 45.035156 162.53125 46.484375 163.941406 C 46.589844 164.039062 46.875 163.949219 47.078125 163.949219 C 47.078125 164.496094 46.980469 165.070312 47.109375 165.589844 C 47.234375 166.109375 47.632812 166.515625 49.375 167.117188 Z M 27.804688 63.066406 C 27.460938 63.148438 27.109375 63.207031 26.78125 63.328125 C 26.640625 63.378906 26.453125 63.671875 26.472656 63.703125 C 26.714844 63.992188 26.992188 64.246094 27.257812 64.519531 C 27.386719 64.65625 27.515625 64.789062 27.632812 64.933594 C 28.230469 65.664062 28.324219 65.679688 28.613281 65.128906 C 29.171875 64.074219 28.796875 63.121094 27.632812 66.632812 C 27.632812 66.445312 27.589844 66.242188 27.636719 66.070312 C 27.804688 65.496094 27.628906 65.296875 27.070312 65.511719 C 26.910156 65.574219 26.769531 65.734375 26.65625 65.878906 C 26.550781 66.015625 26.457031 66.183594 26.421875 66.34375 C 26.289062 66.933594 26.578125 67.753906 26.917969 67.832031 C 27.265625 67.910156 27.605469 67.339844 27.8125 63.070312 Z M 269.582031 98.097656 C 269.574219 97.917969 269.59375 97.144531 269.449219 96.402344 C 269.371094 95.988281 268.925781 95.902344 268.519531 95.882812 C 267.871094 95.863281 267.164062 96.222656 267.152344 96.632812 C 267.136719 97.210938 267.152344 97.796875 267.152344 98.375 C 267.152344 98.777344 267.625 99.433594 268.570312 100.34375 C 268.707031 100.476562 268.84375 100.617188 268.980469 100.75 C 269.183594 100.445312 269.472656 100.164062 269.566406 99.832031 C 269.667969 99.472656 269.589844 99.0625 267.148438 100.074219 C 267.203125 99.914062 267.214844 99.585938 267.148438 99.558594 C 266.757812 99.402344 266.460938 99.558594 266.207031 99.863281 C 265.960938 100.152344 265.996094 100.398438 266.445312 100.621094 C 266.523438 100.660156 266.714844 100.554688 266.820312 100.472656 C 266.953125 100.359375 267.09375 100.226562 269.59375 98.085938 Z M 262.972656 110.402344 C 263.535156 109.839844 264.09375 109.285156 264.65625 108.71875 C 265.714844 107.660156 265.878906 107.660156 265.894531 106.871094 C 265.910156 105.882812 266.757812 105.628906 267.136719 104.984375 C 267.226562 104.839844 267.148438 104.597656 267.148438 104.402344 C 265.542969 104.519531 266.195312 103.050781 265.722656 102.378906 C 265.617188 102.226562 265.429688 102 265.308594 102.015625 C 265.152344 102.039062 264.96875 102.242188 264.894531 102.410156 C 264.59375 103.078125 264.851562 103.960938 264.066406 104.449219 C 263.492188 104.808594 263.425781 105.410156 263.507812 105.996094 C 263.671875 107.082031 263.230469 107.84375 262.445312 108.546875 C 262.230469 108.738281 262.226562 109.300781 262.316406 109.644531 C 262.386719 109.9375 262.738281 110.152344 267.863281 102.070312 C 267.726562 102.136719 267.570312 102.175781 267.464844 102.265625 C 266.957031 102.699219 267.253906 103.308594 267.136719 103.828125 C 267.003906 104.40625 267.152344 104.601562 267.710938 104.382812 C 267.871094 104.324219 268.035156 104.171875 268.117188 104.015625 C 268.546875 103.257812 268.390625 102.183594 262.96875 110.394531 Z M 253.644531 133.101562 C 253.5 132.839844 253.335938 132.507812 253.089844 132.386719 C 252.585938 132.136719 252.332031 132.386719 252.578125 132.898438 C 252.699219 133.144531 253.023438 133.304688 253.292969 133.453125 C 253.335938 133.472656 253.664062 133.144531 252.5625 132.371094 C 252.5625 131.15625 252.5625 129.941406 253.292969 127.644531 C 253.03125 127.789062 252.699219 127.949219 252.578125 128.195312 C 252.328125 128.703125 252.578125 128.953125 253.089844 128.707031 C 253.335938 128.585938 253.5 128.261719 253.644531 127.996094 C 253.664062 127.949219 253.335938 127.621094 252.5625 128.726562 C 252.105469 128.585938 251.675781 128.703125 251.558594 129.148438 C 251.308594 130.074219 251.167969 130.992188 250.292969 131.628906 C 249.300781 132.351562 248.582031 133.265625 248.917969 134.636719 C 249.023438 135.078125 248.917969 135.429688 248.621094 135.714844 C 248.050781 136.273438 247.5625 136.941406 246.910156 137.382812 C 246.101562 137.925781 246.910156 138.980469 246.097656 139.460938 C 245.027344 140.085938 245.265625 141.136719 245.253906 142.640625 C 245.308594 142.480469 245.320312 142.152344 245.253906 142.125 C 244.863281 141.96875 244.570312 142.125 244.3125 142.429688 C 244.066406 142.71875 244.101562 142.964844 244.550781 143.1875 C 244.628906 143.226562 244.820312 143.121094 244.925781 143.039062 C 245.058594 142.925781 245.199219 142.792969 245.265625 142.101562 C 246.84375 141.253906 248.167969 140.015625 248.910156 138.703125 C 248.742188 137.78125 249.523438 137.390625 249.9375 136.777344 C 250.328125 136.1875 249.96875 135.246094 250.753906 134.785156 C 251.554688 134.320312 251.167969 133.394531 251.546875 132.769531 C 251.785156 132.382812 252.109375 132.242188 253.636719 133.105469 Z M 159.523438 117.8125 C 158.699219 118.375 159.023438 119.234375 158.929688 119.996094 C 158.84375 120.675781 159.261719 121.0625 159.625 121.539062 C 160.210938 122.308594 161.347656 122.628906 161.378906 123.847656 C 161.417969 125.253906 162.859375 125.636719 163.511719 126.605469 C 163.617188 126.761719 163.742188 126.917969 163.789062 127.097656 C 163.839844 127.285156 163.816406 127.503906 163.792969 127.699219 C 163.675781 128.746094 163.882812 129.628906 164.773438 130.351562 C 165.214844 130.710938 165.109375 131.523438 164.808594 131.972656 C 164.550781 132.359375 164.222656 132.425781 163.753906 132.386719 C 162.757812 132.296875 161.753906 132.226562 161.070312 133.25 C 160.800781 133.652344 159.691406 133.71875 159.441406 133.480469 C 158.863281 132.917969 158.210938 132.398438 157.742188 131.746094 C 157.183594 130.976562 156.265625 131.367188 155.644531 130.902344 C 155.070312 130.476562 155.496094 129.71875 155.1875 129.28125 C 154.726562 128.628906 154.140625 128.023438 153.484375 127.566406 C 152.558594 126.925781 153.121094 125.691406 152.234375 125.007812 C 151.277344 124.269531 150.515625 123.296875 149.625 122.464844 C 148.882812 121.773438 149.410156 120.570312 148.371094 119.90625 C 147.375 119.265625 146.617188 118.242188 145.769531 117.371094 C 145.644531 117.25 145.546875 117.019531 145.566406 116.859375 C 145.730469 115.621094 144.765625 115.003906 144.011719 114.488281 C 142.886719 113.730469 143.449219 112.210938 142.339844 111.484375 C 141.675781 111.050781 141.164062 110.375 140.613281 109.789062 C 140.210938 109.363281 139.855469 108.894531 139.476562 108.441406 C 139.804688 107.242188 138.390625 106.851562 138.289062 105.90625 C 138.222656 105.269531 138.105469 104.742188 137.59375 104.367188 C 137.023438 103.949219 136.863281 103.308594 137.066406 102.777344 C 137.714844 101.128906 135.285156 100.570312 135.824219 99.015625 C 134.976562 97.75 133.136719 97.144531 133.285156 95.199219 C 133.292969 95.066406 133.015625 94.914062 132.875 94.769531 C 132.164062 94.054688 131.445312 93.335938 130.730469 92.625 C 129.871094 91.765625 129.003906 90.914062 128.15625 90.042969 C 127.457031 89.328125 126.785156 88.589844 126.105469 87.859375 C 126.378906 86.34375 125.023438 85.835938 124.265625 84.980469 C 123.835938 84.492188 123.761719 83.988281 123.636719 83.40625 C 123.441406 82.492188 122.128906 82.066406 122.4375 80.859375 C 122.46875 80.734375 122.253906 80.539062 122.136719 80.390625 C 121.328125 79.332031 119.75 78.757812 119.988281 77.023438 C 118.84375 75.875 117.585938 74.816406 116.585938 73.554688 C 115.777344 72.542969 114.339844 73.019531 113.574219 71.894531 C 112.90625 70.910156 111.929688 70.109375 111.015625 69.3125 C 110.777344 69.101562 110.226562 69.292969 109.886719 69.136719 C 109.03125 68.746094 108.542969 67.597656 107.34375 67.9375 C 106.902344 67.53125 106.46875 67.117188 106.027344 66.710938 C 105.59375 66.304688 105.160156 65.890625 104.707031 65.46875 L 102.347656 65.46875 C 101.734375 64.855469 101.179688 64.265625 100.582031 63.71875 C 100.304688 63.460938 99.914062 63.070312 99.640625 63.117188 C 98.300781 63.351562 97.863281 61.4375 96.492188 61.863281 C 95.609375 61.054688 94.742188 60.230469 93.84375 59.441406 C 93.726562 59.34375 93.441406 59.394531 93.246094 59.4375 C 92.785156 59.542969 92.5 59.363281 92.199219 58.992188 C 91.832031 58.535156 91.429688 58.121094 90.707031 58.195312 C 89.652344 58.300781 89.378906 56.71875 88.164062 56.957031 C 87.890625 57.011719 87.484375 56.644531 87.210938 56.394531 C 86.609375 55.847656 86.058594 55.257812 85.484375 54.683594 C 84.425781 54.683594 83.683594 54.160156 82.941406 53.429688 C 82.59375 53.089844 81.84375 53.484375 81.3125 52.984375 C 80.378906 52.097656 80.332031 52.148438 79.246094 52.128906 C 79.046875 52.128906 78.832031 52.097656 78.636719 52.136719 C 78.179688 52.234375 77.863281 52.085938 77.601562 51.679688 C 77.101562 50.898438 76.324219 50.847656 75.496094 50.902344 C 74.910156 50.941406 74.289062 51 73.882812 50.390625 C 73.773438 50.222656 73.617188 50.085938 73.453125 49.960938 C 73.304688 49.851562 73.125 49.710938 72.957031 49.707031 C 72.152344 49.679688 71.335938 49.695312 70.527344 49.695312 C 69.515625 49.695312 68.472656 49.84375 67.503906 49.644531 C 66.804688 49.5 66.207031 48.886719 65.5625 48.480469 C 62.929688 48.480469 60.296875 48.480469 57.664062 48.492188 C 57.492188 48.492188 57.25 48.589844 57.164062 48.726562 C 56.183594 50.28125 54.625 49.59375 53.304688 49.679688 C 51.894531 49.765625 50.472656 49.6875 49.054688 49.710938 C 48.890625 49.710938 48.65625 49.863281 48.585938 50.007812 C 47.976562 51.242188 46.378906 50.621094 45.601562 51.695312 C 44.90625 52.671875 43.949219 53.46875 43.039062 54.277344 C 42.789062 54.5 42.285156 54.617188 41.957031 54.53125 C 40.585938 54.191406 39.855469 55.386719 38.792969 55.726562 C 38.222656 55.902344 37.699219 55.992188 37.253906 56.4375 C 35.261719 58.457031 33.25 60.453125 31.25 62.453125 C 31.160156 63.019531 31.472656 63.664062 30.828125 64.113281 C 30.507812 64.335938 30.148438 64.65625 30.058594 64.996094 C 29.914062 65.546875 30.164062 66.210938 29.527344 66.601562 C 28.738281 67.085938 29.066406 68.128906 28.621094 68.632812 C 27.910156 69.4375 27.558594 70.179688 27.566406 71.269531 C 27.617188 78.152344 27.59375 85.042969 27.589844 91.925781 C 27.589844 93.121094 27.375 94.363281 28.640625 95.148438 C 28.757812 95.222656 28.804688 95.5 28.796875 95.679688 C 28.742188 96.898438 28.742188 98.035156 29.90625 98.894531 C 30.273438 99.167969 29.902344 99.988281 30.347656 100.511719 C 31.261719 101.585938 31.351562 101.640625 31.199219 102.5625 C 31.003906 103.777344 31.808594 104.367188 32.449219 105.070312 C 32.449219 106.113281 32.472656 107.125 32.4375 108.140625 C 32.421875 108.582031 32.539062 108.90625 32.9375 109.15625 C 34.015625 109.835938 33.441406 111.457031 34.640625 112.121094 C 34.855469 112.238281 34.851562 112.828125 34.875 113.207031 C 34.90625 113.816406 34.855469 114.421875 34.890625 115.03125 C 34.914062 115.410156 34.882812 115.957031 35.105469 116.132812 C 36 116.839844 36.15625 117.726562 36.117188 118.78125 C 36.082031 119.734375 35.769531 120.808594 36.796875 121.527344 C 37.664062 122.136719 36.980469 123.535156 38.082031 124.042969 C 38.257812 124.121094 38.511719 124.339844 38.496094 124.460938 C 38.390625 125.335938 38.636719 126.03125 39.375 126.539062 C 39.746094 126.789062 39.800781 127.140625 39.753906 127.605469 C 39.648438 128.613281 39.648438 129.605469 40.660156 130.269531 C 40.992188 130.484375 41.027344 130.902344 40.964844 131.355469 C 40.824219 132.398438 41.027344 133.296875 41.941406 133.996094 C 42.574219 134.484375 43.117188 135.113281 43.667969 135.703125 C 44.058594 136.121094 44.707031 136.40625 44.605469 137.128906 C 44.464844 138.132812 45.640625 138.40625 45.753906 139.070312 C 45.886719 139.898438 45.941406 140.625 46.683594 141.132812 C 47.417969 141.632812 46.71875 142.679688 47.527344 143.234375 C 48.183594 143.683594 48.734375 144.316406 49.238281 144.945312 C 49.449219 145.210938 49.382812 145.679688 49.476562 146.054688 C 49.714844 146.972656 51.019531 147.390625 50.6875 148.589844 C 51.292969 150.003906 53.40625 150.460938 53.121094 152.441406 C 54.308594 153.789062 56.136719 154.710938 56.6875 156.425781 C 57.296875 158.320312 58.945312 159.136719 60 160.527344 C 60.121094 160.691406 60.414062 160.839844 60.394531 160.964844 C 60.265625 161.851562 60.597656 162.484375 61.277344 163.046875 C 62.191406 163.800781 63.046875 164.632812 63.003906 165.96875 C 63.96875 166.53125 63.867188 167.640625 64.332031 168.453125 C 64.984375 169.609375 66.710938 170.078125 66.5 171.816406 C 67.050781 172.394531 67.613281 172.96875 68.160156 173.558594 C 68.828125 174.289062 69.484375 175.039062 70.148438 175.773438 C 69.972656 176.703125 70.574219 177.238281 71.167969 177.78125 C 71.207031 179.066406 71.972656 179.9375 72.886719 180.714844 C 73.042969 180.84375 73.175781 181 73.316406 181.144531 C 73.460938 181.289062 73.648438 181.40625 73.734375 181.582031 C 73.8125 181.746094 73.804688 181.972656 73.789062 182.160156 C 73.683594 183.414062 75.527344 183.886719 75.03125 185.292969 C 75.746094 186.007812 76.492188 186.703125 77.171875 187.449219 C 77.820312 188.15625 78.566406 188.683594 78.738281 189.859375 C 78.90625 191.015625 80.25 191.640625 81.050781 192.515625 C 81.730469 193.261719 82.460938 193.972656 83.199219 194.664062 C 83.617188 195.050781 83.898438 195.699219 84.628906 195.597656 C 85.632812 195.460938 86 196.304688 86.546875 196.832031 C 88.152344 198.375 89.707031 199.96875 91.285156 201.546875 C 91.667969 201.589844 92.058594 201.683594 92.445312 201.675781 C 93.257812 201.644531 93.949219 201.71875 94.597656 202.386719 C 97.554688 205.4375 100.582031 208.425781 103.570312 211.421875 C 104.011719 211.421875 104.554688 211.253906 104.789062 211.449219 C 105.710938 212.238281 106.496094 213.183594 107.40625 213.988281 C 108.289062 214.761719 108.824219 216.085938 110.101562 216.234375 C 111.523438 216.390625 112.035156 217.554688 112.878906 218.324219 C 113.429688 218.824219 114.085938 218.472656 114.523438 218.757812 C 115.183594 219.191406 115.691406 219.867188 116.265625 220.441406 C 116.839844 221.015625 117.371094 221.640625 118.003906 222.136719 C 118.269531 222.339844 118.757812 222.242188 119.121094 222.359375 C 120.019531 222.640625 120.453125 223.886719 121.664062 223.585938 C 121.785156 223.550781 121.980469 223.773438 122.136719 223.878906 C 123.019531 224.484375 123.707031 224.785156 124.191406 224.78125 C 125 224.777344 125.816406 224.78125 126.652344 224.78125 C 127.332031 225.460938 127.953125 226.238281 129.160156 226.019531 C 129.90625 225.886719 129.957031 225.957031 131.203125 226.902344 C 131.765625 227.324219 132.332031 227.179688 132.90625 227.207031 C 133.496094 227.242188 134.089844 227.152344 134.515625 227.738281 C 134.878906 228.238281 135.375 228.535156 136.042969 228.433594 C 137.101562 228.277344 138.003906 228.535156 138.667969 229.453125 C 138.757812 229.578125 139.023438 229.671875 139.179688 229.636719 C 140.507812 229.359375 140.953125 231.304688 142.324219 230.863281 C 142.914062 231.398438 143.5 231.933594 144.089844 232.46875 C 144.242188 232.609375 144.378906 232.753906 144.519531 232.898438 C 145.210938 233.605469 146.550781 233.042969 147.039062 234.179688 C 147.105469 234.332031 147.335938 234.476562 147.503906 234.496094 C 147.902344 234.542969 148.308594 234.496094 148.71875 234.515625 C 149.105469 234.53125 149.738281 234.441406 149.847656 234.636719 C 150.535156 235.800781 152.039062 235.441406 152.8125 236.335938 C 153.25 236.84375 153.765625 236.957031 154.390625 236.949219 C 154.972656 236.945312 155.695312 236.703125 156.085938 237.207031 C 156.804688 238.125 157.714844 238.238281 158.75 238.164062 C 159.351562 238.121094 159.964844 238.160156 160.410156 238.160156 C 162.339844 236.230469 164.191406 234.378906 166.203125 232.375 C 166.203125 232.28125 166.035156 231.726562 166.230469 231.492188 C 167.015625 230.574219 167.820312 229.609375 168.804688 228.929688 C 169.910156 228.167969 169.597656 226.761719 170.488281 225.949219 C 171.53125 224.988281 172.539062 223.984375 173.5 222.945312 C 174.535156 221.8125 176.089844 221.007812 176.085938 219.160156 C 178.230469 217.011719 180.382812 214.863281 182.527344 212.714844 C 184.136719 212.945312 184.253906 211.839844 184.671875 210.664062 C 185.109375 209.445312 187.09375 209.097656 186.871094 207.324219 C 187.542969 206.59375 188.207031 205.847656 188.898438 205.128906 C 189.746094 204.253906 190.726562 203.492188 191.433594 202.519531 C 191.976562 201.785156 191.953125 200.78125 192.734375 200.011719 C 199.941406 192.902344 207.074219 185.722656 214.207031 178.582031 C 215.734375 178.546875 215.996094 178.542969 215.988281 177.59375 C 215.96875 176.285156 217.6875 175.84375 217.308594 174.441406 C 217.253906 174.222656 217.777344 173.855469 218.03125 173.554688 C 218.789062 172.683594 220.027344 172.09375 219.75 170.621094 C 220.601562 170.003906 220.832031 169.113281 221.101562 168.136719 C 221.292969 167.472656 222.144531 167.089844 222.167969 166.140625 C 222.191406 165.203125 223.671875 164.804688 223.339844 163.605469 C 223.730469 162.753906 224.894531 162.273438 224.554688 161.070312 C 224.953125 160.628906 225.324219 160.148438 225.761719 159.753906 C 226.515625 159.066406 227.199219 158.378906 227.046875 157.238281 C 227.902344 156.628906 228.304688 155.773438 228.332031 154.738281 C 229.269531 154.164062 229.351562 153.160156 229.640625 152.242188 C 229.816406 151.6875 230.089844 151.839844 230.5 152.269531 C 231.46875 153.277344 231.609375 153.226562 231.816406 151.933594 C 231.882812 151.511719 231.910156 151.179688 232.183594 150.859375 C 233.070312 149.804688 233.046875 149.789062 233.058594 148.796875 C 233.070312 147.816406 233.042969 147.796875 233.929688 146.734375 C 234.203125 146.40625 234.339844 146.121094 234.289062 145.65625 C 234.230469 145.066406 234.273438 144.464844 234.273438 143.929688 C 235.546875 142.648438 236.355469 141.128906 236.710938 139.375 C 236.75 139.199219 236.800781 138.9375 236.921875 138.867188 C 238.316406 138.167969 237.578125 136.144531 239.050781 135.472656 C 239.398438 135.320312 239.597656 134.867188 239.925781 134.644531 C 240.582031 134.199219 240.144531 133.492188 240.378906 133.003906 C 240.707031 132.332031 241.6875 132.070312 241.570312 131.058594 C 241.449219 129.984375 243.09375 129.722656 242.789062 128.523438 C 242.75 128.363281 242.820312 128.113281 242.929688 127.988281 C 243.480469 127.398438 244.011719 126.761719 244.652344 126.277344 C 245.515625 125.625 244.875 124.277344 245.929688 123.753906 C 246.816406 123.316406 246.101562 122.246094 246.777344 121.664062 C 247.527344 121.011719 248.167969 120.226562 248.859375 119.5 C 248.859375 119.09375 248.855469 118.691406 248.859375 118.285156 C 248.882812 117.488281 248.777344 116.652344 248.984375 115.898438 C 249.121094 115.386719 249.695312 114.984375 250.074219 114.535156 C 249.746094 113.335938 251.230469 112.929688 251.25 111.996094 C 251.28125 110.527344 252.523438 110.050781 253.246094 109.167969 C 253.753906 108.542969 254.394531 108.03125 254.949219 107.488281 L 254.949219 105.007812 C 256.167969 103.816406 256.164062 103.808594 256.164062 102.46875 C 256.164062 102.070312 256.078125 101.589844 256.269531 101.300781 C 256.691406 100.667969 257.433594 100.296875 257.40625 99.324219 C 257.382812 98.449219 258.253906 97.996094 258.835938 97.515625 C 259.730469 96.789062 259.941406 95.902344 259.796875 94.863281 C 259.65625 93.878906 260.472656 93.503906 261.015625 92.839844 C 261.015625 91.300781 261.117188 89.679688 260.984375 88.082031 C 260.882812 86.90625 261.46875 86.226562 262.230469 85.566406 C 261.269531 84.546875 261.308594 84.570312 261.941406 83.394531 C 262.203125 82.910156 262.113281 82.210938 262.421875 81.78125 C 262.867188 81.148438 263.515625 80.71875 263.46875 79.765625 C 263.386719 77.949219 263.429688 76.121094 263.457031 74.296875 C 263.457031 73.921875 263.476562 73.359375 263.699219 73.210938 C 265.226562 72.191406 264.59375 70.65625 264.640625 69.335938 C 264.722656 66.910156 264.710938 64.476562 264.640625 62.046875 C 264.613281 61.058594 265.332031 60.679688 265.839844 60.066406 C 265.460938 59.648438 265.070312 59.21875 264.703125 58.8125 C 265.074219 58.394531 265.453125 57.972656 265.832031 57.554688 C 265.28125 56.941406 264.5 56.523438 264.664062 55.550781 C 264.695312 55.359375 264.664062 55.144531 264.664062 54.945312 C 264.664062 53.527344 264.679688 52.109375 264.65625 50.691406 C 264.644531 50.019531 263.960938 49.773438 263.664062 49.28125 C 263.230469 48.5625 263.484375 47.726562 263.457031 46.941406 C 263.425781 45.933594 263.46875 44.917969 263.441406 43.902344 C 263.429688 43.53125 263.425781 42.949219 263.203125 42.816406 C 262.210938 42.214844 262.433594 41.070312 261.925781 40.28125 C 261.027344 38.882812 261.007812 38.898438 261.015625 38.222656 C 261.027344 37.414062 261.015625 36.601562 261.015625 35.765625 C 260.621094 35.347656 260.046875 34.972656 259.847656 34.460938 C 259.640625 33.933594 259.800781 33.261719 259.800781 32.65625 L 259.800781 32.070312 C 258.351562 30.625 256.929688 29.183594 255.488281 27.761719 C 255.070312 27.347656 254.597656 26.980469 254.148438 26.597656 C 252.953125 26.929688 252.535156 25.578125 251.609375 25.414062 C 251.007812 25.308594 250.40625 25.308594 250.066406 24.746094 C 249.570312 23.925781 248.53125 24.449219 247.992188 23.882812 C 247.417969 23.273438 246.847656 22.902344 245.941406 22.929688 C 243.308594 22.996094 240.671875 22.996094 238.042969 22.929688 C 237.039062 22.902344 236.714844 23.699219 236.085938 24.160156 L 226.292969 24.160156 C 225.761719 25.015625 225.015625 25.59375 223.855469 25.398438 C 223.472656 25.332031 222.882812 25.257812 222.699219 25.464844 C 222 26.246094 221.214844 26.71875 220.160156 26.726562 C 219.515625 27.605469 218.671875 27.972656 217.574219 27.835938 C 217.214844 27.789062 216.601562 27.824219 216.484375 28.035156 C 215.808594 29.214844 214.238281 28.726562 213.507812 29.730469 C 213.390625 29.890625 213.207031 30.160156 213.082031 30.140625 C 211.640625 29.964844 211 31.089844 210.144531 31.878906 C 209.957031 33.074219 209.777344 34.277344 208.070312 33.953125 C 207.496094 34.527344 206.824219 35.03125 206.378906 35.6875 C 205.742188 36.625 204.570312 36.144531 203.820312 36.929688 C 200.453125 40.429688 196.984375 43.84375 193.53125 47.257812 C 193.054688 47.726562 193.035156 48.257812 192.898438 48.832031 C 192.6875 49.738281 191.382812 50.175781 191.71875 51.371094 C 191.324219 51.816406 190.9375 52.265625 190.53125 52.703125 C 190.125 53.144531 189.679688 53.558594 189.300781 54.023438 C 189.199219 54.148438 189.261719 54.421875 189.289062 54.621094 C 189.4375 55.738281 187.765625 55.960938 188.058594 57.15625 C 188.15625 57.558594 187.824219 57.828125 187.542969 58.160156 C 186.8125 59.042969 185.453125 59.515625 185.636719 61.007812 C 185.125 61.605469 184.625 62.21875 184.089844 62.792969 C 183.535156 63.382812 182.996094 64.007812 182.359375 64.5 C 181.628906 65.054688 182.347656 66.066406 181.53125 66.617188 C 180.871094 67.0625 180.214844 67.652344 179.835938 68.332031 C 179.378906 69.148438 179.363281 70.128906 178.554688 70.863281 C 178.070312 71.304688 178.464844 72.429688 177.644531 72.882812 C 176.785156 73.355469 177.476562 74.449219 176.785156 74.953125 C 176.078125 75.480469 175.738281 76.140625 175.910156 77.023438 C 175.503906 77.464844 175.101562 77.902344 174.695312 78.34375 C 174.871094 79.242188 174.46875 79.871094 173.789062 80.398438 C 173.464844 80.652344 173.410156 81.035156 173.46875 81.488281 C 173.527344 81.894531 173.296875 82.207031 172.929688 82.480469 C 172.421875 82.859375 172.25 83.371094 172.226562 84.023438 C 172.214844 84.347656 171.835938 84.660156 171.636719 84.980469 C 171.4375 85.300781 171.078125 85.628906 171.074219 85.953125 C 171.074219 87.167969 171.113281 88.308594 169.949219 89.167969 C 169.574219 89.441406 170.046875 90.347656 169.484375 90.765625 C 168.777344 91.296875 168.449219 91.953125 168.617188 92.839844 C 167.867188 93.515625 167.167969 94.210938 167.34375 95.347656 C 166.492188 95.96875 166.074219 96.808594 166.058594 97.851562 C 165.121094 98.425781 164.976562 99.40625 164.769531 100.355469 C 163.753906 100.890625 163.996094 102.097656 163.441406 102.828125 C 162.953125 103.480469 162.351562 103.992188 162.539062 104.898438 C 162.785156 106.054688 162.140625 106.78125 161.332031 107.410156 C 161.332031 108.246094 161.203125 109.078125 161.347656 109.859375 C 161.574219 111.078125 160.71875 111.652344 160.105469 112.398438 L 160.105469 115.957031 C 161.363281 117.292969 161.359375 117.289062 161.324219 117.972656 C 161.308594 118.378906 161.152344 118.730469 160.746094 118.933594 C 160.679688 118.964844 160.460938 118.738281 160.328125 118.613281 C 160.039062 118.351562 159.753906 118.078125 159.46875 117.816406 Z M 13.050781 60.046875 C 14.277344 61.355469 14.199219 61.355469 14.273438 62.609375 C 14.324219 63.527344 13.910156 64.097656 13.292969 64.648438 C 13.03125 64.882812 13.273438 65.132812 13.621094 65.511719 C 14.421875 66.398438 14.535156 66.945312 13.976562 67.554688 C 13.425781 68.160156 12.953125 68.679688 13.007812 69.605469 C 13.097656 71.015625 13.089844 72.441406 13.007812 73.851562 C 12.945312 74.84375 13.730469 75.195312 14.246094 75.851562 C 14.246094 77.207031 14.277344 78.617188 14.226562 80.027344 C 14.210938 80.488281 14.355469 80.757812 14.613281 81.097656 C 15.476562 82.222656 15.441406 82.246094 15.460938 83.171875 C 15.476562 84 15.460938 84.019531 16.363281 85.222656 C 16.609375 85.550781 16.734375 85.855469 16.6875 86.3125 C 16.613281 87.023438 17.320312 87.261719 17.617188 87.746094 C 17.800781 88.054688 17.800781 88.476562 17.890625 88.84375 C 17.933594 89.027344 17.972656 89.222656 18.066406 89.375 C 18.175781 89.542969 18.347656 89.664062 18.492188 89.808594 C 18.699219 89.492188 19.078125 89.171875 19.078125 88.855469 C 19.117188 84.808594 19.097656 80.757812 19.117188 76.710938 C 19.117188 76.335938 19.148438 75.875 19.367188 75.613281 C 19.839844 75.042969 20.585938 74.6875 19.601562 73.851562 C 18.855469 73.214844 18.90625 71.296875 19.484375 70.589844 C 19.847656 70.144531 20.410156 69.878906 20.34375 69.113281 C 20.246094 68.117188 20.320312 67.097656 20.320312 66.222656 C 21.179688 65.238281 21.964844 64.34375 22.75 63.445312 C 22.367188 62.089844 24.328125 61.648438 23.964844 60.308594 C 24.277344 59.421875 25.515625 58.976562 25.179688 57.777344 C 25.570312 57.332031 25.9375 56.863281 26.355469 56.445312 C 27.921875 54.863281 29.503906 53.296875 31.066406 51.707031 C 31.128906 51.644531 31.082031 51.398438 31.003906 51.292969 C 30.894531 51.144531 30.722656 50.953125 30.558594 50.941406 C 30.167969 50.910156 29.589844 50.808594 29.40625 51.019531 C 28.714844 51.8125 27.90625 52.242188 26.871094 52.28125 C 26.226562 53.171875 25.371094 53.53125 24.277344 53.363281 C 23.648438 53.265625 23.144531 53.507812 22.707031 53.980469 C 22.460938 54.25 22.042969 54.578125 21.746094 54.539062 C 20.429688 54.359375 19.992188 56.261719 18.601562 55.785156 C 18.164062 56.1875 17.722656 56.59375 17.28125 56.996094 C 16.859375 57.386719 16.441406 57.78125 16.023438 58.179688 C 15.703125 57.859375 15.421875 57.574219 15.136719 57.292969 C 14.847656 57 14.300781 57.109375 14.328125 57.570312 C 14.394531 58.71875 13.753906 59.382812 13.039062 60.054688 Z M 257.4375 125.074219 C 257.632812 125.074219 257.855469 125.128906 258.023438 125.058594 C 258.191406 124.992188 258.347656 124.816406 258.4375 124.652344 C 258.582031 124.378906 258.425781 123.992188 257.972656 123.875 C 256.519531 123.496094 256.507812 123.535156 255.96875 123.015625 C 255.839844 122.894531 255.6875 122.792969 255.554688 122.683594 C 255.367188 123 255.058594 123.296875 255.015625 123.628906 C 254.875 124.601562 255.308594 125.058594 256.261719 125.070312 C 256.660156 125.070312 257.046875 125.070312 257.445312 125.070312 Z M 268.972656 92.25 C 268.832031 92.390625 268.652344 92.507812 268.5625 92.667969 C 268.273438 93.191406 268.273438 93.738281 268.5625 94.261719 C 268.652344 94.429688 268.832031 94.542969 268.972656 94.679688 C 269.171875 94.375 269.476562 94.089844 269.554688 93.753906 C 269.707031 93.125 269.304688 92.25 268.972656 92.25 Z M 238.988281 157.484375 C 238.976562 157.347656 239.015625 157.171875 238.949219 157.074219 C 238.542969 156.464844 237.21875 156.488281 236.949219 157.101562 C 236.898438 157.210938 236.910156 157.40625 236.976562 157.507812 C 237.378906 158.132812 238.707031 158.105469 238.984375 157.484375 Z M 50.523438 169.246094 C 50.390625 169.113281 50.179688 168.839844 50.128906 168.863281 C 49.703125 169.09375 49.558594 169.390625 49.714844 169.648438 C 49.816406 169.804688 50.054688 170.058594 50.101562 170.039062 C 50.523438 169.804688 50.652344 169.519531 50.519531 169.246094 Z M 21.140625 96.097656 C 20.871094 95.960938 20.582031 96.085938 20.347656 96.515625 C 20.320312 96.558594 20.578125 96.804688 20.738281 96.898438 C 20.996094 97.058594 21.289062 96.914062 21.523438 96.484375 C 21.550781 96.441406 21.273438 96.230469 21.140625 96.089844 Z M 270.59375 90.222656 C 270.460938 90.085938 270.246094 89.816406 270.195312 89.835938 C 269.773438 90.070312 269.628906 90.367188 269.785156 90.621094 C 269.886719 90.777344 270.125 91.035156 270.167969 91.011719 C 270.59375 90.777344 270.722656 90.496094 270.585938 90.222656 Z M 188.320312 35.917969 C 188.453125 36.050781 188.664062 36.324219 188.714844 36.300781 C 189.136719 36.066406 189.28125 35.769531 189.125 35.515625 C 189.027344 35.359375 188.785156 35.101562 188.742188 35.125 C 188.320312 35.359375 188.191406 35.644531 188.324219 35.917969 Z M 31.679688 28.820312 C 31.945312 28.953125 32.238281 28.832031 32.472656 28.402344 C 32.5 28.359375 32.242188 28.113281 32.082031 28.019531 C 31.824219 27.855469 31.527344 28 31.292969 28.429688 C 31.265625 28.476562 31.546875 28.6875 31.679688 28.828125 Z M 213.859375 17.273438 C 213.722656 17.539062 213.847656 17.828125 214.277344 18.0625 C 214.320312 18.089844 214.566406 17.835938 214.660156 17.671875 C 214.820312 17.417969 214.675781 17.121094 214.246094 16.886719 C 214.203125 16.859375 213.992188 17.136719 213.851562 17.273438 Z M 253.574219 16.464844 C 253.710938 16.195312 253.585938 15.90625 253.15625 15.671875 C 253.113281 15.644531 252.867188 15.902344 252.773438 16.0625 C 252.613281 16.320312 252.757812 16.613281 253.1875 16.847656 C 253.230469 16.875 253.441406 16.597656 253.582031 16.464844 Z M 253.574219 16.464844 " fill-opacity="1" fill-rule="nonzero"/></g><path fill="#c2940e" d="M 85.316406 38.6875 C 84.832031 38.203125 84.441406 37.734375 83.96875 37.367188 C 83.59375 37.070312 83.386719 36.769531 83.578125 36.328125 C 83.609375 36.257812 83.957031 36.316406 84.15625 36.316406 C 84.757812 36.316406 85.371094 36.367188 85.96875 36.300781 C 86.4375 36.246094 86.792969 36.3125 87 36.734375 C 87.132812 37.003906 86.9375 37.28125 86.542969 37.59375 C 86.113281 37.933594 85.71875 38.324219 85.308594 38.691406 Z M 85.316406 38.6875 " fill-opacity="1" fill-rule="nonzero"/><path fill="#c2940e" d="M 90.851562 41.183594 C 91.027344 41.183594 91.285156 41.105469 91.378906 41.195312 C 92.03125 41.800781 92.660156 42.433594 93.269531 43.085938 C 93.359375 43.179688 93.28125 43.433594 93.28125 43.613281 C 92.90625 43.613281 92.527344 43.621094 92.15625 43.613281 C 91.179688 43.597656 90.867188 43.285156 90.851562 42.308594 C 90.84375 41.9375 90.851562 41.558594 90.851562 41.183594 Z M 90.851562 41.183594 " fill-opacity="1" fill-rule="nonzero"/><path fill="#c2940e" d="M 190.554688 218.683594 C 190.554688 218.140625 190.453125 217.566406 190.582031 217.046875 C 190.710938 216.527344 191.105469 216.121094 191.769531 216.253906 L 191.769531 218.683594 Z M 190.554688 218.683594 " fill-opacity="1" fill-rule="nonzero"/><g clip-path="url(#7bdc01051f)"><path fill="#c2940e" d="M 142.117188 253.539062 C 141.984375 253.269531 142.105469 252.980469 142.535156 252.746094 C 142.582031 252.71875 142.824219 252.976562 142.921875 253.136719 C 143.082031 253.394531 142.9375 253.6875 142.507812 253.921875 C 142.464844 253.949219 142.25 253.671875 142.113281 253.539062 Z M 142.117188 253.539062 " fill-opacity="1" fill-rule="nonzero"/></g><path fill="#c2940e" d="M 140.296875 250.5 C 140.429688 250.632812 140.703125 250.847656 140.679688 250.894531 C 140.445312 251.320312 140.148438 251.464844 139.894531 251.308594 C 139.738281 251.207031 139.480469 250.96875 139.503906 250.921875 C 139.738281 250.5 140.023438 250.371094 140.296875 250.503906 Z M 140.296875 250.5 " fill-opacity="1" fill-rule="nonzero"/><path fill="#c2940e" d="M 129.554688 246.242188 C 129.421875 246.375 129.207031 246.648438 129.160156 246.625 C 128.734375 246.390625 128.589844 246.097656 128.746094 245.839844 C 128.847656 245.683594 129.085938 245.429688 129.132812 245.449219 C 129.554688 245.683594 129.683594 245.96875 129.550781 246.242188 Z M 129.554688 246.242188 " fill-opacity="1" fill-rule="nonzero"/><path fill="#c2940e" d="M 123.546875 242.519531 C 123.566406 242.5625 123.238281 242.890625 123.195312 242.871094 C 122.933594 242.726562 122.605469 242.5625 122.480469 242.316406 C 122.230469 241.8125 122.480469 241.558594 122.996094 241.804688 C 123.238281 241.929688 123.402344 242.25 123.546875 242.519531 Z M 123.546875 242.519531 " fill-opacity="1" fill-rule="nonzero"/><path fill="#c2940e" d="M 107.671875 232.871094 C 107.539062 233.003906 107.328125 233.277344 107.277344 233.253906 C 106.851562 233.019531 106.707031 232.726562 106.863281 232.46875 C 106.964844 232.3125 107.203125 232.058594 107.25 232.078125 C 107.671875 232.3125 107.800781 232.597656 107.667969 232.871094 Z M 107.671875 232.871094 " fill-opacity="1" fill-rule="nonzero"/><path fill="#c2940e" d="M 100.167969 223.75 C 100.304688 223.886719 100.578125 224.097656 100.554688 224.148438 C 100.320312 224.570312 100.023438 224.714844 99.769531 224.558594 C 99.613281 224.460938 99.355469 224.21875 99.378906 224.175781 C 99.613281 223.75 99.898438 223.625 100.167969 223.757812 Z M 100.167969 223.75 " fill-opacity="1" fill-rule="nonzero"/><path fill="#c2940e" d="M 95.714844 46.042969 C 94.746094 45.882812 94.65625 45.796875 94.5 44.828125 C 95.472656 44.992188 95.558594 45.074219 95.714844 46.042969 Z M 95.714844 46.042969 " fill-opacity="1" fill-rule="nonzero"/><path fill="#c2940e" d="M 94.496094 44.828125 C 93.527344 44.667969 93.4375 44.582031 93.28125 43.613281 C 94.25 43.773438 94.339844 43.859375 94.496094 44.828125 Z M 94.496094 44.828125 " fill-opacity="1" fill-rule="nonzero"/><path fill="#c2940e" d="M 90.851562 41.183594 C 89.878906 41.023438 89.792969 40.9375 89.636719 39.96875 C 90.605469 40.128906 90.695312 40.214844 90.851562 41.183594 Z M 90.851562 41.183594 " fill-opacity="1" fill-rule="nonzero"/><path fill="#c2940e" d="M 89.09375 39.957031 C 88.9375 39.902344 88.804688 39.761719 88.691406 39.628906 C 88.609375 39.527344 88.5 39.339844 88.542969 39.253906 C 88.769531 38.804688 89.015625 38.769531 89.300781 39.015625 C 89.609375 39.277344 89.761719 39.566406 89.609375 39.957031 C 89.585938 40.019531 89.25 40.007812 89.089844 39.957031 Z M 89.09375 39.957031 " fill-opacity="1" fill-rule="nonzero"/><path fill="#c2940e" d="M 83.019531 36.304688 C 82.863281 36.25 82.730469 36.113281 82.617188 35.976562 C 82.535156 35.878906 82.421875 35.6875 82.46875 35.605469 C 82.695312 35.152344 82.941406 35.121094 83.226562 35.363281 C 83.53125 35.625 83.6875 35.917969 83.53125 36.304688 C 83.507812 36.367188 83.175781 36.355469 83.015625 36.304688 Z M 83.019531 36.304688 " fill-opacity="1" fill-rule="nonzero"/><path fill="#c2940e" d="M 204.125 20.917969 C 204.257812 20.785156 204.472656 20.511719 204.523438 20.53125 C 204.945312 20.765625 205.089844 21.0625 204.933594 21.320312 C 204.832031 21.476562 204.59375 21.730469 204.550781 21.707031 C 204.125 21.476562 203.996094 21.191406 204.132812 20.917969 Z M 204.125 20.917969 " fill-opacity="1" fill-rule="nonzero"/><g clip-path="url(#c2df7d380f)"><path stroke-linecap="butt" transform="matrix(0.748311, 0, 0, 0.748311, 347.70573, 314.616407)" fill="none" stroke-linejoin="miter" d="M 0.00173834 2.000338 L 52.797733 2.000338 " stroke="#ffffff" stroke-width="4" stroke-opacity="1" stroke-miterlimit="4"/></g></svg>