<svg xmlns="http://www.w3.org/2000/svg" xmlns:xlink="http://www.w3.org/1999/xlink" width="248" zoomAndPan="magnify" viewBox="0 0 186 255.749984" height="341" preserveAspectRatio="xMidYMid meet" version="1.0"><defs><clipPath id="0dfb976b6e"><path d="M 86 0 L 162.683594 0 L 162.683594 92 L 86 92 Z M 86 0 " clip-rule="nonzero"/></clipPath><clipPath id="0e11bcf8ba"><path d="M 0.0898438 99 L 61 99 L 61 196 L 0.0898438 196 Z M 0.0898438 99 " clip-rule="nonzero"/></clipPath><clipPath id="fabebfdf21"><path d="M 161 245 L 185.90625 245 L 185.90625 249 L 161 249 Z M 161 245 " clip-rule="nonzero"/></clipPath></defs><path fill="#bf920e" d="M 128.960938 70.621094 C 128.738281 70.429688 128.523438 70.359375 128.328125 70.359375 C 127.671875 70.359375 127.253906 71.242188 127.710938 71.917969 C 128.050781 74.230469 128.582031 76.507812 128.9375 78.816406 C 129.367188 82 129.09375 85.207031 129.222656 88.402344 C 129.636719 92.835938 129.085938 97.207031 128.523438 101.59375 C 128.339844 107.355469 128.851562 113.324219 131.011719 118.71875 C 132.097656 121.449219 133.441406 124.0625 134.761719 126.6875 C 135.078125 127.316406 135.835938 127.976562 136.59375 127.675781 C 137.328125 127.382812 137.320312 126.445312 137.035156 125.835938 C 136.011719 123.550781 134.925781 121.582031 133.996094 119.21875 C 132.777344 115.839844 132.871094 112.199219 132.347656 108.683594 C 131.863281 105.140625 130.933594 101.613281 131.410156 98.019531 C 132.234375 88.894531 133.453125 78.980469 128.960938 70.632812 Z M 128.960938 70.621094 " fill-opacity="1" fill-rule="nonzero"/><path fill="#bf920e" d="M 136.128906 65.601562 C 135.738281 65.246094 135.214844 64.769531 134.652344 64.769531 C 134.625 64.769531 134.605469 64.769531 134.578125 64.769531 C 133.984375 64.769531 133.746094 65.496094 133.945312 65.980469 C 134.558594 67.230469 135.777344 68.082031 136.648438 69.160156 C 138.683594 71.367188 140.273438 73.90625 142.023438 76.34375 C 143.894531 78.824219 145.519531 81.507812 146.296875 84.546875 C 147.070312 87.472656 146.914062 90.492188 146.964844 93.488281 C 147.089844 97.3125 147.03125 101.148438 146.554688 104.945312 C 146.113281 110.554688 143.070312 115.425781 141.617188 120.769531 C 139.789062 127.722656 138.90625 134.949219 138.894531 142.125 C 134.847656 137.378906 130.238281 133.101562 126.492188 128.09375 C 124.445312 125.136719 123.0625 121.796875 121.707031 118.476562 C 120.289062 114.757812 118.796875 111.015625 118.1875 107.058594 C 117.949219 105.070312 117.976562 103.066406 117.957031 101.070312 C 117.800781 95.132812 117.746094 89.070312 119.402344 83.300781 C 120.078125 81.179688 121.015625 79.171875 122.054688 77.207031 C 122.972656 75.25 124.203125 73.339844 124.28125 71.113281 C 124.476562 69.824219 122.433594 68.414062 121.878906 70.03125 C 121.484375 71.753906 120.785156 73.382812 120.109375 75.007812 C 119.0625 77.824219 118.046875 80.652344 117.113281 83.503906 C 116.433594 85.59375 115.796875 87.703125 115.34375 89.855469 C 114.363281 94.496094 114.566406 99.296875 115.011719 103.996094 C 115.273438 106.652344 115.980469 109.226562 116.570312 111.820312 C 117.113281 114.164062 117.667969 116.5 118.574219 118.738281 C 120.3125 123.238281 123.332031 127 126.683594 130.40625 C 130.152344 134.511719 132.949219 139.402344 136.816406 143.203125 C 137.949219 144.363281 139.109375 145.484375 140.175781 146.695312 C 140.503906 147.242188 141.542969 148.25 142.035156 147.367188 C 142.285156 146.511719 141.703125 145.769531 141.230469 145.0625 C 140.796875 143.421875 140.554688 141.71875 140.785156 140.023438 C 141.144531 135.453125 143.253906 131.308594 144.757812 127.039062 C 146.519531 121.855469 147.894531 116.539062 149.203125 111.222656 C 149.949219 108.296875 150.597656 105.34375 151.03125 102.351562 C 151.679688 97.3125 150.734375 92.207031 149.386719 87.355469 C 147.082031 79.074219 142.375 71.5 136.136719 65.605469 Z M 136.128906 65.601562 " fill-opacity="1" fill-rule="nonzero"/><g clip-path="url(#0dfb976b6e)"><path fill="#bf920e" d="M 161.925781 0.570312 C 161.6875 0.449219 161.433594 0.390625 161.179688 0.390625 C 160.863281 0.390625 160.542969 0.480469 160.25 0.632812 C 158.375 0.957031 158.207031 3.558594 157.269531 4.957031 C 155.429688 9.011719 153.125 12.886719 150.597656 16.613281 C 148.734375 19.394531 146.625 21.984375 144.351562 24.441406 C 144.695312 23.609375 144.457031 22.371094 143.515625 22.167969 C 143.023438 22.058594 142.546875 22.011719 142.070312 22.011719 C 139.089844 22.011719 136.40625 23.964844 133.792969 25.257812 C 128.308594 28.035156 123.167969 31.460938 117.054688 32.8125 C 115.738281 32.5 115.34375 34.59375 116.222656 35.289062 C 117.804688 35.871094 119.980469 34.863281 121.605469 34.445312 C 127.699219 32.402344 132.777344 28.429688 138.316406 25.324219 C 139.726562 24.585938 141.519531 24.5 143.003906 25.167969 C 143.273438 25.238281 143.503906 25.226562 143.707031 25.148438 C 142.859375 26.039062 141.996094 26.910156 141.113281 27.761719 C 137.230469 31.570312 133.746094 35.773438 129.746094 39.472656 C 124.515625 44.414062 118.023438 47.636719 112.535156 52.246094 C 102.734375 61.21875 92.640625 70.59375 88.472656 83.609375 C 88.175781 85.160156 83.738281 92.324219 87.847656 91.191406 C 90.128906 89.285156 90.859375 85.363281 92.1875 82.699219 C 97.664062 68.492188 108.890625 59.113281 121.347656 51.117188 C 125.085938 48.792969 128.144531 45.625 131.496094 42.8125 C 130.121094 45.664062 128.804688 48.546875 127.410156 51.386719 C 126.675781 53.042969 126.003906 54.734375 125.261719 56.390625 C 124.53125 57.789062 124.339844 59.375 125.230469 60.75 C 126.042969 62.308594 125.511719 65.875 127.625 66.253906 C 129.09375 65.972656 128.039062 64.0625 128.058594 63.074219 C 127.769531 60.527344 127.148438 59.519531 128.542969 57.109375 C 129.792969 54.53125 130.730469 51.820312 131.894531 49.207031 C 133.152344 46.535156 134.394531 43.863281 135.625 41.179688 C 135.960938 40.472656 136.359375 39.800781 136.230469 39.136719 C 139.214844 36.839844 142.132812 34.464844 144.765625 31.761719 C 146.769531 29.824219 148.453125 27.640625 149.929688 25.324219 C 150.558594 24.722656 151.175781 24.113281 151.769531 23.480469 C 153.058594 22.125 154.007812 20.492188 154.894531 18.855469 C 156.148438 16.878906 157.308594 14.3125 158.394531 12.152344 C 159.613281 9.640625 161.078125 7.238281 162.113281 4.632812 C 162.480469 3.347656 163.441406 1.441406 161.9375 0.589844 Z M 161.925781 0.570312 " fill-opacity="1" fill-rule="nonzero"/></g><path fill="#bf920e" d="M 86.082031 37.625 C 81.269531 38.671875 78.027344 42.765625 73.742188 44.878906 C 70.90625 46.25 67.863281 47.085938 65.035156 48.46875 C 62.296875 49.632812 59.613281 50.933594 56.8125 51.9375 C 55.777344 52.238281 55.601562 53.71875 56.25 54.476562 C 57.105469 55.472656 60.496094 53.914062 61.804688 53.710938 C 66.324219 52.1875 70.480469 49.808594 74.472656 47.242188 C 77.898438 45.480469 81.117188 43.421875 84.234375 41.179688 C 87.070312 39.230469 90.480469 38.542969 93.890625 38.59375 C 98.074219 38.796875 102.402344 38.976562 106.429688 37.625 C 107.632812 37.207031 108.8125 36.734375 110.003906 36.285156 C 110.652344 36.167969 110.855469 35.308594 110.574219 34.777344 C 110.382812 34.449219 110.066406 34.332031 109.6875 34.332031 C 108.8125 34.332031 107.59375 34.980469 106.898438 35.097656 C 105.492188 35.5 104.070312 35.863281 102.613281 36.007812 C 97.066406 36.132812 91.449219 36.035156 86.082031 37.640625 Z M 86.082031 37.625 " fill-opacity="1" fill-rule="nonzero"/><path fill="#bf920e" d="M 40.671875 53.699219 L 40.667969 53.699219 C 42.414062 53.785156 43.402344 55.394531 44.632812 56.453125 C 45.792969 57.5625 47.234375 58.292969 48.589844 59.132812 C 54.933594 63.347656 55.804688 63.269531 63.109375 64.257812 C 65.832031 64.742188 68.449219 65.75 71.21875 65.980469 C 76.183594 66.371094 81.359375 66.359375 86.003906 64.335938 C 93.054688 61.363281 99.660156 56.835938 104.210938 50.609375 C 105.957031 48.171875 107.320312 45.476562 108.523438 42.746094 C 109.269531 41.488281 108.125 39.066406 106.59375 40.199219 C 104.734375 41.75 104.03125 44.1875 102.527344 46.039062 C 99.246094 50.097656 95.515625 53.867188 91.238281 56.875 C 86.789062 59.492188 81.707031 60.828125 76.648438 61.671875 C 73.027344 62.386719 69.367188 63.347656 65.648438 62.855469 C 62.226562 62.472656 58.820312 61.742188 55.632812 60.421875 C 53.898438 59.636719 52.3125 58.570312 50.625 57.703125 C 49.296875 56.984375 47.828125 56.550781 46.480469 55.863281 C 45.261719 55.210938 44.164062 54.4375 43.0625 53.585938 C 46.148438 53.023438 48.890625 51.28125 51.371094 49.441406 C 53.261719 47.949219 54.992188 46.242188 56.914062 44.78125 C 62.558594 40.914062 68.039062 36.792969 73.949219 33.34375 C 76.148438 32.355469 78.453125 31.925781 80.835938 31.355469 C 83.253906 30.746094 85.746094 30.53125 88.234375 30.734375 C 91.496094 30.84375 94.730469 31.25 97.867188 32.160156 C 99.640625 32.730469 101.441406 33.207031 103.246094 33.664062 C 104.085938 33.863281 104.890625 34.386719 105.761719 34.328125 C 107.117188 33.980469 107.246094 31.761719 106.121094 31.066406 C 103.746094 30.445312 101.367188 29.652344 99.015625 28.875 C 95.777344 27.9375 92.429688 27.355469 89.058594 27.132812 C 88.71875 27.105469 88.386719 27.09375 88.050781 27.09375 C 84.582031 27.09375 81.277344 28.328125 77.9375 29.175781 C 74.160156 29.921875 70.492188 31.105469 67.117188 32.972656 C 62.066406 35.433594 58.558594 39.964844 54.160156 43.316406 C 52.359375 44.636719 50.492188 45.863281 48.648438 47.113281 C 46.652344 48.441406 44.8125 50.027344 42.691406 51.164062 C 41.882812 51.722656 40.390625 51.589844 40.203125 52.75 C 40.144531 53.121094 40.347656 53.574219 40.671875 53.703125 Z M 40.671875 53.699219 " fill-opacity="1" fill-rule="nonzero"/><path fill="#bf920e" d="M 100.230469 126.148438 C 99.847656 124.023438 99.480469 122.03125 99.226562 119.832031 C 98.828125 117.003906 97.785156 114.3125 97.347656 111.484375 C 96.476562 105.527344 94.210938 99.53125 89.667969 95.421875 C 87.789062 93.664062 85.144531 93.015625 82.664062 92.652344 C 81.839844 92.558594 81 92.492188 80.164062 92.492188 C 79.371094 92.492188 78.585938 92.550781 77.804688 92.703125 C 76.15625 93.070312 74.558594 93.640625 72.949219 94.148438 C 71.121094 94.785156 69.296875 95.433594 67.417969 95.917969 C 66.265625 96.128906 65.09375 96.453125 65.21875 97.835938 C 65.460938 100.160156 68.136719 98.851562 69.558594 98.589844 C 71.058594 98.222656 72.535156 97.789062 74.023438 97.382812 C 75.605469 96.953125 77.164062 96.460938 78.78125 96.148438 C 80.289062 95.957031 81.695312 96.007812 83.226562 96.015625 C 85.085938 96.121094 87.128906 96.199219 88.621094 97.449219 C 89.800781 98.550781 90.859375 99.839844 91.488281 101.339844 C 92.089844 103.015625 92.574219 104.730469 92.9375 106.472656 C 93.382812 109.683594 93 112.972656 93.714844 116.152344 C 94.65625 119.53125 95.988281 122.804688 96.875 126.300781 C 97.453125 128.695312 97.683594 131.152344 98.191406 133.5625 C 99.117188 139.734375 99.535156 146.070312 98.507812 152.257812 C 97.96875 154.792969 97.21875 157.265625 96.40625 159.726562 C 95.023438 164.035156 93.523438 168.789062 91.601562 172.984375 C 89.179688 178.734375 86.683594 184.46875 83.410156 189.804688 C 81.09375 193.417969 77.9375 196.390625 74.898438 199.386719 C 72.84375 201.3125 70.855469 203.308594 68.746094 205.179688 C 67.0625 206.542969 65.261719 207.726562 63.4375 208.886719 C 60.980469 210.328125 58.816406 212.21875 56.292969 213.535156 C 53.132812 215.015625 49.609375 215.617188 46.167969 216.050781 C 45.015625 216.140625 43.90625 216.121094 42.78125 216.101562 C 41.984375 216.082031 41.171875 216.070312 40.320312 216.09375 C 39.761719 216.113281 39.535156 216.800781 39.574219 217.261719 C 39.613281 217.75 39.941406 218.3125 40.496094 218.292969 C 43.332031 218.144531 46.210938 218.394531 48.996094 217.691406 C 51.980469 217.160156 54.53125 215.523438 57.164062 214.125 C 60.691406 212.507812 64.292969 210.96875 67.339844 208.507812 C 70.054688 206.542969 73.125 205.058594 75.5 202.640625 C 77.257812 200.980469 78.714844 199.046875 80.125 197.089844 C 83.0625 192.992188 86.410156 189.199219 89.355469 185.109375 C 93.683594 179.015625 96.679688 171.988281 98.035156 164.636719 C 98.507812 162.027344 98.847656 159.394531 99.398438 156.796875 C 100.753906 151.074219 102.507812 145.265625 102.277344 139.316406 C 102.054688 134.863281 100.980469 130.523438 100.242188 126.144531 Z M 100.230469 126.148438 " fill-opacity="1" fill-rule="nonzero"/><path fill="#bf920e" d="M 32.851562 216.75 C 30.171875 216.109375 27.757812 217.523438 25.386719 218.550781 C 23.582031 219.191406 21.660156 219.433594 19.757812 219.648438 C 17.707031 219.984375 15.304688 219.628906 13.707031 218.242188 C 12.347656 216.210938 11.613281 213.6875 11.476562 211.257812 C 11.761719 208.246094 12.863281 205.203125 11.964844 202.171875 C 11.777344 201.449219 11.109375 200.78125 10.390625 200.78125 C 10.210938 200.78125 10.027344 200.820312 9.851562 200.914062 C 8.328125 201.730469 8.996094 203.597656 9.300781 204.90625 C 9.695312 208.207031 8.542969 211.5 9.542969 214.765625 C 10.984375 222.957031 15.253906 223.335938 22.585938 223.296875 C 26.566406 223.578125 29.636719 220.78125 33.261719 219.703125 C 35.054688 219.703125 34.625 216.160156 32.84375 216.757812 Z M 32.851562 216.75 " fill-opacity="1" fill-rule="nonzero"/><g clip-path="url(#0e11bcf8ba)"><path fill="#bf920e" d="M 5.648438 187.125 C 3.933594 182.230469 2.308594 177.109375 2.683594 171.859375 C 3.601562 164.597656 5.804688 157.5625 7.660156 150.496094 C 9.195312 146.175781 11.914062 142.417969 14.304688 138.542969 C 19.78125 130.433594 24.628906 121.621094 32.824219 115.871094 C 35.582031 113.652344 38.695312 111.96875 41.703125 110.117188 C 44.523438 107.957031 47.925781 106.824219 51.128906 105.363281 C 53.355469 104.796875 55.5 103.945312 57.683594 103.210938 C 59.246094 102.777344 60.910156 102.746094 60.554688 100.597656 C 60.4375 99.988281 59.933594 99.171875 59.234375 99.171875 C 59.1875 99.171875 59.140625 99.171875 59.089844 99.183594 C 57.617188 99.425781 56.117188 99.5 54.671875 99.878906 C 44.3125 101.523438 36.039062 108.285156 28.613281 115.257812 C 23.011719 119.792969 17.695312 124.769531 13.21875 130.433594 C 9.890625 134.65625 7.730469 139.628906 5.910156 144.652344 C 2.609375 154.128906 -1.527344 163.949219 0.710938 174.164062 C 1.320312 177.867188 1.695312 181.644531 2.8125 185.246094 C 3.71875 187.785156 4.753906 190.28125 5.453125 192.894531 C 5.78125 193.847656 6.074219 196.636719 7.601562 195.675781 C 8.203125 195.078125 7.847656 194.28125 7.585938 193.632812 C 7.070312 191.421875 6.429688 189.226562 5.636719 187.101562 Z M 5.648438 187.125 " fill-opacity="1" fill-rule="nonzero"/></g><path fill="#bf920e" d="M 76.949219 150.851562 C 76.371094 150.851562 75.875 151.222656 75.652344 151.746094 C 75.4375 152.25 75.476562 152.839844 75.652344 153.351562 C 75.988281 154.347656 76.910156 155.25 78.007812 155.25 C 78.585938 155.25 79.082031 154.878906 79.304688 154.351562 C 79.523438 153.847656 79.480469 153.261719 79.304688 152.75 C 78.972656 151.753906 78.046875 150.851562 76.949219 150.851562 Z M 76.949219 150.851562 " fill-opacity="1" fill-rule="nonzero"/><path fill="#bf920e" d="M 83.300781 144.238281 C 82.730469 144.238281 82.585938 144.886719 82.730469 145.332031 C 82.878906 145.765625 83.28125 146.164062 83.757812 146.164062 C 84.328125 146.164062 84.472656 145.515625 84.328125 145.070312 C 84.175781 144.636719 83.777344 144.238281 83.300781 144.238281 Z M 83.300781 144.238281 " fill-opacity="1" fill-rule="nonzero"/><path fill="#bf920e" d="M 84.746094 135.945312 C 84.378906 135.945312 84.289062 136.363281 84.378906 136.644531 C 84.472656 136.925781 84.734375 137.179688 85.039062 137.179688 C 85.40625 137.179688 85.5 136.761719 85.40625 136.480469 C 85.316406 136.199219 85.054688 135.945312 84.746094 135.945312 Z M 84.746094 135.945312 " fill-opacity="1" fill-rule="nonzero"/><path fill="#bf920e" d="M 77.386719 172.304688 C 77.21875 172.695312 77.25 173.160156 77.386719 173.5625 C 77.648438 174.339844 78.371094 175.046875 79.226562 175.046875 C 79.679688 175.046875 80.070312 174.753906 80.242188 174.347656 C 80.410156 173.953125 80.378906 173.488281 80.242188 173.089844 C 79.980469 172.3125 79.257812 171.605469 78.402344 171.605469 C 77.949219 171.605469 77.558594 171.898438 77.386719 172.304688 Z M 77.386719 172.304688 " fill-opacity="1" fill-rule="nonzero"/><path fill="#bf920e" d="M 84.855469 160.472656 C 84.542969 160.472656 84.464844 160.835938 84.542969 161.078125 C 84.628906 161.320312 84.84375 161.535156 85.113281 161.535156 C 85.425781 161.535156 85.503906 161.175781 85.425781 160.933594 C 85.339844 160.691406 85.125 160.472656 84.855469 160.472656 Z M 84.855469 160.472656 " fill-opacity="1" fill-rule="nonzero"/><path fill="#bf920e" d="M 72.960938 169.546875 C 73.230469 169.546875 73.472656 169.371094 73.578125 169.128906 C 73.675781 168.894531 73.664062 168.613281 73.578125 168.371094 C 73.421875 167.898438 72.988281 167.472656 72.464844 167.472656 C 72.195312 167.472656 71.953125 167.648438 71.847656 167.890625 C 71.75 168.128906 71.765625 168.410156 71.847656 168.652344 C 72.007812 169.121094 72.4375 169.546875 72.960938 169.546875 Z M 72.960938 169.546875 " fill-opacity="1" fill-rule="nonzero"/><path fill="#bf920e" d="M 65.703125 191.035156 C 65.84375 191.464844 66.25 191.867188 66.730469 191.867188 C 67.300781 191.867188 67.441406 191.21875 67.300781 190.773438 C 67.148438 190.339844 66.75 189.941406 66.269531 189.941406 C 65.703125 189.941406 65.558594 190.589844 65.703125 191.035156 Z M 65.703125 191.035156 " fill-opacity="1" fill-rule="nonzero"/><path fill="#bf920e" d="M 68.851562 159.542969 C 70.34375 159.441406 69.78125 157.28125 68.632812 157.023438 C 68.535156 157.003906 68.445312 157 68.351562 157 C 67.605469 157 67.363281 157.632812 67.480469 158.273438 C 67.605469 158.929688 68.109375 159.585938 68.84375 159.542969 Z M 68.851562 159.542969 " fill-opacity="1" fill-rule="nonzero"/><path fill="#bf920e" d="M 74.914062 142.039062 C 75.351562 142.039062 75.460938 141.542969 75.351562 141.199219 C 75.238281 140.867188 74.925781 140.566406 74.558594 140.566406 C 74.121094 140.566406 74.007812 141.0625 74.121094 141.402344 C 74.230469 141.738281 74.539062 142.039062 74.914062 142.039062 Z M 74.914062 142.039062 " fill-opacity="1" fill-rule="nonzero"/><path fill="#bf920e" d="M 67.460938 180.285156 C 67.625 180.769531 68.070312 181.207031 68.609375 181.207031 C 68.890625 181.207031 69.132812 181.023438 69.238281 180.777344 C 69.339844 180.527344 69.320312 180.246094 69.238281 179.996094 C 69.074219 179.511719 68.628906 179.074219 68.089844 179.074219 C 67.808594 179.074219 67.566406 179.257812 67.460938 179.503906 C 67.359375 179.753906 67.378906 180.035156 67.460938 180.285156 Z M 67.460938 180.285156 " fill-opacity="1" fill-rule="nonzero"/><path fill="#bf920e" d="M 66.546875 172.671875 C 66.335938 172.492188 66.042969 172.324219 65.761719 172.324219 C 65.425781 172.324219 65.132812 172.429688 64.957031 172.730469 C 64.796875 173 64.796875 173.324219 64.875 173.621094 C 64.96875 173.953125 65.164062 174.261719 65.425781 174.484375 C 65.636719 174.660156 65.929688 174.832031 66.210938 174.832031 C 66.546875 174.832031 66.839844 174.726562 67.015625 174.425781 C 67.175781 174.15625 67.175781 173.828125 67.097656 173.535156 C 67.011719 173.199219 66.808594 172.894531 66.546875 172.671875 Z M 66.546875 172.671875 " fill-opacity="1" fill-rule="nonzero"/><path fill="#bf920e" d="M 58.453125 188.324219 C 57.984375 188.324219 57.871094 188.875 58.003906 189.234375 C 58.132812 189.59375 58.46875 189.910156 58.867188 189.910156 C 59.078125 189.910156 59.253906 189.765625 59.332031 189.582031 C 59.402344 189.398438 59.390625 189.1875 59.324219 189 C 59.195312 188.636719 58.859375 188.324219 58.460938 188.324219 Z M 58.453125 188.324219 " fill-opacity="1" fill-rule="nonzero"/><g clip-path="url(#fabebfdf21)"><path stroke-linecap="butt" transform="matrix(0.749268, 0, 0, 0.749268, 162.781033, 245.858657)" fill="none" stroke-linejoin="miter" d="M 0.000288961 1.9977 L 52.801858 1.9977 " stroke="#ffffff" stroke-width="4" stroke-opacity="1" stroke-miterlimit="4"/></g></svg>