<svg xmlns="http://www.w3.org/2000/svg" xmlns:xlink="http://www.w3.org/1999/xlink" width="490" zoomAndPan="magnify" viewBox="0 0 367.5 277.499997" height="370" preserveAspectRatio="xMidYMid meet" version="1.0"><defs><clipPath id="804070d129"><path d="M 325 266 L 366.921875 266 L 366.921875 270 L 325 270 Z M 325 266 " clip-rule="nonzero"/></clipPath></defs><path fill="#c49716" d="M 164.65625 146.136719 C 174.136719 154.824219 183.617188 163.503906 193.101562 172.191406 C 192.621094 172.769531 192.136719 173.34375 191.660156 173.921875 C 182.445312 169.320312 173.929688 163.421875 166.375 156.5 C 151.640625 143.011719 141.21875 126.242188 132.222656 108.558594 C 128.984375 102.207031 130.1875 95.238281 130.023438 88.734375 C 128.25 88.195312 127.523438 88.9375 126.976562 89.710938 C 119.382812 100.535156 113.089844 112.039062 108.917969 124.632812 C 105.304688 135.550781 106.445312 145.914062 111.957031 156.050781 C 116.410156 164.238281 121.789062 171.609375 128.722656 177.824219 C 152.351562 199.003906 177.203125 218.332031 207.070312 230.191406 C 208.554688 230.777344 209.875 231.78125 210.789062 233.265625 C 164.925781 221.34375 130.867188 193.503906 104.121094 154 C 96.199219 160.347656 85.828125 163.632812 75.816406 167.601562 C 62.046875 173.058594 48.003906 177.75 32.839844 177.109375 C 26.566406 176.847656 20.570312 175.464844 14.375 172.75 C 15.839844 179.667969 19.996094 184.878906 24.289062 189.738281 C 32.511719 199.042969 42.363281 204.691406 55.585938 202.5 C 72.515625 199.699219 89.085938 195.796875 104.949219 189.117188 C 108.109375 187.789062 111.054688 185.566406 115.742188 185.605469 C 111.082031 189.65625 106.625 192.371094 101.867188 194.453125 C 86.417969 201.214844 70.109375 205.21875 53.558594 207.925781 C 43.085938 209.644531 33.722656 205.171875 26.714844 197.925781 C 10.617188 181.300781 0.144531 161.925781 2.234375 137.789062 C 3.238281 126.203125 6.964844 115.257812 11.917969 104.8125 C 34.136719 57.976562 70.074219 25.851562 118.089844 7.113281 C 133.683594 1.027344 149.777344 -0.0976562 164.6875 9.046875 C 177.417969 16.851562 187.835938 27.492188 195.628906 40.273438 C 199.636719 46.851562 200.734375 54.539062 199.367188 62.238281 C 198.613281 66.507812 199.414062 69.859375 202.914062 72.472656 L 203.121094 72.265625 C 198.660156 70.613281 197.441406 73.417969 196.441406 76.914062 C 191.570312 94.066406 184.199219 110.257812 176.765625 126.386719 C 173.53125 133.40625 171.441406 141.324219 164.574219 146.128906 C 173.492188 130.675781 179.339844 113.90625 186.242188 97.597656 C 191.023438 86.292969 193.816406 74.554688 195.214844 62.417969 C 196.160156 54.230469 194.503906 46.601562 189.671875 39.984375 C 183.503906 31.546875 175.660156 24.746094 166.535156 17.066406 C 168.886719 26.082031 169.035156 33.691406 167.734375 41.128906 C 164.386719 60.300781 158.328125 78.691406 150.441406 96.464844 C 148.308594 101.28125 145.414062 105.667969 140.511719 108.242188 C 143.070312 103.3125 145.699219 98.417969 148.183594 93.445312 C 156.367188 77.082031 160.125 59.480469 162.800781 41.554688 C 163.488281 36.953125 161.601562 35.828125 157.457031 35.859375 C 151.722656 35.902344 146.488281 37.597656 141.222656 39.582031 C 117.28125 48.597656 98.015625 64.5 79.792969 81.746094 C 65.660156 95.109375 52.773438 109.625 42.816406 126.511719 C 36.292969 137.566406 33.003906 149.417969 33.179688 162.230469 C 33.300781 171.429688 34.519531 172.601562 43.441406 172.007812 C 63.523438 170.671875 82.027344 164.546875 99.125 153.925781 C 102.8125 151.636719 105.152344 149.628906 103.761719 144.601562 C 102.453125 139.863281 103.214844 134.820312 104.273438 129.9375 C 108.351562 111.140625 117.578125 94.988281 130.117188 80.714844 C 136.070312 73.9375 142.671875 71.402344 150.53125 71.050781 C 148.386719 72.519531 145.867188 74.058594 143.5625 75.875 C 133.9375 83.472656 131.6875 97.421875 138.394531 107.699219 C 139 108.628906 139.976562 108.539062 140.847656 107.867188 C 139.511719 115.125 144.828125 119.269531 148.480469 124.195312 L 148.460938 124.222656 C 152.148438 132.785156 159.34375 138.765625 164.65625 146.136719 Z M 162.503906 32.855469 C 163.71875 30.042969 163.003906 28.117188 162.6875 26.210938 C 160.25 11.628906 153.28125 5.84375 138.351562 6.207031 C 130.402344 6.40625 122.746094 8.148438 115.257812 10.886719 C 84.914062 21.984375 61.453125 42.328125 41.238281 66.675781 C 26.398438 84.550781 14.910156 104.476562 8.992188 127.1875 C 6.917969 135.152344 5.375 143.246094 6.921875 151.574219 C 9 162.726562 18.917969 170.25 30.90625 169.6875 C 29.371094 152.648438 30.78125 142.328125 37.019531 129.671875 C 39.628906 124.382812 42.605469 119.1875 46.042969 114.394531 C 67.09375 85.042969 94.449219 62.5 124.78125 43.523438 C 135.949219 36.535156 148.527344 32.335938 162.503906 32.855469 Z M 162.503906 32.855469 " fill-opacity="1" fill-rule="nonzero"/><path fill="#c49716" d="M 202.914062 72.464844 C 206.34375 71.078125 209.382812 72.640625 212.386719 73.875 C 256.46875 91.957031 292.648438 119.929688 319.46875 159.554688 C 323.351562 165.289062 326.445312 171.453125 328.453125 178.152344 C 330.332031 184.425781 329.503906 190.484375 327.441406 196.46875 C 325.617188 201.761719 322.207031 204.921875 316.421875 206.417969 C 303.949219 209.636719 291.605469 208.648438 279.203125 206.691406 C 253.71875 202.675781 228.910156 196.484375 206.371094 183.296875 C 203.984375 181.898438 200.824219 181.421875 199.554688 177.265625 C 205.589844 178.652344 210.378906 181.265625 215.226562 183.71875 C 242.632812 197.601562 272.148438 201.738281 302.359375 201.996094 C 326.34375 202.199219 328.585938 186.347656 321.179688 171.328125 C 313.214844 155.160156 301.90625 141.492188 289.203125 128.960938 C 267.1875 107.238281 241.863281 90.277344 213.753906 77.417969 C 210.183594 75.78125 206.699219 73.960938 203.15625 72.242188 C 203.128906 72.257812 202.914062 72.464844 202.914062 72.464844 Z M 202.914062 72.464844 " fill-opacity="1" fill-rule="nonzero"/><path fill="#c49716" d="M 306.011719 197.871094 C 302.453125 196.753906 302.21875 193.726562 301.382812 191.46875 C 294.035156 171.71875 280.671875 156.582031 264.863281 143.292969 C 245.605469 127.105469 224.820312 113.453125 201.046875 104.699219 C 199.1875 104.019531 196.234375 104.179688 195.804688 100.414062 C 204.3125 100.488281 212.011719 103.195312 219.226562 106.808594 C 247.53125 120.960938 272.335938 139.625 291.730469 164.882812 C 299.132812 174.527344 305.460938 184.832031 306.011719 197.871094 Z M 306.011719 197.871094 " fill-opacity="1" fill-rule="nonzero"/><path fill="#c49716" d="M 145.535156 158.441406 C 172.324219 184.898438 205.191406 200.417969 240.503906 212.84375 C 213.269531 213.472656 161.347656 184.007812 145.535156 158.441406 Z M 145.535156 158.441406 " fill-opacity="1" fill-rule="nonzero"/><path fill="#c49716" d="M 163.597656 191.664062 C 178.800781 200.929688 194.234375 209.457031 211.085938 215.144531 C 227.699219 220.75 244.894531 223.175781 262.648438 224.617188 C 225.90625 231.109375 181.507812 212.386719 163.597656 191.664062 Z M 163.597656 191.664062 " fill-opacity="1" fill-rule="nonzero"/><path fill="#c49716" d="M 237.46875 239.382812 C 241.15625 237.792969 244.992188 238.273438 248.796875 238.675781 C 256.007812 239.445312 263.246094 239.457031 270.445312 238.90625 C 287.945312 237.5625 302.738281 230.703125 313.847656 216.742188 C 315.257812 214.96875 316.808594 213.3125 319.058594 210.714844 C 306.367188 242.539062 271.5625 249.390625 237.46875 239.382812 Z M 237.46875 239.382812 " fill-opacity="1" fill-rule="nonzero"/><path fill="#c49716" d="M 46.035156 194.710938 C 58.886719 191.960938 71.738281 189.210938 84.589844 186.460938 C 72.855469 194.359375 60.179688 197.90625 46.035156 194.710938 Z M 46.035156 194.710938 " fill-opacity="1" fill-rule="nonzero"/><path fill="#c49716" d="M 38.824219 186.125 C 48.96875 184.554688 59.230469 184.378906 69.398438 183.046875 C 59.40625 186.402344 49.371094 189.265625 38.824219 186.125 Z M 38.824219 186.125 " fill-opacity="1" fill-rule="nonzero"/><path fill="#c49716" d="M 46.199219 99.921875 C 49.769531 95.40625 45.597656 89.609375 48.664062 84.609375 C 52.203125 84.988281 50.148438 89.75 53.28125 90.046875 C 59.40625 83.695312 59.445312 83.652344 53.167969 77.320312 C 51.300781 75.4375 50.863281 73.363281 51.664062 71.039062 C 52.605469 68.300781 54.761719 67.59375 57.175781 68.867188 C 60.835938 70.800781 61.988281 68.316406 62.761719 65.773438 C 63.421875 63.617188 63.308594 61.234375 63.679688 58.976562 C 63.90625 57.578125 64.851562 56.476562 66.320312 56.75 C 67.09375 56.898438 68.027344 57.835938 68.328125 58.632812 C 69.152344 60.769531 69.515625 63.078125 70.351562 65.203125 C 71.207031 67.386719 72.535156 69.5625 75.308594 69.144531 C 78.4375 68.671875 79.433594 66.160156 79.523438 63.335938 C 79.628906 60.03125 79.191406 56.792969 78.25 53.597656 C 77.789062 52.046875 77.230469 50.320312 77.480469 48.800781 C 77.9375 46.003906 79.304688 43.1875 82.621094 45.941406 C 86.78125 49.398438 88.453125 47.277344 89.261719 43.402344 C 89.875 40.496094 90.128906 37.472656 91.714844 34.9375 C 93.28125 32.429688 95.324219 29.667969 98.800781 31.519531 C 101.71875 33.078125 100.871094 35.960938 100.054688 38.550781 C 99.292969 40.960938 96.882812 42.660156 97.023438 46.15625 C 102.75 46.425781 105.59375 42.007812 109.214844 39.089844 C 112.972656 36.050781 114.96875 31.136719 120.3125 28.5 C 120.164062 36.859375 114.765625 41.519531 110.375 46.453125 C 105.664062 51.738281 99.699219 54.101562 92.644531 50.664062 C 89.207031 48.996094 87.304688 52.40625 84.578125 53.09375 C 79.664062 54.324219 82.519531 57.59375 82.714844 60.167969 C 82.789062 61.152344 82.933594 62.128906 82.984375 63.113281 C 83.214844 67.417969 81.679688 70.890625 77.835938 73.027344 C 73.179688 75.613281 69.710938 72.878906 66.28125 70.066406 C 62.511719 73.34375 61.238281 77.394531 60.890625 82.25 C 60.410156 88.875 59.589844 95.648438 50.347656 96.09375 C 48.90625 96.160156 47.578125 98.554688 46.199219 99.867188 C 46.191406 99.878906 46.199219 99.921875 46.199219 99.921875 Z M 46.199219 99.921875 " fill-opacity="1" fill-rule="nonzero"/><path fill="#c49716" d="M 46.191406 99.878906 C 46.398438 100.5 46.75 101.105469 46.804688 101.734375 C 47.34375 107.570312 44.929688 112.746094 41.65625 112.894531 C 39.296875 113 34.554688 107.746094 34.1875 103.789062 C 33.683594 98.277344 30.523438 93.203125 31.667969 87.453125 C 32.074219 85.433594 32.71875 83.429688 35.011719 83.289062 C 37.457031 83.140625 38.367188 85.304688 38.535156 87.226562 C 38.839844 90.789062 38.683594 94.394531 38.71875 97.980469 C 38.722656 98.632812 38.644531 99.300781 38.75 99.933594 C 39.230469 102.773438 39.046875 107.132812 42.128906 107.328125 C 46.421875 107.601562 46.203125 103.269531 46.21875 99.953125 C 46.199219 99.921875 46.191406 99.878906 46.191406 99.878906 Z M 46.191406 99.878906 " fill-opacity="1" fill-rule="nonzero"/><path fill="#c49716" d="M 148.480469 124.1875 C 153.394531 124.371094 153.886719 119.894531 155.449219 117.042969 C 167.148438 95.742188 178.300781 74.199219 180.503906 49.242188 C 182.148438 54.050781 181.941406 58.820312 181.339844 63.550781 C 178.78125 83.910156 171.042969 102.179688 158.886719 118.640625 C 156.273438 122.179688 153.597656 125.433594 148.46875 124.207031 C 148.453125 124.222656 148.480469 124.1875 148.480469 124.1875 Z M 148.480469 124.1875 " fill-opacity="1" fill-rule="nonzero"/><g clip-path="url(#804070d129)"><path stroke-linecap="butt" transform="matrix(0.748651, 0, 0, 0.748651, 327.391172, 266.352434)" fill="none" stroke-linejoin="miter" d="M -0.00073046 2.002439 L 52.802576 2.002439 " stroke="#ffffff" stroke-width="4" stroke-opacity="1" stroke-miterlimit="4"/></g></svg>