<svg xmlns="http://www.w3.org/2000/svg" xmlns:xlink="http://www.w3.org/1999/xlink" width="220" zoomAndPan="magnify" viewBox="0 0 165 136.499996" height="182" preserveAspectRatio="xMidYMid meet" version="1.0"><defs><clipPath id="3fe5727093"><path d="M 0.300781 0 L 146.765625 0 L 146.765625 121 L 0.300781 121 Z M 0.300781 0 " clip-rule="nonzero"/></clipPath><clipPath id="c86cd34612"><path d="M 135 128 L 164.699219 128 L 164.699219 132 L 135 132 Z M 135 128 " clip-rule="nonzero"/></clipPath></defs><g clip-path="url(#3fe5727093)"><path fill="#ffffff" d="M 40.933594 28.921875 C 50.96875 27.550781 60.894531 27.4375 70.335938 31.589844 C 75.378906 25.605469 81.289062 20.972656 88.960938 18.902344 C 90.445312 18.503906 91.921875 18.078125 93.402344 17.65625 C 97.054688 16.585938 100.78125 16.210938 104.578125 16.523438 C 107.636719 16.792969 110.71875 16.964844 113.746094 17.453125 C 116.410156 17.871094 118.964844 18.65625 121.40625 19.808594 C 123.847656 20.960938 126.074219 22.433594 128.089844 24.226562 C 130.554688 26.402344 132.960938 28.652344 135.25 31.011719 C 137.871094 33.714844 140.058594 36.734375 141.808594 40.070312 C 143.5625 43.402344 144.8125 46.914062 145.554688 50.605469 C 146.128906 53.804688 146.324219 57.027344 146.136719 60.273438 C 146.042969 65.757812 145.339844 71.164062 144.023438 76.488281 C 143.550781 78.328125 143.144531 80.3125 142.136719 81.859375 C 140.835938 83.851562 139.90625 86.039062 138.578125 88 C 137.503906 89.671875 136.164062 91.089844 134.5625 92.257812 C 126.441406 97.917969 117.578125 101.617188 107.601562 102.183594 C 103.089844 102.5 98.59375 102.378906 94.105469 101.820312 C 92.28125 101.5 90.492188 101.046875 88.738281 100.453125 C 88.183594 100.242188 87.726562 99.902344 87.359375 99.4375 C 87.242188 99.335938 87.171875 99.207031 87.136719 99.058594 C 87.105469 98.90625 87.125 98.761719 87.191406 98.621094 C 87.253906 98.480469 87.355469 98.375 87.492188 98.304688 C 87.628906 98.230469 87.773438 98.207031 87.925781 98.230469 C 88.773438 98.269531 89.613281 98.363281 90.449219 98.515625 C 96.300781 99.292969 102.175781 99.488281 108.066406 99.105469 C 113.648438 98.800781 118.894531 97.054688 123.875 94.597656 C 126.425781 93.300781 128.902344 91.867188 131.300781 90.304688 C 132.589844 89.492188 133.730469 88.507812 134.71875 87.34375 C 135.703125 86.183594 136.492188 84.898438 137.085938 83.496094 C 137.492188 82.757812 137.953125 82.054688 138.46875 81.386719 C 138.757812 80.949219 139.011719 80.492188 139.230469 80.015625 C 140.71875 76.355469 141.691406 72.566406 142.144531 68.640625 C 142.847656 63.539062 143.375 58.398438 142.675781 53.261719 C 142.210938 49.765625 141.25 46.40625 139.796875 43.191406 C 138.339844 39.976562 136.453125 37.042969 134.132812 34.382812 C 131.480469 31.417969 128.667969 28.609375 125.699219 25.957031 C 124.113281 24.523438 122.363281 23.328125 120.449219 22.375 C 118.535156 21.421875 116.527344 20.742188 114.429688 20.34375 C 109.164062 19.242188 103.78125 18.652344 98.460938 19.421875 C 91.167969 20.480469 84.125 22.425781 78.34375 27.4375 C 76.34375 29.171875 74.222656 30.765625 71.992188 32.554688 L 75.851562 34.605469 C 76.847656 33.53125 78.046875 32.207031 79.273438 30.910156 C 80.234375 29.878906 81.289062 28.953125 82.433594 28.128906 C 83.574219 27.300781 84.789062 26.59375 86.070312 26.007812 C 87.351562 25.417969 88.679688 24.960938 90.050781 24.632812 C 91.421875 24.300781 92.8125 24.109375 94.21875 24.050781 C 97.34375 23.859375 100.457031 23.546875 103.582031 23.34375 C 107.246094 23.089844 110.773438 23.683594 114.15625 25.121094 C 119.527344 27.417969 124.347656 30.558594 128.621094 34.542969 C 131.757812 37.429688 133.597656 41.097656 134.914062 45.082031 C 137.164062 52.03125 138.027344 59.148438 137.507812 66.4375 C 137.265625 70.019531 136.425781 73.453125 134.988281 76.742188 C 134.34375 78.253906 133.722656 79.785156 132.96875 81.242188 C 130.835938 85.382812 127.40625 88.144531 123.238281 90.019531 C 119.453125 91.785156 115.488281 92.894531 111.335938 93.355469 C 106.800781 93.796875 102.261719 94.234375 97.71875 94.589844 C 96.605469 94.636719 95.496094 94.546875 94.402344 94.324219 C 91.683594 93.863281 91.054688 93.367188 89.683594 90.714844 C 89.433594 91.3125 89.238281 91.757812 89.0625 92.207031 C 87.128906 97.023438 84.484375 101.410156 81.121094 105.363281 C 79.160156 107.71875 76.917969 109.769531 74.394531 111.511719 C 71.871094 113.253906 69.15625 114.625 66.257812 115.625 C 59.953125 117.941406 53.457031 119.445312 46.777344 120.144531 C 38.992188 120.863281 31.304688 120.3125 23.953125 117.300781 C 23.0625 116.960938 22.195312 116.566406 21.351562 116.113281 C 20.757812 115.847656 20.296875 115.433594 19.96875 114.871094 C 19.558594 113.789062 18.71875 113.195312 17.921875 112.519531 C 14.625 109.78125 11.890625 106.566406 9.71875 102.875 C 7.078125 98.441406 4.886719 93.796875 3.144531 88.941406 C 0.816406 82.207031 0.371094 75.300781 1.054688 68.21875 C 1.515625 62.761719 3.015625 57.605469 5.554688 52.75 C 6.925781 50.179688 8.394531 47.652344 9.96875 45.199219 C 11.378906 42.992188 13.078125 41.035156 15.066406 39.328125 C 17.054688 37.625 19.246094 36.242188 21.640625 35.179688 C 24.757812 33.773438 27.894531 32.332031 31.285156 31.621094 C 31.925781 31.476562 32.488281 31.1875 32.980469 30.75 C 32.34375 30.46875 31.710938 30.175781 31.066406 29.90625 C 25.992188 27.761719 20.722656 26.050781 16.035156 23.058594 C 14.976562 22.382812 13.96875 21.570312 12.570312 21.613281 C 12.132812 21.542969 11.808594 21.308594 11.601562 20.914062 C 11.269531 20.308594 11.109375 19.660156 11.109375 18.96875 C 11.339844 15.949219 11.855469 12.980469 12.65625 10.058594 C 12.761719 9.585938 12.972656 9.164062 13.28125 8.789062 C 13.589844 8.414062 13.96875 8.132812 14.410156 7.9375 C 16.21875 7.183594 18.054688 6.492188 19.886719 5.800781 C 20.429688 5.597656 21.007812 5.476562 21.570312 5.324219 C 27.808594 3.625 34.050781 1.929688 40.292969 0.234375 C 40.796875 0.0546875 41.316406 -0.015625 41.847656 0.0234375 C 42.3125 0.105469 43.011719 0.417969 43.097656 0.761719 C 43.316406 1.601562 43.964844 1.898438 44.507812 2.378906 C 46.445312 4.109375 48.402344 5.824219 50.265625 7.632812 C 51.496094 8.828125 51.4375 9.472656 50.367188 10.878906 C 50.152344 11.179688 49.960938 11.5 49.796875 11.832031 C 46.832031 17.402344 43.871094 22.980469 40.914062 28.554688 C 40.875 28.628906 40.921875 28.75 40.933594 28.921875 Z M 77.203125 36.132812 C 77.742188 36.628906 78.136719 36.980469 78.519531 37.34375 C 82.992188 41.394531 86.417969 46.191406 88.796875 51.734375 C 90.535156 56.144531 91.785156 60.6875 92.546875 65.367188 C 93.460938 70.332031 93.394531 75.285156 92.347656 80.226562 C 91.738281 83.078125 90.988281 85.898438 90.304688 88.734375 C 90.210938 89.117188 90.132812 89.5 90.09375 89.6875 C 91.066406 89.808594 91.9375 89.910156 92.804688 90.023438 C 94.476562 90.238281 96.171875 90.746094 97.816406 90.625 C 102.78125 90.253906 107.761719 89.839844 112.675781 89.070312 C 115.582031 88.652344 118.375 87.835938 121.050781 86.625 C 123.722656 85.410156 126.175781 83.847656 128.40625 81.9375 C 130.25 80.480469 131.503906 78.621094 132.171875 76.367188 C 132.636719 74.628906 133.164062 72.890625 133.453125 71.121094 C 134.179688 66.726562 134.324219 62.3125 133.886719 57.878906 C 133.445312 53.445312 132.441406 49.144531 130.867188 44.980469 C 129.632812 41.390625 127.605469 38.328125 124.785156 35.796875 C 121.613281 33.019531 118.144531 30.6875 114.382812 28.796875 C 111.046875 27.09375 107.507812 26.339844 103.765625 26.535156 C 100.589844 26.699219 97.410156 26.835938 94.238281 27.070312 C 91.996094 27.140625 89.816406 27.542969 87.691406 28.273438 C 83.523438 29.898438 80.410156 32.898438 77.203125 36.132812 Z M 56.207031 114.289062 C 59.257812 113.390625 62.316406 112.53125 65.347656 111.578125 C 68.558594 110.628906 71.507812 109.15625 74.191406 107.160156 C 76.878906 105.164062 79.140625 102.765625 80.972656 99.96875 C 86.535156 91.566406 88.84375 82.214844 89.4375 72.328125 C 89.46875 71 89.410156 69.675781 89.261719 68.359375 C 88.984375 64.679688 87.804688 61.195312 86.851562 57.667969 C 86.007812 54.441406 84.757812 51.382812 83.097656 48.488281 C 81.441406 45.59375 79.433594 42.96875 77.078125 40.609375 C 73.039062 36.566406 68.4375 33.421875 62.730469 32.207031 C 58.707031 31.304688 54.632812 30.863281 50.511719 30.878906 C 46.386719 30.894531 42.316406 31.367188 38.300781 32.296875 C 34.742188 33.140625 31.207031 34.085938 27.664062 34.988281 C 27.460938 35.039062 27.140625 35.066406 27.085938 35.195312 C 26.6875 36.128906 25.785156 35.953125 25.066406 36.1875 C 24.457031 36.367188 23.859375 36.582031 23.277344 36.832031 C 21.140625 37.804688 19.167969 39.035156 17.351562 40.523438 C 15.539062 42.015625 13.949219 43.710938 12.578125 45.617188 C 10.488281 48.542969 8.628906 51.644531 6.832031 54.765625 C 5.335938 57.328125 4.464844 60.089844 4.214844 63.050781 C 3.941406 66.429688 3.628906 69.8125 3.570312 73.199219 C 3.582031 75.425781 3.765625 77.640625 4.117188 79.839844 C 4.9375 85.910156 7.273438 91.457031 9.910156 96.933594 C 12.65625 102.632812 16.148438 107.640625 21.421875 111.261719 C 22.097656 111.851562 22.84375 112.339844 23.65625 112.722656 C 27.644531 113.988281 31.628906 115.292969 35.828125 115.707031 C 42.707031 116.445312 49.5 115.972656 56.207031 114.289062 Z M 41.457031 3.027344 L 34.023438 5.40625 C 34.113281 5.601562 34.226562 5.777344 34.359375 5.945312 C 36.167969 7.417969 38.019531 8.839844 39.773438 10.375 C 40.054688 10.660156 40.394531 10.839844 40.785156 10.914062 C 41.179688 10.992188 41.5625 10.949219 41.929688 10.789062 C 42.929688 10.449219 43.945312 10.128906 44.972656 9.878906 C 45.617188 9.722656 46.328125 9.582031 46.828125 10.25 C 46.191406 11.667969 46.128906 11.707031 41.9375 13.207031 C 41.011719 16.992188 40.335938 20.820312 39.902344 24.695312 C 42.59375 19.777344 44.597656 14.507812 48.28125 10.042969 C 45.769531 7.90625 43.207031 5.992188 41.457031 3.027344 Z M 38.382812 14.375 L 25.855469 18.082031 C 27.933594 19.355469 29.988281 20.429688 31.824219 21.796875 C 33.667969 23.167969 35.292969 24.832031 37.121094 26.464844 C 37.640625 22.414062 38.324219 18.519531 38.382812 14.375 Z M 15.101562 17.710938 C 15.367188 17.792969 15.640625 17.828125 15.917969 17.8125 C 17.652344 17.359375 19.390625 16.902344 21.09375 16.359375 C 21.410156 16.257812 21.667969 15.777344 21.820312 15.414062 C 22.597656 13.566406 23.335938 11.699219 24.074219 9.832031 C 24.238281 9.414062 24.347656 8.976562 24.539062 8.367188 C 21.539062 9.15625 18.75 9.890625 15.988281 10.617188 Z M 36.769531 28.492188 C 35.648438 27.78125 34.519531 27.3125 33.726562 26.511719 C 30.484375 23.21875 26.359375 21.371094 22.351562 19.324219 C 22.089844 19.140625 21.796875 19.042969 21.476562 19.039062 C 20.113281 19.34375 18.769531 19.726562 17.089844 20.167969 C 17.800781 20.566406 18.148438 20.792969 18.519531 20.96875 C 22.976562 23.078125 27.4375 25.171875 31.886719 27.289062 C 33.359375 27.988281 34.957031 28.496094 36 29.902344 C 36.128906 30.078125 36.582031 30.007812 37 30.066406 Z M 27.625 7.460938 C 27.804688 10.175781 26.730469 12.597656 25.6875 15.328125 C 29.285156 14.269531 32.523438 13.316406 35.875 12.167969 C 34.890625 11.113281 34.046875 10.308594 33.324219 9.410156 C 32.578125 8.480469 31.949219 7.457031 31.210938 6.390625 Z M 27.625 7.460938 " fill-opacity="1" fill-rule="nonzero"/></g><path fill="#ffffff" d="M 55.078125 109.621094 C 52.882812 110.167969 50.007812 110.894531 47.128906 111.609375 C 46.667969 111.722656 46.136719 111.984375 45.738281 111.859375 C 44.496094 111.46875 43.527344 112.148438 42.4375 112.4375 C 41.5625 112.675781 40.675781 112.734375 39.777344 112.613281 C 36.347656 112.132812 33.03125 111.230469 29.824219 109.917969 C 26.925781 108.671875 24.304688 106.988281 21.96875 104.863281 C 19.578125 102.738281 17.507812 100.335938 15.753906 97.660156 C 14 94.984375 12.628906 92.125 11.632812 89.085938 C 10.351562 85.257812 8.871094 81.472656 8.5 77.433594 C 7.261719 64.054688 10.839844 52.542969 21.890625 44.097656 C 23.792969 42.652344 25.777344 41.335938 27.84375 40.144531 C 29.125 39.523438 30.445312 39 31.804688 38.585938 C 32.152344 38.460938 32.488281 38.320312 32.820312 38.164062 C 35.257812 36.835938 37.832031 35.878906 40.546875 35.300781 C 43.261719 34.71875 46 34.535156 48.765625 34.75 C 52.789062 35.042969 56.773438 35.625 60.710938 36.492188 C 71.246094 38.964844 78.28125 45.492188 82.457031 55.273438 C 84.226562 59.425781 85.652344 63.71875 85.972656 68.273438 C 86.394531 72.996094 85.824219 77.59375 84.261719 82.070312 C 81.964844 88.582031 78.664062 94.539062 74.359375 99.9375 C 72.8125 101.917969 70.992188 103.601562 68.902344 104.996094 C 66.8125 106.386719 64.554688 107.414062 62.136719 108.082031 C 60.042969 108.652344 57.890625 109.015625 55.078125 109.621094 Z M 78.425781 84.464844 C 79.648438 82.058594 80.550781 79.542969 81.132812 76.90625 C 81.714844 74.273438 81.953125 71.609375 81.851562 68.914062 C 81.789062 65.421875 80.738281 62.121094 79.652344 58.847656 C 78.207031 54.457031 75.949219 50.53125 72.882812 47.070312 C 70.460938 44.382812 67.558594 42.398438 64.171875 41.128906 C 59.414062 39.269531 54.339844 38.644531 49.273438 38.035156 C 43.601562 37.351562 38.332031 38.734375 33.132812 40.695312 C 32.832031 40.808594 32.554688 40.960938 32.300781 41.152344 C 29.058594 43.542969 25.691406 45.78125 22.617188 48.367188 C 21.558594 49.273438 20.5625 50.242188 19.632812 51.28125 C 18.703125 52.316406 17.84375 53.410156 17.058594 54.5625 C 16.273438 55.714844 15.570312 56.910156 14.945312 58.15625 C 14.320312 59.402344 13.78125 60.683594 13.328125 62 C 12.871094 63.316406 12.507812 64.660156 12.230469 66.023438 C 11.957031 67.390625 11.773438 68.765625 11.679688 70.15625 C 11.589844 71.546875 11.589844 72.9375 11.683594 74.328125 C 11.777344 75.71875 11.960938 77.09375 12.238281 78.460938 C 13.195312 83.273438 14.722656 87.894531 16.828125 92.324219 C 20.363281 99.753906 25.984375 104.992188 33.992188 107.347656 C 36.324219 108.03125 38.742188 108.433594 41.136719 108.894531 C 42.117188 109.085938 43.175781 109.609375 44.082031 108.601562 C 44.222656 108.449219 44.585938 108.507812 44.84375 108.445312 C 45.605469 108.246094 46.378906 108.070312 47.128906 107.828125 C 48.539062 107.371094 49.925781 106.835938 51.339844 106.398438 C 54.730469 105.347656 58.15625 104.398438 61.527344 103.285156 C 64.371094 102.402344 66.839844 100.90625 68.941406 98.792969 C 71.515625 96.171875 73.761719 93.292969 75.683594 90.160156 C 76.355469 89.054688 76.882812 87.859375 77.5 86.65625 C 75.296875 86.28125 75.011719 86.265625 73.476562 84.640625 C 71.894531 82.925781 70.40625 81.136719 69.007812 79.273438 C 67.234375 76.941406 66.144531 74.324219 65.734375 71.425781 C 64.84375 65.660156 64.9375 59.910156 66.019531 54.175781 C 66.464844 51.679688 67.425781 49.402344 68.910156 47.34375 C 69.207031 46.902344 69.558594 46.507812 69.960938 46.164062 C 70.605469 45.652344 71.28125 45.925781 71.289062 46.75 C 71.277344 47.546875 71.140625 48.320312 70.875 49.070312 C 69.980469 51.585938 69.460938 54.175781 69.316406 56.84375 C 69.203125 59.804688 69.078125 62.78125 69.203125 65.738281 C 69.28125 68.023438 69.585938 70.277344 70.125 72.496094 C 71.054688 76.160156 73.222656 79.21875 75.566406 82.113281 C 76.304688 83.027344 77.410156 83.648438 78.425781 84.464844 Z M 78.425781 84.464844 " fill-opacity="1" fill-rule="nonzero"/><path fill="#ffffff" d="M 59.570312 74.585938 C 58.660156 70.695312 58.261719 66.753906 58.371094 62.761719 C 58.585938 56.570312 60.109375 50.722656 62.933594 45.210938 C 63.300781 44.445312 63.777344 43.75 64.359375 43.128906 C 64.757812 42.773438 65.214844 42.640625 65.738281 42.734375 C 66.40625 42.941406 66.136719 43.570312 65.984375 44.089844 C 65.035156 47.289062 63.996094 50.464844 63.175781 53.699219 C 60.988281 62.328125 61.636719 70.835938 64.550781 79.199219 C 65.3125 81.367188 66.394531 83.363281 67.800781 85.183594 C 69.054688 86.824219 70.378906 88.414062 71.664062 90.03125 C 72.019531 90.421875 72.332031 90.847656 72.59375 91.308594 C 72.71875 91.519531 72.777344 91.75 72.773438 91.996094 C 72.773438 92.242188 72.707031 92.46875 72.574219 92.679688 C 72.445312 92.886719 72.273438 93.050781 72.054688 93.160156 C 71.835938 93.273438 71.601562 93.320312 71.355469 93.304688 C 70.507812 93.328125 69.800781 93.027344 69.226562 92.402344 C 65.253906 88.476562 61.964844 84.105469 60.449219 78.621094 C 60.082031 77.296875 59.859375 75.929688 59.570312 74.585938 Z M 59.570312 74.585938 " fill-opacity="1" fill-rule="nonzero"/><g clip-path="url(#c86cd34612)"><path stroke-linecap="butt" transform="matrix(0.747263, 0, 0, 0.747263, 136.816788, 128.560829)" fill="none" stroke-linejoin="miter" d="M -0.000510305 1.999108 L 52.801577 1.999108 " stroke="#ffffff" stroke-width="4" stroke-opacity="1" stroke-miterlimit="4"/></g></svg>