<svg xmlns="http://www.w3.org/2000/svg" xmlns:xlink="http://www.w3.org/1999/xlink" width="165" zoomAndPan="magnify" viewBox="0 0 123.75 181.5" height="242" preserveAspectRatio="xMidYMid meet" version="1.0"><defs><clipPath id="c5371f0b2c"><path d="M 84 5.207031 L 96 5.207031 L 96 46 L 84 46 Z M 84 5.207031 " clip-rule="nonzero"/></clipPath><clipPath id="76bc31c397"><path d="M 99 31 L 121.492188 31 L 121.492188 52 L 99 52 Z M 99 31 " clip-rule="nonzero"/></clipPath><clipPath id="490a9e5022"><path d="M 1.820312 159 L 18 159 L 18 180.972656 L 1.820312 180.972656 Z M 1.820312 159 " clip-rule="nonzero"/></clipPath><clipPath id="4c20b6c58f"><path d="M 0.046875 9 L 4 9 L 4 13 L 0.046875 13 Z M 0.046875 9 " clip-rule="nonzero"/></clipPath></defs><path fill="#ffffff" d="M 90.714844 46.539062 C 89.507812 49.660156 87.578125 52.417969 85.675781 55.148438 C 84.796875 55.933594 84.644531 58.070312 86.152344 58.125 C 86.421875 58.089844 86.648438 57.988281 86.835938 57.792969 C 88.1875 56.660156 89.582031 55.570312 90.875 54.371094 C 93.386719 51.976562 95.917969 49.59375 98.011719 46.8125 C 102.644531 41.28125 105.933594 34.789062 108.691406 28.160156 C 110.441406 24.109375 112.789062 19.789062 111.554688 15.257812 C 111.066406 13.515625 109.859375 11.488281 107.878906 11.351562 C 107.820312 11.351562 107.769531 11.351562 107.710938 11.351562 C 105.597656 11.351562 104.183594 13.1875 102.976562 14.707031 C 101.300781 16.90625 99.621094 19.171875 98.460938 21.691406 C 96.710938 25.726562 95.789062 30.042969 94.742188 34.304688 C 93.574219 38.441406 92.144531 42.492188 90.714844 46.546875 Z M 98.851562 29.277344 C 100.378906 25.410156 101.371094 21.261719 103.941406 17.902344 C 104.902344 16.796875 105.757812 15.074219 107.378906 14.988281 C 109.570312 16.566406 108.988281 20.144531 108.816406 22.527344 C 108.148438 26.613281 106.40625 30.382812 104.015625 33.746094 C 99.710938 40.132812 95.25 46.449219 90.363281 52.40625 C 92.761719 48.425781 93.761719 43.953125 94.925781 39.496094 C 95.90625 35.972656 97.453125 32.648438 98.847656 29.269531 Z M 98.851562 29.277344 " fill-opacity="1" fill-rule="nonzero"/><g clip-path="url(#c5371f0b2c)"><path fill="#ffffff" d="M 86.707031 40.75 C 86.960938 42.179688 86.539062 43.960938 87.332031 45.203125 C 88.207031 46.109375 89.363281 44.851562 89.246094 43.878906 C 88.984375 39.921875 89.109375 35.957031 89.058594 31.996094 C 88.585938 25.824219 88.179688 19.816406 88.113281 13.601562 C 88.1875 12.171875 88.28125 10.304688 89.632812 9.492188 C 91.5625 9.628906 93.03125 10.53125 93.480469 12.492188 C 94.722656 16.535156 94.300781 20.789062 94.207031 24.949219 C 94.316406 25.859375 93.472656 29.605469 94.839844 29.628906 C 95.1875 29.597656 95.425781 29.25 95.484375 28.929688 C 95.628906 26.402344 95.519531 23.839844 95.601562 21.296875 C 95.425781 17.980469 95.324219 14.648438 94.96875 11.34375 C 94.691406 8.460938 92.484375 6.128906 89.804688 5.238281 C 89.683594 5.214844 89.558594 5.207031 89.4375 5.207031 C 88.359375 5.207031 87.417969 5.992188 86.800781 6.835938 C 84.65625 9.675781 85.363281 13.378906 85.1875 16.6875 C 84.917969 20.777344 84.273438 24.871094 84.949219 28.960938 C 85.535156 32.886719 86.191406 36.808594 86.691406 40.75 Z M 86.707031 40.75 " fill-opacity="1" fill-rule="nonzero"/></g><path fill="#ffffff" d="M 93.597656 64.574219 C 91.671875 66.601562 89.414062 68.304688 87.800781 70.617188 C 85.441406 73.824219 84.230469 77.667969 82.175781 81.058594 C 81.636719 81.8125 82.507812 83.097656 83.207031 82.132812 C 83.867188 81.035156 84.519531 79.9375 85.230469 78.871094 C 88.101562 75.269531 90.4375 71.253906 93.472656 67.796875 C 95.492188 65.539062 98.0625 63.828125 99.921875 61.4375 C 101.164062 59.265625 105.351562 53.09375 101.207031 51.917969 C 98.585938 51.984375 96.078125 53.125 93.726562 54.214844 C 91.796875 55.113281 90.378906 56.753906 88.855469 58.183594 C 87.960938 59.238281 84.863281 61.148438 85.492188 62.648438 C 85.761719 63.210938 86.445312 62.96875 86.625 62.476562 C 90.554688 58.5625 95.230469 54.371094 101.066406 54.242188 C 100.769531 55.339844 99.949219 56.230469 99.40625 57.210938 C 97.902344 59.992188 95.636719 62.199219 93.589844 64.582031 Z M 93.597656 64.574219 " fill-opacity="1" fill-rule="nonzero"/><path fill="#ffffff" d="M 69.953125 63.195312 C 70.1875 64.328125 70.207031 66.46875 71.886719 66.144531 C 73.441406 65.613281 73.085938 63.703125 72.925781 62.441406 C 72.777344 60.582031 72.410156 58.742188 71.886719 56.957031 C 70.207031 51.695312 67.660156 46.363281 68.921875 40.714844 C 69.097656 39.480469 69.585938 38.195312 70.695312 37.503906 C 73.097656 36.453125 74.355469 44.738281 74.769531 46.378906 C 75.292969 48.964844 75.242188 51.578125 75.21875 54.191406 C 75.472656 55.765625 77.003906 55.164062 77.035156 53.84375 C 77.773438 49.582031 75.953125 37.199219 71.695312 35.320312 C 71.609375 35.320312 71.523438 35.3125 71.4375 35.3125 C 68.199219 35.3125 66.628906 39.402344 66.097656 42.125 C 64.953125 46.964844 67.050781 51.648438 68.710938 56.101562 C 69.375 58.417969 69.445312 60.84375 69.953125 63.195312 Z M 69.953125 63.195312 " fill-opacity="1" fill-rule="nonzero"/><g clip-path="url(#76bc31c397)"><path fill="#ffffff" d="M 118.683594 31.5 C 118.285156 31.40625 117.882812 31.363281 117.484375 31.363281 C 113.847656 31.363281 110.433594 35.125 107.929688 37.367188 C 105.316406 40.003906 102.707031 42.667969 100.480469 45.652344 C 100.09375 46.132812 99.515625 46.960938 100.09375 47.503906 C 100.53125 47.773438 100.726562 47.300781 100.953125 47.003906 C 101.640625 46.082031 102.453125 45.152344 103.289062 44.234375 C 105.265625 42.179688 106.914062 39.660156 109.359375 38.09375 C 110.414062 37.449219 111.464844 36.808594 112.578125 36.277344 C 113.8125 35.625 115.050781 34.933594 116.425781 34.636719 C 117.40625 34.464844 119.21875 34.515625 119.214844 35.855469 C 118.699219 37.097656 117.324219 37.664062 116.316406 38.433594 C 114.347656 39.566406 112.480469 40.894531 110.625 42.195312 C 109.0625 43.277344 107.480469 44.339844 106.070312 45.625 C 104.859375 46.710938 103.550781 47.691406 102.25 48.679688 C 101.75 49.066406 101.578125 49.789062 101.800781 50.371094 C 102.003906 50.910156 102.5625 51.207031 103.070312 50.871094 C 104.394531 50 105.6875 49.09375 107.117188 48.398438 C 108.976562 47.503906 110.855469 46.652344 112.597656 45.542969 C 113.816406 44.738281 114.949219 43.800781 116.0625 42.855469 C 117.710938 41.367188 119.570312 40.011719 120.796875 38.128906 C 122.351562 35.902344 121.59375 32.082031 118.675781 31.5 Z M 118.683594 31.5 " fill-opacity="1" fill-rule="nonzero"/></g><path fill="#ffffff" d="M 105.78125 65.648438 C 105.679688 65.648438 105.578125 65.648438 105.476562 65.648438 C 100.8125 65.648438 96.515625 68.261719 93.023438 71.167969 C 91.890625 72.34375 87.882812 75.039062 89.226562 76.792969 C 90.007812 77.824219 90.824219 76.730469 91.351562 76.070312 C 94.308594 72.953125 97.785156 70.304688 101.875 68.902344 C 103.117188 68.523438 104.464844 67.792969 105.765625 68 C 104.546875 70.617188 101.546875 71.558594 99.203125 72.894531 C 95.390625 74.941406 91.910156 77.550781 88.519531 80.214844 C 87.730469 80.699219 88.128906 82.507812 89.167969 81.933594 C 89.820312 81.464844 90.488281 81.007812 91.148438 80.546875 C 94.765625 77.535156 99.660156 76.722656 103.21875 73.613281 C 105.074219 71.945312 109.882812 67.347656 105.773438 65.65625 Z M 105.78125 65.648438 " fill-opacity="1" fill-rule="nonzero"/><path fill="#ffffff" d="M 93.785156 83.410156 L 93.71875 83.410156 C 88.761719 83.410156 84.359375 86.25 80.164062 88.59375 C 77.316406 90.34375 74.332031 91.914062 71.617188 93.867188 C 72.597656 91.917969 73.199219 87.722656 73.164062 86.871094 C 73.722656 81.636719 73.039062 76.25 74.566406 71.152344 C 76.011719 66.933594 77.375 60.871094 80.65625 57.800781 C 82.589844 59.941406 81.601562 63.144531 81.042969 65.65625 C 80.679688 67.625 80.375 69.597656 80.027344 71.566406 C 79.285156 75.304688 78.652344 79.03125 77.59375 82.710938 C 76.75 85.019531 75.363281 87.285156 74.1875 89.488281 C 73.867188 90.113281 73.207031 90.886719 73.796875 91.554688 C 74.09375 91.859375 74.527344 91.730469 74.730469 91.390625 C 77.339844 87.4375 79.03125 83.011719 80.851562 78.667969 C 81.652344 76.714844 82.546875 74.785156 83.054688 72.730469 C 83.589844 70.761719 83.605469 68.714844 83.78125 66.695312 C 83.917969 62.910156 85.1875 57.648438 82.304688 54.675781 C 82.566406 54.699219 82.84375 54.582031 83.003906 54.316406 C 84.003906 51.640625 83.277344 48.578125 82.804688 45.839844 C 80.773438 38.421875 77.59375 31.332031 75.328125 23.972656 C 74.9375 22.34375 73.671875 17.558594 76.402344 17.625 C 78.128906 17.648438 79.820312 18.632812 80.433594 20.289062 C 82.40625 24.796875 80.96875 29.824219 81.828125 34.542969 C 82.085938 36.007812 83.621094 35.3125 83.4375 34.085938 C 83.214844 30.296875 82.871094 26.511719 82.640625 22.722656 C 82.550781 19.695312 81.796875 15.648438 78.441406 14.640625 C 77.824219 14.503906 77.265625 14.4375 76.765625 14.4375 C 70.1875 14.4375 73.503906 25.648438 74.871094 29.832031 C 75.640625 32.191406 77.136719 34.308594 78.1875 36.621094 C 79.699219 40.277344 80.699219 44.171875 81.425781 48.054688 C 81.871094 50.050781 81.339844 52.128906 81.636719 54.105469 C 81.609375 54.082031 81.585938 54.058594 81.566406 54.046875 C 81.230469 53.871094 80.898438 53.800781 80.570312 53.800781 C 79.421875 53.800781 78.320312 54.691406 77.527344 55.492188 C 75.515625 57.632812 74.667969 60.542969 74.085938 63.363281 C 73.1875 68.066406 71.996094 72.734375 71.472656 77.507812 C 71.027344 81.28125 71.398438 85.101562 70.832031 88.871094 C 70.609375 90.113281 70.367188 91.359375 69.953125 92.558594 C 69.589844 92.929688 69.484375 93.523438 69.597656 94.019531 C 69.851562 94.476562 70.101562 94.730469 70.339844 94.832031 C 70.28125 94.875 70.230469 94.917969 70.171875 94.960938 C 68.660156 96.128906 67.289062 97.460938 65.933594 98.804688 C 64.800781 100.015625 63.273438 101.117188 62.730469 102.730469 C 62.460938 103.585938 63.246094 104.878906 64.195312 104.257812 C 64.226562 104.523438 64.378906 104.785156 64.601562 104.910156 C 64.023438 105.28125 63.457031 105.664062 62.910156 106.070312 C 60.929688 107.640625 59.199219 109.511719 57.488281 111.363281 C 56.839844 112.132812 53.796875 115.058594 55.460938 115.808594 C 55.992188 115.835938 56.371094 115.351562 56.730469 115.03125 C 57.617188 114.152344 58.53125 113.296875 59.417969 112.425781 C 61.191406 110.617188 63.152344 109.011719 65.097656 107.398438 C 68.625 104.5625 72.292969 103.28125 76.578125 105.375 C 76.578125 105.375 76.597656 105.394531 76.613281 105.402344 C 76.648438 105.4375 76.683594 105.484375 76.722656 105.519531 C 76.164062 107.75 73.957031 108.917969 72.109375 109.992188 C 69.597656 111.429688 66.890625 112.460938 64.183594 113.449219 C 61.445312 114.550781 58.890625 116.054688 56.527344 117.828125 C 55.011719 118.9375 53.515625 120.070312 52.0625 121.253906 C 51.488281 121.691406 50.902344 122.089844 50.304688 122.488281 C 49.617188 122.96875 49.703125 124.28125 50.503906 124.601562 C 50.71875 124.679688 50.917969 124.628906 51.113281 124.519531 C 51.585938 124.261719 52.050781 124.003906 52.519531 123.746094 C 53.652344 123.191406 54.960938 122.667969 56.238281 122.097656 C 59.832031 120.613281 63.0625 118.445312 66.347656 116.390625 C 67.785156 115.5625 69.222656 114.710938 70.769531 114.085938 C 71.480469 113.804688 72.199219 113.519531 72.902344 113.214844 C 72.902344 113.238281 72.902344 113.257812 72.917969 113.28125 C 73.027344 113.679688 73.382812 114.109375 73.847656 114 C 74.839844 113.722656 75.972656 113.527344 76.910156 114.078125 C 75.3125 116.308594 72.828125 117.71875 70.621094 119.273438 C 67.558594 121.363281 63.855469 122.066406 60.277344 122.726562 C 58.300781 123.089844 56.390625 123.679688 54.503906 124.355469 C 52.746094 124.914062 50.808594 125.445312 48.949219 126.167969 C 48.164062 126.546875 46.617188 127.019531 45.382812 127.695312 C 45.246094 126.628906 44.765625 125.566406 43.707031 125.21875 C 43.589844 125.1875 43.472656 125.175781 43.34375 125.175781 C 41.121094 125.175781 36.925781 129.589844 35.523438 131.042969 C 35.28125 131.316406 35.050781 131.601562 34.8125 131.875 C 36.199219 128.683594 37.242188 125.347656 37.90625 121.921875 C 38.59375 118.660156 38.90625 110.347656 35.339844 108.792969 C 31.355469 109.382812 28.964844 115.003906 28.640625 118.617188 C 28.414062 122.402344 27.773438 126.148438 27.492188 129.921875 C 27.433594 134.839844 25.160156 139.253906 23.019531 143.558594 C 22.351562 144.816406 21.3125 146 21.074219 147.421875 C 21.042969 147.902344 21.566406 148.214844 21.945312 147.910156 C 22.429688 147.457031 22.605469 146.769531 22.976562 146.222656 C 26.15625 140.816406 28.492188 134.773438 29.5625 128.585938 C 29.9375 123.230469 29.472656 118.496094 32.300781 113.585938 C 32.761719 112.679688 34.710938 110.195312 35.675781 111.566406 C 37.121094 113.273438 36.785156 115.675781 36.515625 117.730469 C 35.53125 122.792969 33.519531 127.585938 31.886719 132.464844 C 31.484375 133.53125 32.015625 134.332031 32.707031 134.425781 C 30.519531 137.125 28.441406 139.90625 26.554688 142.832031 C 25.617188 144.183594 24.328125 145.308594 23.570312 146.777344 C 23.207031 147.414062 23.476562 148.488281 24.332031 148.273438 C 24.289062 148.308594 24.246094 148.351562 24.203125 148.402344 C 20.515625 149.925781 17.261719 154.386719 14.980469 157.863281 C 15.351562 157.21875 15.679688 156.527344 15.925781 156.222656 C 17.617188 153.382812 19.367188 150.523438 20.222656 147.300781 C 21.421875 144.074219 21.972656 140.648438 21.5 137.222656 C 21.566406 134.730469 20.914062 127.222656 18.910156 125.777344 C 18.460938 125.566406 18.054688 125.464844 17.691406 125.464844 C 13.636719 125.464844 14.84375 137.789062 15.082031 140.351562 C 15.226562 143.210938 14.757812 146.066406 14.371094 148.890625 C 14 151.066406 13.355469 153.171875 12.527344 155.214844 C 12.265625 155.960938 11.75 156.714844 11.933594 157.539062 C 12.070312 158.117188 12.753906 158.234375 13.179688 157.878906 C 12.933594 158.277344 12.855469 158.976562 13.347656 159.230469 C 13.71875 159.410156 14.082031 159.148438 14.429688 158.707031 C 14.253906 158.980469 14.089844 159.242188 13.921875 159.496094 C 12.59375 161.085938 14.355469 163.121094 15.707031 161.175781 C 16.296875 159.664062 17.449219 158.429688 18.371094 157.101562 C 20.136719 154.539062 22.328125 152.230469 25.261719 151.046875 C 24.738281 154.03125 21.960938 155.996094 19.890625 157.980469 C 18.996094 159.019531 16.824219 160.070312 17.574219 161.683594 C 17.691406 161.859375 17.835938 161.964844 18 162.015625 C 17.921875 162.089844 17.84375 162.164062 17.769531 162.242188 C 16.722656 163.402344 17.835938 164.484375 18.996094 163.441406 C 22.917969 160.214844 27.464844 157.726562 32.203125 155.933594 C 37.039062 154.402344 42.328125 154.253906 47.242188 155.496094 C 43.996094 156.925781 40.394531 156.890625 36.980469 157.691406 C 33.789062 158.394531 30.789062 159.730469 27.761719 160.949219 C 25.613281 161.8125 23.433594 162.664062 21.414062 163.796875 C 20.777344 164.167969 19.738281 164.492188 19.960938 165.429688 C 20.070312 165.828125 20.464844 165.921875 20.804688 165.742188 C 22.648438 164.886719 24.277344 163.628906 26.191406 162.933594 C 30.882812 161.550781 35.90625 161.414062 40.570312 159.796875 C 43.328125 158.773438 46.363281 158.851562 49.085938 157.796875 C 50.859375 157.050781 52.078125 154.632812 50.792969 152.96875 C 49.433594 151.589844 47.265625 151.4375 45.433594 151.269531 C 40.15625 151.453125 34.941406 152.808594 29.894531 154.304688 C 27.113281 155.285156 24.574219 156.730469 22.21875 158.460938 C 23.882812 156.730469 25.472656 154.929688 26.730469 152.898438 C 26.738281 152.925781 26.746094 152.949219 26.757812 152.976562 C 26.992188 153.433594 27.570312 153.636719 28.023438 153.339844 C 29.429688 152.390625 30.949219 151.640625 32.464844 150.871094 C 35.128906 149.550781 37.867188 148.367188 40.527344 147.023438 C 43.871094 145.144531 47.265625 143.328125 50.988281 142.296875 C 55.476562 141.207031 60.015625 139.507812 63.507812 136.40625 C 67.820312 132.988281 66.671875 128.382812 61.050781 127.957031 C 60.421875 127.875 59.789062 127.832031 59.15625 127.832031 C 55.230469 127.832031 51.417969 129.34375 47.925781 131.0625 C 46.964844 131.566406 45.933594 132.101562 45.253906 132.964844 C 44.953125 133.429688 44.925781 134.273438 45.527344 134.492188 C 45.804688 134.585938 46.125 134.46875 46.320312 134.257812 C 46.683594 133.902344 47.191406 133.722656 47.632812 133.472656 C 51.074219 131.820312 54.773438 130.664062 58.605469 130.460938 C 58.851562 130.460938 59.113281 130.460938 59.390625 130.460938 C 61.132812 130.460938 63.332031 130.453125 64.085938 132.136719 C 64.195312 132.480469 63.972656 132.820312 63.71875 133.039062 C 61.707031 134.804688 59.121094 135.660156 56.675781 136.632812 C 54.074219 137.824219 51.375 138.738281 48.765625 139.898438 C 43.242188 142.195312 37.121094 143.242188 32.226562 146.886719 C 30.859375 147.808594 29.589844 148.859375 28.378906 149.964844 C 28.117188 150.195312 27.804688 150.449219 27.515625 150.71875 C 27.628906 150.035156 27.609375 149.347656 27.347656 148.824219 C 28.339844 148.230469 29.320312 147.605469 30.265625 146.929688 C 33.4375 144.453125 36.242188 141.5625 38.71875 138.398438 C 40.835938 136.175781 43.554688 134.019531 44.789062 131.15625 C 45.414062 131.0625 46.117188 130.433594 46.71875 130.140625 C 51.460938 127.765625 56.609375 126.421875 61.667969 124.914062 C 66.308594 123.496094 71.304688 122.667969 75.414062 119.953125 C 76.984375 118.820312 78.390625 117.363281 78.929688 115.460938 C 79.640625 113.410156 78.277344 111.457031 76.105469 111.457031 C 76.066406 111.457031 76.03125 111.457031 75.996094 111.457031 C 76.265625 111.253906 76.527344 111.03125 76.773438 110.789062 C 78.5 109.207031 79.808594 106.128906 78.667969 103.898438 C 77.933594 102.433594 76.132812 102.246094 74.675781 102.070312 C 74.222656 102.019531 73.773438 101.992188 73.332031 101.992188 C 72.335938 101.992188 71.363281 102.113281 70.398438 102.339844 C 72.800781 101.046875 75.285156 99.90625 77.90625 99.121094 C 81.878906 98.011719 85.535156 96.175781 89.144531 94.222656 C 91.652344 92.898438 94.582031 92.050781 96.378906 89.71875 C 98.367188 87.140625 97.140625 83.640625 93.769531 83.375 Z M 16.820312 139.507812 C 16.09375 135.730469 16.621094 131.921875 17.480469 128.195312 C 18.859375 129.566406 19.105469 131.761719 19.402344 133.613281 C 19.476562 135.355469 18.800781 137.015625 18.613281 138.730469 C 18.125 142.929688 17.457031 147.140625 16.15625 151.167969 C 16.933594 147.34375 17.507812 143.398438 16.820312 139.507812 Z M 40.453125 133.488281 C 37.804688 137.273438 33.859375 139.785156 30.519531 142.882812 C 28.71875 144.648438 26.96875 146.480469 24.878906 147.902344 C 25.902344 146.59375 27.171875 145.46875 28.136719 144.097656 C 29.722656 141.6875 31.441406 139.390625 33.265625 137.15625 C 35.996094 132.894531 37.976562 130.699219 42.523438 128.3125 C 42.921875 130.234375 41.339844 131.914062 40.453125 133.488281 Z M 80.585938 94.976562 C 77.289062 96.441406 74.339844 98.492188 71.136719 100.140625 C 69.25 101.023438 67.296875 101.765625 65.460938 102.773438 C 68.3125 99.59375 71.609375 96.90625 75.203125 94.621094 C 80.78125 90.285156 85.261719 87.789062 92.535156 87.867188 C 92.929688 87.890625 93.328125 87.910156 93.707031 88.042969 C 90.546875 92.144531 84.839844 92.484375 80.578125 94.976562 Z M 80.585938 94.976562 " fill-opacity="1" fill-rule="nonzero"/><path fill="#ffffff" d="M 38.144531 124.484375 C 38.230469 126.417969 40.503906 126.605469 40.640625 124.621094 C 40.941406 122.648438 41.730469 120.730469 41.957031 118.710938 C 42.644531 114.390625 42.441406 110.007812 42.175781 105.664062 C 42.066406 101.722656 42.167969 97.773438 42.398438 93.84375 C 42.609375 89.785156 43.328125 85.636719 45.824219 82.320312 C 47.734375 85.492188 46.886719 90.9375 47.292969 94.6875 C 48.1875 102.359375 45.054688 109.511719 43.101562 116.773438 C 42.53125 118.378906 44.511719 119.960938 45.265625 117.988281 C 47.574219 111.53125 48.230469 104.726562 49.117188 97.980469 C 49.941406 92.347656 50.734375 86.125 47.625 81.027344 C 47.175781 80.238281 46.699219 79.25 45.753906 78.980469 C 45.71875 78.980469 45.679688 78.980469 45.652344 78.980469 C 44.242188 78.980469 43.539062 80.644531 42.761719 81.609375 C 39.707031 85.746094 39.464844 91.085938 40.074219 96.015625 C 40.460938 99.789062 40.105469 103.582031 40.074219 107.363281 C 39.980469 110.878906 40.285156 114.421875 39.617188 117.890625 C 39.363281 120.144531 38.238281 122.242188 38.144531 124.492188 Z M 38.144531 124.484375 " fill-opacity="1" fill-rule="nonzero"/><path fill="#ffffff" d="M 47.316406 114.53125 C 46.515625 116.28125 45.941406 118.132812 45.0625 119.84375 C 44.375 121.101562 43.632812 122.335938 42.949219 123.597656 C 42.738281 123.984375 42.515625 124.609375 42.898438 124.980469 C 43 125.074219 43.152344 125.160156 43.300781 125.117188 C 43.707031 124.921875 43.917969 124.46875 44.207031 124.144531 C 45.09375 122.925781 45.898438 121.644531 46.582031 120.300781 C 48.085938 117.1875 49.210938 113.90625 50.109375 110.566406 C 51.226562 106.941406 52.933594 103.507812 53.734375 99.78125 C 54.359375 97.320312 54.378906 94.679688 55.570312 92.398438 C 55.808594 91.859375 56.914062 90.277344 57.496094 91.128906 C 57.699219 92.585938 57.546875 94.074219 57.75 95.542969 C 57.828125 98.113281 57.8125 100.699219 57.523438 103.253906 C 57.234375 105.628906 56.464844 107.914062 55.441406 110.078125 C 54.597656 111.640625 53.734375 113.195312 52.761719 114.683594 C 51.84375 116.035156 50.996094 117.425781 50.175781 118.84375 C 49.878906 119.335938 49.921875 120.070312 50.328125 120.492188 C 50.648438 120.832031 51.207031 120.855469 51.496094 120.449219 C 54.503906 116.441406 56.382812 111.765625 58.546875 107.285156 C 59.578125 105.070312 60.3125 102.714844 60.632812 100.292969 C 60.660156 100.066406 60.691406 99.839844 60.71875 99.609375 C 61.183594 98.273438 61.574219 96.914062 61.867188 95.5625 C 62.503906 90.640625 62.6875 85.660156 63.152344 80.714844 C 63.238281 76.285156 61.871094 71.378906 64.378906 67.355469 C 66.90625 68.203125 66.816406 71.632812 67.28125 73.832031 C 68.421875 80.546875 66.753906 87.222656 65.320312 93.765625 C 64.980469 95.347656 66.765625 96.023438 67.210938 94.328125 C 68.640625 89.800781 68.378906 85.015625 69.0625 80.359375 C 69.484375 75.429688 71.796875 65.65625 65.285156 63.984375 C 65.257812 63.984375 65.21875 63.984375 65.191406 63.984375 C 62.191406 63.984375 61.980469 67.894531 61.277344 70.09375 C 60.230469 73.453125 60.421875 76.96875 60.871094 80.410156 C 61.253906 84.613281 61.167969 88.839844 60.53125 93 C 60.238281 91.003906 59.914062 88.390625 57.625 87.882812 C 57.515625 87.875 57.40625 87.867188 57.304688 87.867188 C 53.21875 87.867188 51.699219 94.882812 51.046875 98.054688 C 50.566406 100.363281 50.089844 102.671875 49.683594 104.996094 C 49.066406 108.214844 48.613281 111.507812 47.328125 114.542969 Z M 47.316406 114.53125 " fill-opacity="1" fill-rule="nonzero"/><g clip-path="url(#490a9e5022)"><path fill="#ffffff" d="M 14.800781 165.851562 C 10.929688 169.207031 8.839844 173.925781 6.320312 178.253906 C 5.441406 177.882812 4.714844 177.257812 3.929688 176.726562 C 5.136719 174.839844 6.238281 172.894531 7.464844 171.019531 C 8.816406 169.328125 9.8125 167.207031 10.625 165.167969 C 11.191406 163.832031 11.757812 162.480469 12.089844 161.074219 C 12.332031 160.738281 12.308594 160.101562 11.851562 159.960938 C 11.835938 159.960938 11.824219 159.960938 11.800781 159.960938 C 10.75 159.960938 10.285156 161.921875 9.78125 162.691406 C 9.316406 163.613281 8.824219 164.523438 8.386719 165.457031 C 7.402344 168.144531 5.195312 170.0625 4.0625 172.675781 C 3.589844 173.996094 1.140625 177.082031 2.152344 178.289062 C 3.253906 179.234375 5.238281 181.550781 6.804688 180.894531 C 8.460938 179.988281 9.46875 177.925781 10.550781 176.410156 C 11.742188 174.609375 13.011719 172.863281 14.378906 171.1875 C 15.277344 169.777344 16.949219 168.753906 17.289062 167.070312 C 17.53125 165.496094 15.875 164.710938 14.792969 165.867188 Z M 11.910156 161.292969 C 11.765625 161.421875 11.539062 161.421875 11.351562 161.472656 C 11.53125 161.40625 11.722656 161.347656 11.910156 161.292969 Z M 11.910156 161.292969 " fill-opacity="1" fill-rule="nonzero"/></g><g clip-path="url(#4c20b6c58f)"><path stroke-linecap="butt" transform="matrix(0.74794, 0, 0, 0.74794, -37.670295, 9.349244)" fill="none" stroke-linejoin="miter" d="M -0.00211228 1.998164 L 52.799199 1.998164 " stroke="#ffffff" stroke-width="4" stroke-opacity="1" stroke-miterlimit="4"/></g></svg>